<svg width="20" height="20" viewBox="0 0 20 20" fill="none" xmlns="http://www.w3.org/2000/svg">
<path d="M10.0001 18.6701C5.24629 18.6701 1.37939 14.8032 1.37939 10.0494C1.37939 5.29561 5.24629 1.42871 10.0001 1.42871C14.7539 1.42871 18.6208 5.29561 18.6208 10.0494C18.6208 14.8032 14.7539 18.6701 10.0001 18.6701ZM10.0001 2.80802C6.00698 2.80802 2.7587 6.0563 2.7587 10.0494C2.7587 14.0425 6.00698 17.2908 10.0001 17.2908C13.9932 17.2908 17.2415 14.0418 17.2415 10.0494C17.2415 6.05699 13.9932 2.80802 10.0001 2.80802Z" fill="#2F3337"/>
<path d="M9.99996 14.8769C9.81705 14.8769 9.64163 14.8042 9.5123 14.6749C9.38296 14.5455 9.3103 14.3701 9.3103 14.1872V5.91133C9.3103 5.72843 9.38296 5.55301 9.5123 5.42367C9.64163 5.29434 9.81705 5.22168 9.99996 5.22168C10.1829 5.22168 10.3583 5.29434 10.4876 5.42367C10.617 5.55301 10.6896 5.72843 10.6896 5.91133V14.1872C10.6896 14.3701 10.617 14.5455 10.4876 14.6749C10.3583 14.8042 10.1829 14.8769 9.99996 14.8769Z" fill="#2F3337"/>
<path d="M14.1379 10.7387H5.86202C5.67911 10.7387 5.50369 10.666 5.37436 10.5367C5.24502 10.4074 5.17236 10.2319 5.17236 10.049C5.17236 9.86612 5.24502 9.69071 5.37436 9.56137C5.50369 9.43204 5.67911 9.35938 5.86202 9.35938H14.1379C14.3208 9.35938 14.4962 9.43204 14.6255 9.56137C14.7549 9.69071 14.8275 9.86612 14.8275 10.049C14.8275 10.2319 14.7549 10.4074 14.6255 10.5367C14.4962 10.666 14.3208 10.7387 14.1379 10.7387Z" fill="#2F3337"/>
</svg>
