<svg width="25" height="25" viewBox="0 0 25 25" fill="none" xmlns="http://www.w3.org/2000/svg">
<path d="M14.7658 6.13249L18.4783 9.88249C18.5486 9.95222 18.6044 10.0352 18.6425 10.1266C18.6806 10.218 18.7002 10.316 18.7002 10.415C18.7002 10.514 18.6806 10.612 18.6425 10.7034C18.6044 10.7948 18.5486 10.8778 18.4783 10.9475C18.3378 11.0872 18.1477 11.1656 17.9496 11.1656C17.7514 11.1656 17.5613 11.0872 17.4208 10.9475L13.7083 7.19749C13.001 6.5144 12.0538 6.13642 11.0706 6.14497C10.0873 6.15351 9.14677 6.54789 8.45149 7.24317C7.75621 7.93845 7.36182 8.879 7.35328 9.86224C7.34474 10.8455 7.72271 11.7927 8.40581 12.5L14.7658 18.8675C15.1885 19.2902 15.7618 19.5276 16.3596 19.5276C16.9573 19.5276 17.5306 19.2902 17.9533 18.8675C18.376 18.4448 18.6135 17.8715 18.6135 17.2737C18.6135 16.676 18.376 16.1027 17.9533 15.68L11.5858 9.31999C11.4423 9.19712 11.2578 9.13292 11.069 9.14021C10.8803 9.1475 10.7012 9.22575 10.5676 9.35932C10.4341 9.49289 10.3558 9.67195 10.3485 9.8607C10.3412 10.0495 10.4054 10.234 10.5283 10.3775L16.8883 16.745C16.9668 16.8122 17.0306 16.895 17.0756 16.988C17.1206 17.0811 17.1459 17.1824 17.1499 17.2857C17.1539 17.389 17.1365 17.492 17.0988 17.5882C17.0611 17.6845 17.0039 17.7719 16.9308 17.845C16.8577 17.9181 16.7703 17.9753 16.674 18.013C16.5778 18.0507 16.4748 18.0681 16.3715 18.0641C16.2682 18.0601 16.1669 18.0348 16.0738 17.9898C15.9808 17.9448 15.898 17.881 15.8308 17.8025L9.46331 11.4425C9.04062 11.0198 8.80315 10.4465 8.80315 9.84874C8.80315 9.25097 9.04062 8.67768 9.46331 8.25499C9.886 7.83231 10.4593 7.59484 11.0571 7.59484C11.6548 7.59484 12.2281 7.83231 12.6508 8.25499L19.0108 14.6225C19.6939 15.3298 20.0719 16.277 20.0633 17.2602C20.0548 18.2435 19.6604 19.184 18.9651 19.8793C18.2698 20.5746 17.3293 20.969 16.3461 20.9775C15.3628 20.9861 14.4156 20.6081 13.7083 19.925L7.34081 13.5575C6.35619 12.5729 5.80304 11.2375 5.80304 9.84499C5.80304 8.45254 6.35619 7.11711 7.34081 6.13249C8.32542 5.14788 9.66085 4.59473 11.0533 4.59473C12.4458 4.59473 13.7812 5.14788 14.7658 6.13249Z" fill="#00A0A3"/>
</svg>
