<?xml version="1.0" encoding="UTF-8"?>
<svg version="1.1" xmlns="http://www.w3.org/2000/svg" width="128" height="128">
<path d="M0 0 C0.99 0.33 1.98 0.66 3 1 C0.525 4.465 0.525 4.465 -2 8 C1.3 11.3 4.6 14.6 8 18 C12.15358254 14.56530675 15.78875342 11.36729534 19 7 C17.7625 5.824375 17.7625 5.824375 16.5 4.625 C14 2 14 2 14 0 C17.82097239 0.53069061 20.06171403 1.49701566 23 4 C23.7425 3.319375 24.485 2.63875 25.25 1.9375 C26.1575 1.298125 27.065 0.65875 28 0 C29.32 0.33 30.64 0.66 32 1 C30.02 3.31 28.04 5.62 26 8 C27.26451932 9.31858428 28.53685475 10.62967631 29.8125 11.9375 C30.52019531 12.66839844 31.22789063 13.39929688 31.95703125 14.15234375 C33.95536163 16.20834646 33.95536163 16.20834646 37 17 C40.85903564 14.78310719 43.97731777 12.25519625 47 9 C45.99554337 6.75928906 45.12245015 5.12245015 43.375 3.375 C42.694375 2.694375 42.694375 2.694375 42 2 C42 1.34 42 0.68 42 0 C45.68754757 0.49831724 47.60490662 1.10067643 50 4 C52.46800047 2.84826645 54.04783565 1.95216435 56 0 C58.125 0.375 58.125 0.375 60 1 C58.66536458 2.46484375 57.33072917 3.9296875 55.99609375 5.39453125 C55.66738281 5.92433594 55.33867188 6.45414062 55 7 C56.21065165 10.63195496 57.53691126 11.42896192 60.5625 13.6875 C61.38878906 14.31011719 62.21507813 14.93273438 63.06640625 15.57421875 C63.70449219 16.04472656 64.34257813 16.51523437 65 17 C68.98381075 14.83735988 71.88983545 12.28788824 75 9 C73.50163895 5.88801935 71.80066242 2.9465385 70 0 C73.68754757 0.49831724 75.60490662 1.10067643 78 4 C80.46800047 2.84826645 82.04783565 1.95216435 84 0 C86.125 0.375 86.125 0.375 88 1 C86.35 2.98 84.7 4.96 83 7 C84.40844718 10.21524305 86.10344786 12.32183868 88.625 14.75 C89.25664063 15.36359375 89.88828125 15.9771875 90.5390625 16.609375 C91.02117187 17.06828125 91.50328125 17.5271875 92 18 C95.45201639 16.52278578 97.64961936 14.56205999 100.25 11.875 C101.30960938 10.78832031 101.30960938 10.78832031 102.390625 9.6796875 C102.92171875 9.12539062 103.4528125 8.57109375 104 8 C103.175 7.05125 102.35 6.1025 101.5 5.125 C99 2.25 99 2.25 99 0 C103.76470588 1.85294118 103.76470588 1.85294118 106 3.25 C108.11110906 4.27682209 108.11110906 4.27682209 110.75 3.125 C111.4925 2.75375 112.235 2.3825 113 2 C112.34 4.31 111.68 6.62 111 9 C111.680625 9.5775 112.36125 10.155 113.0625 10.75 C113.701875 11.4925 114.34125 12.235 115 13 C114.67 14.32 114.34 15.64 114 17 C111.69 15.02 109.38 13.04 107 11 C103.7 14.3 100.4 17.6 97 21 C98.74676919 24.49353838 99.91405215 26.13945763 102.625 28.75 C103.25664063 29.36359375 103.88828125 29.9771875 104.5390625 30.609375 C105.02117187 31.06828125 105.50328125 31.5271875 106 32 C109.10021321 30.47639094 112.05162229 28.80178638 115 27 C114.50168276 30.68754757 113.89932357 32.60490662 111 35 C112.15173355 37.46800047 113.04783565 39.04783565 115 41 C114.625 43.125 114.625 43.125 114 45 C112.02 43.35 110.04 41.7 108 40 C104.78475695 41.40844718 102.67816132 43.10344786 100.25 45.625 C99.63640625 46.25664063 99.0228125 46.88828125 98.390625 47.5390625 C97.93171875 48.02117188 97.4728125 48.50328125 97 49 C98.47721422 52.45201639 100.43794001 54.64961936 103.125 57.25 C104.21167969 58.30960938 104.21167969 58.30960938 105.3203125 59.390625 C105.87460938 59.92171875 106.42890625 60.4528125 107 61 C109.64 59.02 112.28 57.04 115 55 C114.50168276 58.68754757 113.89932357 60.60490662 111 63 C112.15173355 65.46800047 113.04783565 67.04783565 115 69 C115 70.32 115 71.64 115 73 C112.11562221 71.70700306 110.12780579 70.34058637 108 68 C104.78475695 69.40844718 102.67816132 71.10344786 100.25 73.625 C99.63640625 74.25664063 99.0228125 74.88828125 98.390625 75.5390625 C97.93171875 76.02117187 97.4728125 76.50328125 97 77 C98.47721422 80.45201639 100.43794001 82.64961936 103.125 85.25 C104.21167969 86.30960938 104.21167969 86.30960938 105.3203125 87.390625 C105.87460938 87.92171875 106.42890625 88.4528125 107 89 C107.94875 88.175 108.8975 87.35 109.875 86.5 C112.75 84 112.75 84 115 84 C114.35455571 87.48539917 112.89865603 90.02819057 111 93 C111.99 93.86625 111.99 93.86625 113 94.75 C115 97 115 97 115 101 C112.04590299 99.62845496 109.55991624 98.01136276 107 96 C106.731875 97.093125 106.46375 98.18625 106.1875 99.3125 C105.04763011 102.85209598 104.5600561 103.6532819 102 106 C100.80972016 108.59915538 100.80972016 108.59915538 100 111 C102.64 112.98 105.28 114.96 108 117 C108.78375 116.175 109.5675 115.35 110.375 114.5 C113 112 113 112 115 112 C114.50168276 115.68754757 113.89932357 117.60490662 111 120 C111.66 121.98 112.32 123.96 113 126 C112.0925 125.608125 111.185 125.21625 110.25 124.8125 C109.1775 124.544375 108.105 124.27625 107 124 C104.78963709 125.30344828 104.78963709 125.30344828 103 127 C102.01 127 101.02 127 100 127 C101.20381448 124.50638429 102.45428722 122.31856917 104 120 C101.82658631 117.72370282 99.68237626 115.66307328 97 114 C93.62026637 114.29172045 93.62026637 114.29172045 91 116 C90.67 116.66 90.34 117.32 90 118 C87.6859378 118.73075648 85.35171131 119.40138258 83 120 C83.28875 120.5775 83.5775 121.155 83.875 121.75 C84.91666667 123.83333333 85.95833333 125.91666667 87 128 C83.64404172 127.40072174 81.62198774 126.15377564 79 124 C77.8553125 124.99 77.8553125 124.99 76.6875 126 C74 128 74 128 71 128 C72.42431487 124.93224489 73.90780074 122.78959901 76 120 C72.7 116.7 69.4 113.4 66 110 C60.72927515 112.63536242 57.368598 116.21304495 54 121 C54.825 121.78375 55.65 122.5675 56.5 123.375 C59 126 59 126 59 128 C55.51460083 127.35455571 52.97180943 125.89865603 50 124 C49.401875 124.66 48.80375 125.32 48.1875 126 C46 128 46 128 43 128 C44.02486226 125.95027548 45.04359259 123.92428655 46.1875 121.9375 C47.31455354 119.84615294 47.31455354 119.84615294 46 117 C44.06669397 115.90833725 44.06669397 115.90833725 42 115 C40.66666667 113.66666667 39.33333333 112.33333333 38 111 C34.87737482 110.67171717 34.87737482 110.67171717 32.73828125 112.96875 C31.53751953 114.22171875 31.53751953 114.22171875 30.3125 115.5 C29.50425781 116.3353125 28.69601563 117.170625 27.86328125 118.03125 C27.24839844 118.6809375 26.63351563 119.330625 26 120 C26.825 120.94875 27.65 121.8975 28.5 122.875 C31 125.75 31 125.75 31 128 C27.17902761 127.46930939 24.93828597 126.50298434 22 124 C21.4225 124.680625 20.845 125.36125 20.25 126.0625 C19.5075 126.701875 18.765 127.34125 18 128 C16.68 127.67 15.36 127.34 14 127 C15.65 124.69 17.3 122.38 19 120 C17.906875 119.731875 16.81375 119.46375 15.6875 119.1875 C12.18219895 118.05867424 11.32484926 117.54626348 9 115 C7.15161419 114.12222763 7.15161419 114.12222763 5 114 C3.00003675 115.17865648 3.00003675 115.17865648 1.25 116.9375 C0.63640625 117.50339844 0.0228125 118.06929688 -0.609375 118.65234375 C-1.06828125 119.09707031 -1.5271875 119.54179688 -2 120 C-1.01 121.1446875 -1.01 121.1446875 0 122.3125 C2 125 2 125 2 128 C-0.9719385 126.87548273 -3.33440687 125.77706209 -6 124 C-8.67145537 124.80161791 -8.67145537 124.80161791 -11 126 C-10.34 124.02 -9.68 122.04 -9 120 C-9.66 119.4225 -10.32 118.845 -11 118.25 C-13 116 -13 116 -13 112 C-10.04590299 113.37154504 -7.55991624 114.98863724 -5 117 C-2.72370282 114.82658631 -0.66307328 112.68237626 1 110 C0.70827955 106.62026637 0.70827955 106.62026637 -1 104 C-1.66 103.67 -2.32 103.34 -3 103 C-3.73075648 100.6859378 -4.40138258 98.35171131 -5 96 C-7.64 97.65 -10.28 99.3 -13 101 C-12.46930939 97.17902761 -11.50298434 94.93828597 -9 92 C-9.99 90.8553125 -9.99 90.8553125 -11 89.6875 C-13 87 -13 87 -13 84 C-9.93224489 85.42431487 -7.78959901 86.90780074 -5 89 C-0.05 84.05 -0.05 84.05 5 79 C1.56530675 74.84641746 -1.63270466 71.21124658 -6 68 C-7.98 69.65 -9.96 71.3 -12 73 C-12.75 71.3125 -12.75 71.3125 -13 69 C-11.0625 66.25 -11.0625 66.25 -9 64 C-9.66 63.236875 -10.32 62.47375 -11 61.6875 C-13 59 -13 59 -13 56 C-9.93224489 57.42431487 -7.78959901 58.90780074 -5 61 C-1.7 57.7 1.6 54.4 5 51 C3.16614077 47.33228155 1.74937171 45.53165004 -1.125 42.75 C-2.21167969 41.69039062 -2.21167969 41.69039062 -3.3203125 40.609375 C-3.87460938 40.07828125 -4.42890625 39.5471875 -5 39 C-7.64 40.98 -10.28 42.96 -13 45 C-12.43454163 41.04179141 -11.19097652 38.3340947 -9 35 C-9.66 34.401875 -10.32 33.80375 -11 33.1875 C-13 31 -13 31 -13 28 C-10.33333333 29.33333333 -7.66666667 30.66666667 -5 32 C-1.7 28.7 1.6 25.4 5 22 C1.56530675 17.84641746 -1.63270466 14.21124658 -6 11 C-6.78375 11.825 -7.5675 12.65 -8.375 13.5 C-11 16 -11 16 -13 16 C-12.43628586 12.73045798 -11.50037734 11.17424117 -9 9 C-9.66 6.69 -10.32 4.38 -11 2 C-10.13375 2.5259375 -10.13375 2.5259375 -9.25 3.0625 C-7.08596543 4.16953689 -7.08596543 4.16953689 -4.9375 3.8125 C-2.74244718 2.89199398 -1.55133719 1.78403777 0 0 Z M22 10 C18.37 13.63 14.74 17.26 11 21 C14.52587708 25.18185421 18.07553326 29.19095875 22 33 C25.51855159 31.59257936 26.38612834 30.33533477 28 27 C28.99 26.67 29.98 26.34 31 26 C32.21869929 23.49552484 32.21869929 23.49552484 33 21 C31.92173635 19.72486237 30.83714481 18.45507431 29.75 17.1875 C29.14671875 16.47980469 28.5434375 15.77210937 27.921875 15.04296875 C25.80299093 12.67351792 25.80299093 12.67351792 22 10 Z M49 11 C53 12 53 12 53 12 Z M76.08984375 12.64453125 C75.02443359 13.71767578 75.02443359 13.71767578 73.9375 14.8125 C73.22464844 15.52019531 72.51179688 16.22789063 71.77734375 16.95703125 C69.79678772 18.96947506 69.79678772 18.96947506 69 22 C70.93502087 27.23593883 73.67550286 29.73260216 78 33 C81.45201639 31.52278578 83.64961936 29.56205999 86.25 26.875 C87.30960938 25.78832031 87.30960938 25.78832031 88.390625 24.6796875 C88.92171875 24.12539063 89.4528125 23.57109375 90 23 C88.53033642 19.60140297 86.61962486 17.35036291 84 14.75 C83.29875 14.04359375 82.5975 13.3371875 81.875 12.609375 C79.29301512 10.39317131 78.66624305 10.42640424 76.08984375 12.64453125 Z M39 22 C39.70125 22.70125 40.4025 23.4025 41.125 24.125 C44.08333333 27.08333333 47.04166667 30.04166667 50 33 C53.15649355 31.6094742 55.23989506 29.97966857 57.625 27.5 C58.51058594 26.58734375 58.51058594 26.58734375 59.4140625 25.65625 C59.93742187 25.1096875 60.46078125 24.563125 61 24 C61.66 23.34 62.32 22.68 63 22 C54.75042944 16.2611683 47.24957056 16.2611683 39 22 Z M5.49609375 26.40625 C4.4740319 27.434992 3.45462036 28.46637207 2.4375 29.5 C1.91736328 30.02464844 1.39722656 30.54929687 0.86132812 31.08984375 C-0.42801691 32.39101763 -1.7142937 33.69523051 -3 35 C-1.46356148 38.68069887 0.78150945 40.98775204 3.625 43.75 C4.44226563 44.54921875 5.25953125 45.3484375 6.1015625 46.171875 C6.72804688 46.77515625 7.35453125 47.3784375 8 48 C12.18423892 44.49102731 16.19588166 40.91939465 20 37 C18.46563424 33.34435261 16.25017578 31.01301377 13.4375 28.25 C12.63183594 27.45078125 11.82617188 26.6515625 10.99609375 25.828125 C8.2948823 23.30417506 8.2948823 23.30417506 5.49609375 26.40625 Z M37 25 C34.18611068 29.76455362 34.45039342 34.61544853 35 40 C36.29262369 43.08996833 36.29262369 43.08996833 38 45 C41.98381075 42.83735988 44.88983545 40.28788824 48 37 C46.52651292 33.57472113 44.59092154 31.35044942 41.9375 28.75 C41.22464844 28.04359375 40.51179688 27.3371875 39.77734375 26.609375 C38.27607496 24.88813135 38.27607496 24.88813135 37 25 Z M61.71484375 27.1875 C60.79832031 28.115625 59.88179688 29.04375 58.9375 30 C57.55884766 31.3921875 57.55884766 31.3921875 56.15234375 32.8125 C55.44207031 33.534375 54.73179688 34.25625 54 35 C55.38188453 38.21043882 56.92421903 40.04936365 59.625 42.25 C60.25664063 42.77078125 60.88828125 43.2915625 61.5390625 43.828125 C62.02117187 44.21484375 62.50328125 44.6015625 63 45 C65.54581423 42.56487334 66.92030102 41.16768273 67.16796875 37.5390625 C67.17763672 36.09660156 67.17763672 36.09660156 67.1875 34.625 C67.20167969 33.66851562 67.21585938 32.71203125 67.23046875 31.7265625 C66.99745572 28.96989983 66.40920164 27.35052605 65 25 C63.59316238 24.88474951 63.59316238 24.88474951 61.71484375 27.1875 Z M89.6171875 27.1875 C88.25980469 28.5796875 88.25980469 28.5796875 86.875 30 C85.96492188 30.928125 85.05484375 31.85625 84.1171875 32.8125 C83.41851562 33.534375 82.71984375 34.25625 82 35 C83.47721422 38.45201639 85.43794001 40.64961936 88.125 43.25 C89.21167969 44.30960938 89.21167969 44.30960938 90.3203125 45.390625 C90.87460938 45.92171875 91.42890625 46.4528125 92 47 C95.45201639 45.52278578 97.64961936 43.56205999 100.25 40.875 C101.30960938 39.78832031 101.30960938 39.78832031 102.390625 38.6796875 C102.92171875 38.12539063 103.4528125 37.57109375 104 37 C102.53033642 33.60140297 100.61962486 31.35036291 98 28.75 C97.29875 28.04359375 96.5975 27.3371875 95.875 26.609375 C92.95450184 24.10261408 92.44570548 24.59082775 89.6171875 27.1875 Z M28 32 C28 34.31 28 36.62 28 39 C28.33 39 28.66 39 29 39 C29 36.69 29 34.38 29 32 C28.67 32 28.34 32 28 32 Z M73 32 C73 34.31 73 36.62 73 39 C73.33 39 73.66 39 74 39 C74 36.69 74 34.38 74 32 C73.67 32 73.34 32 73 32 Z M26 35 C27 37 27 37 27 37 Z M75 35 C76 37 76 37 76 37 Z M19.3984375 41.40625 C18.38552458 42.43249072 17.37791873 43.46399005 16.375 44.5 C15.859375 45.02464844 15.34375 45.54929687 14.8125 46.08984375 C13.53715068 47.38881065 12.26798739 48.69384577 11 50 C14.67832017 54.52615993 18.41086363 58.39424999 23 62 C26.63 58.37 30.26 54.74 34 51 C30.69948843 46.04923265 28.25362295 42.8837427 24 39 C21.65408391 38.77366257 21.65408391 38.77366257 19.3984375 41.40625 Z M29 39 C30 41 30 41 30 41 Z M50 39 C49.27683594 39.72316406 49.27683594 39.72316406 48.5390625 40.4609375 C46.02604167 42.97395833 43.51302083 45.48697917 41 48 C46.83009531 50.56358801 50.94475799 51.34765533 57.15234375 49.73828125 C59.20326391 49.05957233 59.20326391 49.05957233 61 47 C59.73427767 45.84852339 58.46222094 44.70400686 57.1875 43.5625 C56.47980469 42.92441406 55.77210937 42.28632812 55.04296875 41.62890625 C53.00103848 39.80913988 53.00103848 39.80913988 50 39 Z M72 39 C73 41 73 41 73 41 Z M76.125 40.609375 C75.42375 41.31578125 74.7225 42.0221875 74 42.75 C73.29875 43.44609375 72.5975 44.1421875 71.875 44.859375 C69.72099451 47.13647487 69.72099451 47.13647487 68 51 C71.3 54.3 74.6 57.6 78 61 C81.66771845 59.16614077 83.46834996 57.74937171 86.25 54.875 C87.30960938 53.78832031 87.30960938 53.78832031 88.390625 52.6796875 C88.92171875 52.12539063 89.4528125 51.57109375 90 51 C88.53033642 47.60140297 86.61962486 45.35036291 84 42.75 C83.29875 42.04359375 82.5975 41.3371875 81.875 40.609375 C79.31843177 38.41498727 78.68156823 38.41498727 76.125 40.609375 Z M5.3984375 55.40625 C4.38552458 56.43249072 3.37791873 57.46399005 2.375 58.5 C1.859375 59.02464844 1.34375 59.54929687 0.8125 60.08984375 C-0.46284932 61.38881065 -1.73201261 62.69384577 -3 64 C0.67832017 68.52615993 4.41086363 72.39424999 9 76 C9.99 75.34 10.98 74.68 12 74 C12.73606499 70.43230448 12.73606499 70.43230448 13 67 C16.465 66.505 16.465 66.505 20 66 C19.46960703 61.942959 17.42356448 60.05155434 14.5625 57.25 C13.75941406 56.45078125 12.95632812 55.6515625 12.12890625 54.828125 C8.90182946 52.05698383 8.54280607 52.49794514 5.3984375 55.40625 Z M33.6171875 55.15234375 C32.25980469 56.53099609 32.25980469 56.53099609 30.875 57.9375 C29.96492188 58.85402344 29.05484375 59.77054688 28.1171875 60.71484375 C25.88672783 62.60306002 25.88672783 62.60306002 26 64 C32.6 64 39.2 64 46 64 C44.98379263 59.93517053 44.41840592 59.02871927 41.5625 56.25 C40.94503906 55.63640625 40.32757813 55.0228125 39.69140625 54.390625 C36.88248996 52.08121576 36.29129242 52.73688177 33.6171875 55.15234375 Z M59.875 56.8125 C58.78832031 57.87404297 58.78832031 57.87404297 57.6796875 58.95703125 C55.68245709 60.9454175 55.68245709 60.9454175 56 64 C62.6 64 69.2 64 76 64 C71.23209107 58.26083236 71.23209107 58.26083236 66 53 C62.97116823 53 61.97895199 54.71985958 59.875 56.8125 Z M86.875 57.8125 C85.96492188 58.70582031 85.05484375 59.59914063 84.1171875 60.51953125 C81.67539416 62.83677611 81.67539416 62.83677611 82 66 C84.31 66.33 86.62 66.66 89 67 C89.0825 68.11375 89.165 69.2275 89.25 70.375 C89.62125 72.169375 89.62125 72.169375 90 74 C91.32 74.66 92.64 75.32 94 76 C97.63 72.37 101.26 68.74 105 65 C99.75433681 58.75954192 99.75433681 58.75954192 94 53 C90.66088005 53 89.16080531 55.53646309 86.875 57.8125 Z M46 56 C46.99 57.485 46.99 57.485 48 59 C48 58.01 48 57.02 48 56 C47.34 56 46.68 56 46 56 Z M54 56 C54.33 56.99 54.66 57.98 55 59 C55.33 58.01 55.66 57.02 56 56 C55.34 56 54.68 56 54 56 Z M54 62 C54 63.32 54 64.64 54 66 C61.26 66 68.52 66 76 66 C76 65.67 76 65.34 76 65 C69.07 65 62.14 65 55 65 C54.67 64.01 54.34 63.02 54 62 Z M47 63 C47 63.66 47 64.32 47 65 C40.07 65 33.14 65 26 65 C26 65.33 26 65.66 26 66 C33.26 66 40.52 66 48 66 C47.67 65.01 47.34 64.02 47 63 Z M17 71 C17 75.62 17 80.24 17 85 C22.25247816 88.46059511 22.25247816 88.46059511 25.140625 87.4140625 C27.1856968 85.8587768 28.96741954 84.22614125 30.75 82.375 C31.67039062 81.42753906 31.67039062 81.42753906 32.609375 80.4609375 C33.06828125 79.97882813 33.5271875 79.49671875 34 79 C31.77047848 74.38817609 31.77047848 74.38817609 28 71 C24.26667895 70.65521999 20.76356105 70.82078281 17 71 Z M32 71 C32 71.33 32 71.66 32 72 C35.3 72 38.6 72 42 72 C42 71.67 42 71.34 42 71 C38.7 71 35.4 71 32 71 Z M45 71 C45.99 71.495 45.99 71.495 47 72 C46.67 76.29 46.34 80.58 46 85 C46.66 85 47.32 85 48 85 C48 80.38 48 75.76 48 71 C47.01 71 46.02 71 45 71 Z M54 71 C54 75.62 54 80.24 54 85 C54.66 84.67 55.32 84.34 56 84 C56 79.71 56 75.42 56 71 C55.34 71 54.68 71 54 71 Z M60 71 C60 71.33 60 71.66 60 72 C63.3 72 66.6 72 70 72 C70 71.67 70 71.34 70 71 C66.7 71 63.4 71 60 71 Z M34 73 C34.99 73.99 35.98 74.98 37 76 C37.66 75.01 38.32 74.02 39 73 C37.35 73 35.7 73 34 73 Z M44 73 C42.2856382 74.95927063 40.61594832 76.95880212 39 79 C40.62339805 80.70884005 42.29319053 82.37446717 44 84 C44.66 84 45.32 84 46 84 C46 80.37 46 76.74 46 73 C45.34 73 44.68 73 44 73 Z M56 73 C56 76.63 56 80.26 56 84 C57.98 82.35 59.96 80.7 62 79 C60.48601545 75.21503862 59.9855604 74.9927802 56 73 Z M63 73 C63.33 73.66 63.66 74.32 64 75 C64.99 74.67 65.98 74.34 67 74 C65.68 73.67 64.36 73.34 63 73 Z M74 71 C74 71.33 74 71.66 74 72 C76.97 72 79.94 72 83 72 C82.67 72.33 82.34 72.66 82 73 C80.39493841 72.9678403 78.79053326 72.89934075 77.1875 72.8125 C72.94230362 72.71442887 72.94230362 72.71442887 69.375 75 C68.92125 75.66 68.4675 76.32 68 77 C69.40844718 80.21524305 71.10344786 82.32183868 73.625 84.75 C74.25664063 85.36359375 74.88828125 85.9771875 75.5390625 86.609375 C76.02117187 87.06828125 76.50328125 87.5271875 77 88 C79.9719385 86.87548273 82.33440687 85.77706209 85 84 C85.36530232 80.87442041 85.36530232 80.87442041 85.1875 77.375 C85.16042969 76.18648438 85.13335937 74.99796875 85.10546875 73.7734375 C85.05326172 72.40058594 85.05326172 72.40058594 85 71 C81.37 71 77.74 71 74 71 Z M11 77 C12 80 12 80 12 80 Z M90 77 C91 79 91 79 91 79 Z M8 81 C4.37 84.63 0.74 88.26 -3 92 C-2.01 93.32 -1.02 94.64 0 96 C0.495 95.113125 0.99 94.22625 1.5 93.3125 C4.13375234 89.29507343 7.86261067 87.26953881 12 85 C11.04134491 82.66924071 11.04134491 82.66924071 8 81 Z M33.8359375 82.96875 C33.02382813 83.8040625 32.21171875 84.639375 31.375 85.5 C30.14910156 86.75296875 30.14910156 86.75296875 28.8984375 88.03125 C28.27195313 88.6809375 27.64546875 89.330625 27 90 C27.37229427 91.44377535 27.77396868 92.87999097 28.1875 94.3125 C28.40792969 95.11300781 28.62835938 95.91351563 28.85546875 96.73828125 C30.33788674 99.6677011 32.11835936 100.54267274 35 102 C35.24234375 101.26394531 35.4846875 100.52789062 35.734375 99.76953125 C37.53852263 94.51668604 39.06399948 90.07657197 43 86 C41.37660195 84.29115995 39.70680947 82.62553283 38 81 C35.7589659 80.77568714 35.7589659 80.77568714 33.8359375 82.96875 Z M60.875 83.5 C59.92625 84.325 58.9775 85.15 58 86 C58.39832031 86.40089844 58.79664062 86.80179687 59.20703125 87.21484375 C63.45461733 91.77247261 65.44706823 95.99260603 67 102 C71.0360127 99.16388297 73.33774494 96.69342606 75 92 C73.8182747 88.77124234 71.91913278 86.64863165 69.5 84.25 C68.8915625 83.63640625 68.283125 83.0228125 67.65625 82.390625 C64.71523878 79.92128539 63.44218544 81.26766484 60.875 83.5 Z M92 81 C91.34 82.32 90.68 83.64 90 85 C90.53109375 85.29132813 91.0621875 85.58265625 91.609375 85.8828125 C96.46630559 88.70125032 99.2591869 91.08937654 102 96 C102.99 94.68 103.98 93.36 105 92 C103.21427748 90.16052663 101.42197551 88.32842259 99.625 86.5 C99.11710937 85.97535156 98.60921875 85.45070313 98.0859375 84.91015625 C96.76167396 83.56846819 95.38394135 82.28004185 94 81 C93.34 81 92.68 81 92 81 Z M7 93 C5.768606 96.69418201 6.35567236 99.2056261 7 103 C10.10044228 103.32088554 10.10044228 103.32088554 12.2265625 101.13671875 C13.01804687 100.32847656 13.80953125 99.52023438 14.625 98.6875 C15.42164063 97.88699219 16.21828125 97.08648437 17.0390625 96.26171875 C19.18748942 94.07508845 19.18748942 94.07508845 20 91 C14.6080778 89.81377712 11.65015931 89.89989379 7 93 Z M82 92 C85.72346836 96.42094803 89.29521038 100.57833482 94 104 C95.97127521 102.02872479 95.79296556 98.82674908 96.05078125 96.1640625 C96.20669114 93.8720691 96.20669114 93.8720691 94.5 92 C89.75072582 90.10029033 86.38246578 89.07835615 82 92 Z M54 91 C54 91.99 54 92.98 54 94 C56.4390706 96.20142332 56.4390706 96.20142332 59 98 C59.33 97.01 59.66 96.02 60 95 C58.71034824 93.62437146 57.37310707 92.29233607 56 91 C55.34 91 54.68 91 54 91 Z M45 92 C44.01 92.495 44.01 92.495 43 93 C43.33 93.99 43.66 94.98 44 96 C44.99 95.01 45.98 94.02 47 93 C46.34 92.67 45.68 92.34 45 92 Z M42 95 C43 97 43 97 43 97 Z M45.8125 98.75 C44.70841797 99.79414062 44.70841797 99.79414062 43.58203125 100.859375 C41.75213093 102.84749492 41.75213093 102.84749492 42.1640625 105.15625 C43.3695875 107.81516496 44.38491254 108.65892951 47 110 C51.89307732 110.54367526 53.88157597 110.74561602 58 108 C58.66 107.34 59.32 106.68 60 106 C59.42380903 102.43235179 58.13030516 100.74840503 55.5625 98.25 C54.94503906 97.63640625 54.32757813 97.0228125 53.69140625 96.390625 C50.18760804 93.50990407 48.59120871 96.05489845 45.8125 98.75 Z M78 95 C77.10611925 99.06309431 76.78767198 101.42671434 78.25 105.375 C79.79352592 108.27225343 79.79352592 108.27225343 83 109 C85.3406065 108.72230092 87.67624308 108.39460023 90 108 C90.32088554 104.89955772 90.32088554 104.89955772 88.13671875 102.7734375 C86.92435547 101.58621094 86.92435547 101.58621094 85.6875 100.375 C84.88699219 99.57835938 84.08648437 98.78171875 83.26171875 97.9609375 C81.07508845 95.81251058 81.07508845 95.81251058 78 95 Z M5 96 C5 97.65 5 99.3 5 101 C5.33 101 5.66 101 6 101 C6 99.35 6 97.7 6 96 C5.67 96 5.34 96 5 96 Z M23 95 C18.57905197 98.72346836 14.42166518 102.29521038 11 107 C12.97127521 108.97127521 16.17325092 108.79296556 18.8359375 109.05078125 C21.1279309 109.20669114 21.1279309 109.20669114 23 107.5 C24.28769539 104.28076152 24.81114831 101.46228101 25 98 C24.34 97.01 23.68 96.02 23 95 Z M96 96 C96 97.65 96 99.3 96 101 C96.33 101 96.66 101 97 101 C97 99.35 97 97.7 97 96 C96.67 96 96.34 96 96 96 Z M41 97 C42 100 42 100 42 100 Z M60 97 C61 100 61 100 61 100 Z M30 102 C29.76925781 102.53109375 29.53851563 103.0621875 29.30078125 103.609375 C27.16775626 108.22952399 25.29630944 111.06041986 21 114 C20.34 114.66 19.68 115.32 19 116 C20.98 116.99 20.98 116.99 23 118 C26.63 114.37 30.26 110.74 34 107 C33.67 106.34 33.34 105.68 33 105 C32.34 105 31.68 105 31 105 C30.67 104.01 30.34 103.02 30 102 Z M35 102 C36 104 36 104 36 104 Z M71 102 C69.68 103.65 68.36 105.3 67 107 C70.63 110.63 74.26 114.26 78 118 C79.65 117.34 81.3 116.68 83 116 C82.2575 115.443125 81.515 114.88625 80.75 114.3125 C76.48985398 110.73010448 73.80999224 107.27914404 72 102 C71.67 102 71.34 102 71 102 Z M14 109 C14 109.33 14 109.66 14 110 C15.65 110 17.3 110 19 110 C19 109.67 19 109.34 19 109 C17.35 109 15.7 109 14 109 Z M83 109 C83 109.33 83 109.66 83 110 C84.65 110 86.3 110 88 110 C88 109.67 88 109.34 88 109 C86.35 109 84.7 109 83 109 Z M49 116 C53 117 53 117 53 117 Z " fill="#1F1F1F" transform="translate(13,0)"/>
<path d="M0 0 C0.99 0.33 1.98 0.66 3 1 C0.525 4.465 0.525 4.465 -2 8 C1.3 11.3 4.6 14.6 8 18 C12.15358254 14.56530675 15.78875342 11.36729534 19 7 C17.7625 5.824375 17.7625 5.824375 16.5 4.625 C14 2 14 2 14 0 C17.82097239 0.53069061 20.06171403 1.49701566 23 4 C23.7425 3.319375 24.485 2.63875 25.25 1.9375 C26.1575 1.298125 27.065 0.65875 28 0 C29.32 0.33 30.64 0.66 32 1 C30.02 3.31 28.04 5.62 26 8 C27.26451932 9.31858428 28.53685475 10.62967631 29.8125 11.9375 C30.52019531 12.66839844 31.22789063 13.39929688 31.95703125 14.15234375 C33.95536163 16.20834646 33.95536163 16.20834646 37 17 C40.85903564 14.78310719 43.97731777 12.25519625 47 9 C45.99554337 6.75928906 45.12245015 5.12245015 43.375 3.375 C42.694375 2.694375 42.694375 2.694375 42 2 C42 1.34 42 0.68 42 0 C45.68754757 0.49831724 47.60490662 1.10067643 50 4 C52.46800047 2.84826645 54.04783565 1.95216435 56 0 C58.125 0.375 58.125 0.375 60 1 C58.66536458 2.46484375 57.33072917 3.9296875 55.99609375 5.39453125 C55.66738281 5.92433594 55.33867188 6.45414062 55 7 C56.21065165 10.63195496 57.53691126 11.42896192 60.5625 13.6875 C61.38878906 14.31011719 62.21507813 14.93273438 63.06640625 15.57421875 C63.70449219 16.04472656 64.34257813 16.51523437 65 17 C68.98381075 14.83735988 71.88983545 12.28788824 75 9 C73.50163895 5.88801935 71.80066242 2.9465385 70 0 C73.68754757 0.49831724 75.60490662 1.10067643 78 4 C80.46800047 2.84826645 82.04783565 1.95216435 84 0 C86.125 0.375 86.125 0.375 88 1 C86.35 2.98 84.7 4.96 83 7 C84.40844718 10.21524305 86.10344786 12.32183868 88.625 14.75 C89.25664063 15.36359375 89.88828125 15.9771875 90.5390625 16.609375 C91.02117187 17.06828125 91.50328125 17.5271875 92 18 C95.45201639 16.52278578 97.64961936 14.56205999 100.25 11.875 C101.30960938 10.78832031 101.30960938 10.78832031 102.390625 9.6796875 C102.92171875 9.12539062 103.4528125 8.57109375 104 8 C103.175 7.05125 102.35 6.1025 101.5 5.125 C99 2.25 99 2.25 99 0 C103.76470588 1.85294118 103.76470588 1.85294118 106 3.25 C108.11110906 4.27682209 108.11110906 4.27682209 110.75 3.125 C111.4925 2.75375 112.235 2.3825 113 2 C112.34 4.31 111.68 6.62 111 9 C111.680625 9.5775 112.36125 10.155 113.0625 10.75 C113.701875 11.4925 114.34125 12.235 115 13 C114.67 14.32 114.34 15.64 114 17 C111.69 15.02 109.38 13.04 107 11 C103.7 14.3 100.4 17.6 97 21 C98.74676919 24.49353838 99.91405215 26.13945763 102.625 28.75 C103.25664063 29.36359375 103.88828125 29.9771875 104.5390625 30.609375 C105.02117187 31.06828125 105.50328125 31.5271875 106 32 C109.10021321 30.47639094 112.05162229 28.80178638 115 27 C114.50168276 30.68754757 113.89932357 32.60490662 111 35 C112.15173355 37.46800047 113.04783565 39.04783565 115 41 C114.625 43.125 114.625 43.125 114 45 C112.02 43.35 110.04 41.7 108 40 C104.78475695 41.40844718 102.67816132 43.10344786 100.25 45.625 C99.63640625 46.25664063 99.0228125 46.88828125 98.390625 47.5390625 C97.93171875 48.02117188 97.4728125 48.50328125 97 49 C98.47721422 52.45201639 100.43794001 54.64961936 103.125 57.25 C104.21167969 58.30960938 104.21167969 58.30960938 105.3203125 59.390625 C105.87460938 59.92171875 106.42890625 60.4528125 107 61 C109.64 59.02 112.28 57.04 115 55 C114.50168276 58.68754757 113.89932357 60.60490662 111 63 C112.15173355 65.46800047 113.04783565 67.04783565 115 69 C115 70.32 115 71.64 115 73 C112.11562221 71.70700306 110.12780579 70.34058637 108 68 C104.78475695 69.40844718 102.67816132 71.10344786 100.25 73.625 C99.63640625 74.25664063 99.0228125 74.88828125 98.390625 75.5390625 C97.93171875 76.02117187 97.4728125 76.50328125 97 77 C98.47721422 80.45201639 100.43794001 82.64961936 103.125 85.25 C104.21167969 86.30960938 104.21167969 86.30960938 105.3203125 87.390625 C105.87460938 87.92171875 106.42890625 88.4528125 107 89 C107.94875 88.175 108.8975 87.35 109.875 86.5 C112.75 84 112.75 84 115 84 C114.35455571 87.48539917 112.89865603 90.02819057 111 93 C111.99 93.86625 111.99 93.86625 113 94.75 C115 97 115 97 115 101 C112.04590299 99.62845496 109.55991624 98.01136276 107 96 C106.34 98.31 105.68 100.62 105 103 C104.67 103 104.34 103 104 103 C101.76730769 96.55 101.76730769 96.55 102.9453125 93.765625 C103.29335937 93.18296875 103.64140625 92.6003125 104 92 C102.37807179 90.35113941 100.75236228 88.7059976 99.125 87.0625 C98.22007813 86.14597656 97.31515625 85.22945313 96.3828125 84.28515625 C94.22317745 81.98812373 94.22317745 81.98812373 92 81 C91.505 82.485 91.505 82.485 91 84 C90.01155049 80.05352382 90.03808095 76.72607036 90.4375 72.6875 C90.53933594 71.61886719 90.64117187 70.55023438 90.74609375 69.44921875 C90.87177734 68.23685547 90.87177734 68.23685547 91 67 C91.33 67 91.66 67 92 67 C92.495 70.96 92.495 70.96 93 75 C94.08839774 74.11032656 95.17044608 73.21288426 96.25 72.3125 C96.85328125 71.81363281 97.4565625 71.31476563 98.078125 70.80078125 C100.50453961 68.61308067 100.50453961 68.61308067 104 64 C100.7 60.7 97.4 57.4 94 54 C90.50646162 55.74676919 88.86054237 56.91405215 86.25 59.625 C85.63640625 60.25664063 85.0228125 60.88828125 84.390625 61.5390625 C83.93171875 62.02117188 83.4728125 62.50328125 83 63 C84.98 63.33 86.96 63.66 89 64 C89 64.33 89 64.66 89 65 C77.60231949 66.37448837 66.42270824 65.71442552 55 65 C54.37109375 62.1640625 54.37109375 62.1640625 54 59 C56.36669598 55.98784147 58.78914678 54.13617604 62 52.0625 C66.76195411 48.78865655 70.56453877 44.25546898 73 39 C73.83383302 35.58591471 73.83383302 35.58591471 73 32 C70.92342813 29.35004634 68.57449789 27.1607393 66 25 C62.19364503 28.20760251 58.45436433 31.40746109 55 35 C56.5830577 39.2742558 59.50568404 41.26531794 63 44 C62.67 44.99 62.34 45.98 62 47 C58.64749299 46.42424336 57.06181371 45.40693737 54.75 42.9375 C53.96882813 42.11572266 53.96882813 42.11572266 53.171875 41.27734375 C52.78515625 40.85582031 52.3984375 40.43429688 52 40 C49.11919043 41.17366316 47.65742801 42.35092741 45.4375 44.625 C43 47 43 47 40 47 C39.67 46.01 39.34 45.02 39 44 C41.64 41.69 44.28 39.38 47 37 C45.16614077 33.33228155 43.74937171 31.53165004 40.875 28.75 C40.15054688 28.04359375 39.42609375 27.3371875 38.6796875 26.609375 C37.84824219 25.81273437 37.84824219 25.81273437 37 25 C35.85373678 25.97866338 34.70800212 26.95794587 33.5625 27.9375 C32.60537109 28.75541016 32.60537109 28.75541016 31.62890625 29.58984375 C29.12221029 31.62463183 29.12221029 31.62463183 28.5625 35 C28.64668359 40.84474672 32.56376238 45.53252856 36.5234375 49.54296875 C38.97407592 51.64999914 41.52400557 53.30649382 44.3125 54.9375 C47 57 47 57 47.9375 60.125 C48 63 48 63 47 65 C42.64624473 65.19800001 38.29199369 65.38152823 33.9375 65.5625 C32.09381836 65.64661133 32.09381836 65.64661133 30.21289062 65.73242188 C24.3327081 65.9701651 18.78396925 66.16023157 13 65 C13 64.67 13 64.34 13 64 C15.97 63.505 15.97 63.505 19 63 C14.545 58.545 14.545 58.545 10 54 C6.33228155 55.83385923 4.53165004 57.25062829 1.75 60.125 C1.04359375 60.84945312 0.3371875 61.57390625 -0.390625 62.3203125 C-1.18726563 63.15175781 -1.18726563 63.15175781 -2 64 C1.3810038 68.13621084 4.66590534 71.81316569 9 75 C9.33 72.36 9.66 69.72 10 67 C10.33 67 10.66 67 11 67 C11.19561869 69.0825867 11.38119313 71.16611856 11.5625 73.25 C11.66691406 74.41015625 11.77132813 75.5703125 11.87890625 76.765625 C11.98198087 79.51871477 11.86213473 81.419982 11 84 C9.515 83.01 9.515 83.01 8 82 C3.05 86.95 3.05 86.95 -2 92 C-1.34 93.65 -0.68 95.3 0 97 C-0.875 100.3125 -0.875 100.3125 -2 103 C-2.33 103 -2.66 103 -3 103 C-3.66 100.69 -4.32 98.38 -5 96 C-7.64 97.65 -10.28 99.3 -13 101 C-12.46930939 97.17902761 -11.50298434 94.93828597 -9 92 C-9.99 90.8553125 -9.99 90.8553125 -11 89.6875 C-13 87 -13 87 -13 84 C-9.93224489 85.42431487 -7.78959901 86.90780074 -5 89 C-0.05 84.05 -0.05 84.05 5 79 C1.56530675 74.84641746 -1.63270466 71.21124658 -6 68 C-7.98 69.65 -9.96 71.3 -12 73 C-12.75 71.3125 -12.75 71.3125 -13 69 C-11.0625 66.25 -11.0625 66.25 -9 64 C-9.66 63.236875 -10.32 62.47375 -11 61.6875 C-13 59 -13 59 -13 56 C-9.93224489 57.42431487 -7.78959901 58.90780074 -5 61 C-1.7 57.7 1.6 54.4 5 51 C3.16614077 47.33228155 1.74937171 45.53165004 -1.125 42.75 C-2.21167969 41.69039062 -2.21167969 41.69039062 -3.3203125 40.609375 C-3.87460938 40.07828125 -4.42890625 39.5471875 -5 39 C-7.64 40.98 -10.28 42.96 -13 45 C-12.43454163 41.04179141 -11.19097652 38.3340947 -9 35 C-9.66 34.401875 -10.32 33.80375 -11 33.1875 C-13 31 -13 31 -13 28 C-10.33333333 29.33333333 -7.66666667 30.66666667 -5 32 C-1.7 28.7 1.6 25.4 5 22 C1.56530675 17.84641746 -1.63270466 14.21124658 -6 11 C-6.78375 11.825 -7.5675 12.65 -8.375 13.5 C-11 16 -11 16 -13 16 C-12.43628586 12.73045798 -11.50037734 11.17424117 -9 9 C-9.66 6.69 -10.32 4.38 -11 2 C-10.13375 2.5259375 -10.13375 2.5259375 -9.25 3.0625 C-7.08596543 4.16953689 -7.08596543 4.16953689 -4.9375 3.8125 C-2.74244718 2.89199398 -1.55133719 1.78403777 0 0 Z M22 10 C18.37 13.63 14.74 17.26 11 21 C14.52587708 25.18185421 18.07553326 29.19095875 22 33 C25.51855159 31.59257936 26.38612834 30.33533477 28 27 C28.99 26.67 29.98 26.34 31 26 C32.21869929 23.49552484 32.21869929 23.49552484 33 21 C31.92173635 19.72486237 30.83714481 18.45507431 29.75 17.1875 C29.14671875 16.47980469 28.5434375 15.77210937 27.921875 15.04296875 C25.80299093 12.67351792 25.80299093 12.67351792 22 10 Z M49 11 C53 12 53 12 53 12 Z M76.08984375 12.64453125 C75.02443359 13.71767578 75.02443359 13.71767578 73.9375 14.8125 C73.22464844 15.52019531 72.51179688 16.22789063 71.77734375 16.95703125 C69.79678772 18.96947506 69.79678772 18.96947506 69 22 C70.93502087 27.23593883 73.67550286 29.73260216 78 33 C81.45201639 31.52278578 83.64961936 29.56205999 86.25 26.875 C87.30960938 25.78832031 87.30960938 25.78832031 88.390625 24.6796875 C88.92171875 24.12539063 89.4528125 23.57109375 90 23 C88.53033642 19.60140297 86.61962486 17.35036291 84 14.75 C83.29875 14.04359375 82.5975 13.3371875 81.875 12.609375 C79.29301512 10.39317131 78.66624305 10.42640424 76.08984375 12.64453125 Z M39 22 C39.70125 22.70125 40.4025 23.4025 41.125 24.125 C44.08333333 27.08333333 47.04166667 30.04166667 50 33 C53.15649355 31.6094742 55.23989506 29.97966857 57.625 27.5 C58.51058594 26.58734375 58.51058594 26.58734375 59.4140625 25.65625 C59.93742187 25.1096875 60.46078125 24.563125 61 24 C61.66 23.34 62.32 22.68 63 22 C54.75042944 16.2611683 47.24957056 16.2611683 39 22 Z M5.49609375 26.40625 C4.4740319 27.434992 3.45462036 28.46637207 2.4375 29.5 C1.91736328 30.02464844 1.39722656 30.54929687 0.86132812 31.08984375 C-0.42801691 32.39101763 -1.7142937 33.69523051 -3 35 C-1.46356148 38.68069887 0.78150945 40.98775204 3.625 43.75 C4.44226563 44.54921875 5.25953125 45.3484375 6.1015625 46.171875 C6.72804688 46.77515625 7.35453125 47.3784375 8 48 C12.18423892 44.49102731 16.19588166 40.91939465 20 37 C18.46563424 33.34435261 16.25017578 31.01301377 13.4375 28.25 C12.63183594 27.45078125 11.82617188 26.6515625 10.99609375 25.828125 C8.2948823 23.30417506 8.2948823 23.30417506 5.49609375 26.40625 Z M89.6171875 27.1875 C88.25980469 28.5796875 88.25980469 28.5796875 86.875 30 C85.96492188 30.928125 85.05484375 31.85625 84.1171875 32.8125 C83.41851562 33.534375 82.71984375 34.25625 82 35 C83.47721422 38.45201639 85.43794001 40.64961936 88.125 43.25 C89.21167969 44.30960938 89.21167969 44.30960938 90.3203125 45.390625 C90.87460938 45.92171875 91.42890625 46.4528125 92 47 C95.45201639 45.52278578 97.64961936 43.56205999 100.25 40.875 C101.30960938 39.78832031 101.30960938 39.78832031 102.390625 38.6796875 C102.92171875 38.12539063 103.4528125 37.57109375 104 37 C102.53033642 33.60140297 100.61962486 31.35036291 98 28.75 C97.29875 28.04359375 96.5975 27.3371875 95.875 26.609375 C92.95450184 24.10261408 92.44570548 24.59082775 89.6171875 27.1875 Z M26 35 C27 37 27 37 27 37 Z M75 35 C76 37 76 37 76 37 Z M19.3984375 41.40625 C18.38552458 42.43249072 17.37791873 43.46399005 16.375 44.5 C15.859375 45.02464844 15.34375 45.54929687 14.8125 46.08984375 C13.53715068 47.38881065 12.26798739 48.69384577 11 50 C14.67832017 54.52615993 18.41086363 58.39424999 23 62 C26.63 58.37 30.26 54.74 34 51 C30.69948843 46.04923265 28.25362295 42.8837427 24 39 C21.65408391 38.77366257 21.65408391 38.77366257 19.3984375 41.40625 Z M76.125 40.609375 C75.42375 41.31578125 74.7225 42.0221875 74 42.75 C73.29875 43.44609375 72.5975 44.1421875 71.875 44.859375 C69.72099451 47.13647487 69.72099451 47.13647487 68 51 C71.3 54.3 74.6 57.6 78 61 C81.66771845 59.16614077 83.46834996 57.74937171 86.25 54.875 C87.30960938 53.78832031 87.30960938 53.78832031 88.390625 52.6796875 C88.92171875 52.12539063 89.4528125 51.57109375 90 51 C88.53033642 47.60140297 86.61962486 45.35036291 84 42.75 C83.29875 42.04359375 82.5975 41.3371875 81.875 40.609375 C79.31843177 38.41498727 78.68156823 38.41498727 76.125 40.609375 Z M33.6171875 55.15234375 C32.25980469 56.53099609 32.25980469 56.53099609 30.875 57.9375 C29.96492188 58.85402344 29.05484375 59.77054688 28.1171875 60.71484375 C25.88672783 62.60306002 25.88672783 62.60306002 26 64 C32.6 64 39.2 64 46 64 C44.98379263 59.93517053 44.41840592 59.02871927 41.5625 56.25 C40.94503906 55.63640625 40.32757813 55.0228125 39.69140625 54.390625 C36.88248996 52.08121576 36.29129242 52.73688177 33.6171875 55.15234375 Z M59.875 56.8125 C58.78832031 57.87404297 58.78832031 57.87404297 57.6796875 58.95703125 C55.68245709 60.9454175 55.68245709 60.9454175 56 64 C62.6 64 69.2 64 76 64 C71.23209107 58.26083236 71.23209107 58.26083236 66 53 C62.97116823 53 61.97895199 54.71985958 59.875 56.8125 Z " fill="#595959" transform="translate(13,0)"/>
<path d="M0 0 C0.33 0.66 0.66 1.32 1 2 C0.67 2.99 0.34 3.98 0 5 C-0.50704484 10.29487804 -0.64847741 14.65500981 1.6875 19.5 C4.99563198 23.0763589 7.54788579 24.60904617 12.25 25.875 C17.01763314 26.0339211 20.74789622 25.16306247 25 23 C28.97425701 18.92638657 30.14013236 16.27890751 30.125 10.6875 C30.12757812 9.74261719 30.13015625 8.79773437 30.1328125 7.82421875 C30.005363 5.11404264 29.60596226 2.64026415 29 0 C30.14626322 0.97866338 31.29199788 1.95794587 32.4375 2.9375 C33.07558594 3.48277344 33.71367188 4.02804688 34.37109375 4.58984375 C36.98725187 6.85467128 36.98725187 6.85467128 37.3125 10.5625 C37.19719783 16.43242848 35.11501451 20.66476706 31.19921875 24.98828125 C27.0345271 28.89419594 23.6105394 30.94802386 18 32 C18 35.3 18 38.6 18 42 C19.05501709 41.99476318 20.11003418 41.98952637 21.19702148 41.98413086 C25.0975663 41.96608099 28.9981074 41.95456805 32.89868164 41.94506836 C34.58944316 41.9400281 36.28020029 41.93319595 37.97094727 41.92456055 C40.39600707 41.91248143 42.82100944 41.90676877 45.24609375 41.90234375 C46.38672523 41.89460182 46.38672523 41.89460182 47.55039978 41.88670349 C49.3673257 41.88650762 51.18413127 41.93802723 53 42 C55.34861088 44.34861088 54.48411976 50.2146277 54.54101562 53.47631836 C54.45632851 58.24349702 54.07726021 61.09342306 50.5 64.5625 C48.53125 66.06640625 48.53125 66.06640625 47 67 C49.47722963 71.80873987 52.98957117 75.43174665 57 79 C57.33 79 57.66 79 58 79 C58.33 76.69 58.66 74.38 59 72 C59.33 72 59.66 72 60 72 C61.04726144 76.75933663 61.70609202 79.82317996 59.125 84.125 C54.82317996 86.70609202 51.75933663 86.04726144 47 85 C47 84.67 47 84.34 47 84 C50.465 83.505 50.465 83.505 54 83 C49.56650957 77.38269773 49.56650957 77.38269773 44 73 C40.09161134 73 38.88405893 74.50567876 36 77 C35.39558983 72.0438366 36.47808153 69.42836992 39.421875 65.61328125 C41.96755812 63.01088737 44.74242082 61.59685254 48 60 C48 56.04 48 52.08 48 48 C33.15 47.505 33.15 47.505 18 47 C18.44658073 52.13213848 18.44658073 52.13213848 18.9284668 57.26098633 C19.3195532 62.48267771 19.3195532 62.48267771 17.80078125 64.94140625 C15.70812037 66.17158217 13.87220203 66.62683757 11.5 67.125 C9.07003367 67.75754776 9.07003367 67.75754776 7 69 C5.7834238 71.3178978 5.22332282 73.37603764 4.73046875 75.94140625 C4 78 4 78 1.92578125 79.27734375 C0.97251953 79.63505859 0.97251953 79.63505859 0 80 C-1.19183198 76.02722675 -1.10173918 73.5633149 0.625 69.875 C2.55432579 66.39556074 4.58249809 64.13593869 8 62 C9.98 61.505 9.98 61.505 12 61 C12 56.38 12 51.76 12 47 C2.1 47 -7.8 47 -18 47 C-14 42 -14 42 -11.15917969 41.43237305 C-9.55671387 41.47164917 -9.55671387 41.47164917 -7.921875 41.51171875 C-6.18164062 41.53588867 -6.18164062 41.53588867 -4.40625 41.56054688 C-2.59640625 41.62338867 -2.59640625 41.62338867 -0.75 41.6875 C0.47203125 41.71005859 1.6940625 41.73261719 2.953125 41.75585938 C5.96998502 41.81478242 8.98437515 41.89700735 12 42 C12 38.7 12 35.4 12 32 C9.9890625 31.4740625 9.9890625 31.4740625 7.9375 30.9375 C1.24195454 28.69159262 -2.51900288 24.62757554 -5.9375 18.5625 C-8.16621637 11.0897451 -8.16621637 11.0897451 -7 7 C-4.9483309 4.30527044 -2.61847041 2.13752686 0 0 Z " fill="#020202" transform="translate(49,24)"/>
<path d="M0 0 C0.99 0.33 1.98 0.66 3 1 C0.525 4.465 0.525 4.465 -2 8 C1.3 11.3 4.6 14.6 8 18 C12.15358254 14.56530675 15.78875342 11.36729534 19 7 C17.7625 5.824375 17.7625 5.824375 16.5 4.625 C14 2 14 2 14 0 C17.82097239 0.53069061 20.06171403 1.49701566 23 4 C23.7425 3.319375 24.485 2.63875 25.25 1.9375 C26.1575 1.298125 27.065 0.65875 28 0 C29.32 0.33 30.64 0.66 32 1 C30.02 3.31 28.04 5.62 26 8 C26.83144531 8.83144531 26.83144531 8.83144531 27.6796875 9.6796875 C30.453125 12.453125 33.2265625 15.2265625 36 18 C35.01 18.99 34.02 19.98 33 21 C32.29875 20.278125 31.5975 19.55625 30.875 18.8125 C28.07229255 16.00176187 25.07737208 13.50483774 22 11 C18.7 14.3 15.4 17.6 12 21 C15.22067635 24.80625387 18.40244797 28.54081536 22 32 C25.16115776 30.63016497 25.9927092 30.0109362 28 27 C28.66 27 29.32 27 30 27 C29.835 27.680625 29.67 28.36125 29.5 29.0625 C28.50749408 34.8934723 28.40069351 38.55703001 31.625 43.625 C35.22055076 48.59631313 38.98863861 51.82354334 44.3125 54.9375 C47 57 47 57 47.9375 60.125 C48 63 48 63 47 65 C42.64624473 65.19800001 38.29199369 65.38152823 33.9375 65.5625 C32.09381836 65.64661133 32.09381836 65.64661133 30.21289062 65.73242188 C24.3327081 65.9701651 18.78396925 66.16023157 13 65 C13 64.67 13 64.34 13 64 C15.97 63.505 15.97 63.505 19 63 C14.545 58.545 14.545 58.545 10 54 C6.33228155 55.83385923 4.53165004 57.25062829 1.75 60.125 C1.04359375 60.84945312 0.3371875 61.57390625 -0.390625 62.3203125 C-1.18726563 63.15175781 -1.18726563 63.15175781 -2 64 C1.3810038 68.13621084 4.66590534 71.81316569 9 75 C9.33 72.36 9.66 69.72 10 67 C10.33 67 10.66 67 11 67 C11.19561869 69.0825867 11.38119313 71.16611856 11.5625 73.25 C11.66691406 74.41015625 11.77132813 75.5703125 11.87890625 76.765625 C11.98198087 79.51871477 11.86213473 81.419982 11 84 C9.515 83.01 9.515 83.01 8 82 C3.05 86.95 3.05 86.95 -2 92 C-1.34 93.65 -0.68 95.3 0 97 C-0.875 100.3125 -0.875 100.3125 -2 103 C-2.33 103 -2.66 103 -3 103 C-3.66 100.69 -4.32 98.38 -5 96 C-7.64 97.65 -10.28 99.3 -13 101 C-12.46930939 97.17902761 -11.50298434 94.93828597 -9 92 C-9.99 90.8553125 -9.99 90.8553125 -11 89.6875 C-13 87 -13 87 -13 84 C-9.93224489 85.42431487 -7.78959901 86.90780074 -5 89 C-0.05 84.05 -0.05 84.05 5 79 C1.56530675 74.84641746 -1.63270466 71.21124658 -6 68 C-7.98 69.65 -9.96 71.3 -12 73 C-12.75 71.3125 -12.75 71.3125 -13 69 C-11.0625 66.25 -11.0625 66.25 -9 64 C-9.66 63.236875 -10.32 62.47375 -11 61.6875 C-13 59 -13 59 -13 56 C-9.93224489 57.42431487 -7.78959901 58.90780074 -5 61 C-1.7 57.7 1.6 54.4 5 51 C3.16614077 47.33228155 1.74937171 45.53165004 -1.125 42.75 C-2.21167969 41.69039062 -2.21167969 41.69039062 -3.3203125 40.609375 C-3.87460938 40.07828125 -4.42890625 39.5471875 -5 39 C-7.64 40.98 -10.28 42.96 -13 45 C-12.43454163 41.04179141 -11.19097652 38.3340947 -9 35 C-9.66 34.401875 -10.32 33.80375 -11 33.1875 C-13 31 -13 31 -13 28 C-10.33333333 29.33333333 -7.66666667 30.66666667 -5 32 C-1.7 28.7 1.6 25.4 5 22 C1.56530675 17.84641746 -1.63270466 14.21124658 -6 11 C-6.78375 11.825 -7.5675 12.65 -8.375 13.5 C-11 16 -11 16 -13 16 C-12.43628586 12.73045798 -11.50037734 11.17424117 -9 9 C-9.66 6.69 -10.32 4.38 -11 2 C-10.13375 2.5259375 -10.13375 2.5259375 -9.25 3.0625 C-7.08596543 4.16953689 -7.08596543 4.16953689 -4.9375 3.8125 C-2.74244718 2.89199398 -1.55133719 1.78403777 0 0 Z M5.49609375 26.40625 C4.4740319 27.434992 3.45462036 28.46637207 2.4375 29.5 C1.91736328 30.02464844 1.39722656 30.54929687 0.86132812 31.08984375 C-0.42801691 32.39101763 -1.7142937 33.69523051 -3 35 C-1.46356148 38.68069887 0.78150945 40.98775204 3.625 43.75 C4.44226563 44.54921875 5.25953125 45.3484375 6.1015625 46.171875 C6.72804688 46.77515625 7.35453125 47.3784375 8 48 C12.18423892 44.49102731 16.19588166 40.91939465 20 37 C18.46563424 33.34435261 16.25017578 31.01301377 13.4375 28.25 C12.63183594 27.45078125 11.82617188 26.6515625 10.99609375 25.828125 C8.2948823 23.30417506 8.2948823 23.30417506 5.49609375 26.40625 Z M26 35 C27 37 27 37 27 37 Z M19.3984375 41.40625 C18.38552458 42.43249072 17.37791873 43.46399005 16.375 44.5 C15.859375 45.02464844 15.34375 45.54929687 14.8125 46.08984375 C13.53715068 47.38881065 12.26798739 48.69384577 11 50 C14.67832017 54.52615993 18.41086363 58.39424999 23 62 C26.63 58.37 30.26 54.74 34 51 C30.69948843 46.04923265 28.25362295 42.8837427 24 39 C21.65408391 38.77366257 21.65408391 38.77366257 19.3984375 41.40625 Z M33.6171875 55.15234375 C32.25980469 56.53099609 32.25980469 56.53099609 30.875 57.9375 C29.96492188 58.85402344 29.05484375 59.77054688 28.1171875 60.71484375 C25.88672783 62.60306002 25.88672783 62.60306002 26 64 C32.6 64 39.2 64 46 64 C44.98379263 59.93517053 44.41840592 59.02871927 41.5625 56.25 C40.94503906 55.63640625 40.32757813 55.0228125 39.69140625 54.390625 C36.88248996 52.08121576 36.29129242 52.73688177 33.6171875 55.15234375 Z " fill="#545454" transform="translate(13,0)"/>
<path d="M0 0 C1.23556641 0.01740234 1.23556641 0.01740234 2.49609375 0.03515625 C3.32238281 0.04417969 4.14867187 0.05320312 5 0.0625 C5.63808594 0.07410156 6.27617188 0.08570312 6.93359375 0.09765625 C6.27359375 0.84015625 5.61359375 1.58265625 4.93359375 2.34765625 C2.20630625 6.42392467 2.4065997 10.6247309 2.3046875 15.390625 C2.68457935 18.30985426 2.68457935 18.30985426 5.34765625 19.98828125 C7.78036783 21.33146997 7.78036783 21.33146997 9.87109375 20.66015625 C12.85650232 18.39848309 15.34424987 15.80469758 17.93359375 13.09765625 C16.71351431 10.40710345 16.71351431 10.40710345 14.93359375 8.09765625 C13.08467429 7.86401744 11.22871344 7.6846199 9.37109375 7.53515625 C8.35917969 7.45136719 7.34726562 7.36757812 6.3046875 7.28125 C5.13099609 7.19037109 5.13099609 7.19037109 3.93359375 7.09765625 C3.93359375 6.76765625 3.93359375 6.43765625 3.93359375 6.09765625 C27.59611104 3.92891489 27.59611104 3.92891489 31.93359375 6.09765625 C32.01466958 8.03446786 32.0728185 9.97224965 32.12109375 11.91015625 C32.17330078 13.52857422 32.17330078 13.52857422 32.2265625 15.1796875 C31.93359375 18.09765625 31.93359375 18.09765625 30.421875 19.984375 C29.93074219 20.35175781 29.43960938 20.71914062 28.93359375 21.09765625 C26.95359375 19.44765625 24.97359375 17.79765625 22.93359375 16.09765625 C18.64120752 17.74857403 16.05420225 20.83520191 12.93359375 24.09765625 C13.42859375 25.02578125 13.42859375 25.02578125 13.93359375 25.97265625 C15.77015456 31.7119088 15.96318186 37.03848004 13.24609375 42.47265625 C10.12281207 46.01800303 7.45177786 48.59159488 2.93359375 50.09765625 C-0.9513259 50.31755736 -3.49864021 50.35788235 -7.06640625 48.72265625 C-10.00404615 47.75014071 -10.00404615 47.75014071 -11.99609375 49.30078125 C-13.77614399 50.83062362 -15.44604431 52.40059079 -17.06640625 54.09765625 C-16.40640625 54.86078125 -15.74640625 55.62390625 -15.06640625 56.41015625 C-13.06640625 59.09765625 -13.06640625 59.09765625 -13.06640625 62.09765625 C-16.03834475 60.97313898 -18.40081312 59.87471834 -21.06640625 58.09765625 C-23.73786162 58.89927416 -23.73786162 58.89927416 -26.06640625 60.09765625 C-25.40640625 58.11765625 -24.74640625 56.13765625 -24.06640625 54.09765625 C-24.72640625 53.52015625 -25.38640625 52.94265625 -26.06640625 52.34765625 C-28.06640625 50.09765625 -28.06640625 50.09765625 -28.06640625 46.09765625 C-25.11230924 47.46920129 -22.62632249 49.08629349 -20.06640625 51.09765625 C-17.79118494 48.9252698 -15.73541123 46.77456684 -14.06640625 44.09765625 C-14.59078398 41.02349319 -14.59078398 41.02349319 -16.06640625 38.09765625 C-16.5362546 32.83535476 -15.96361412 29.54004165 -13.06640625 25.09765625 C-10.09634473 22.01112172 -7.31188026 19.95041885 -3.06640625 19.09765625 C-3.07800781 17.80988281 -3.08960937 16.52210937 -3.1015625 15.1953125 C-3.11093895 13.51692853 -3.1200393 11.83854299 -3.12890625 10.16015625 C-3.13728516 9.31001953 -3.14566406 8.45988281 -3.15429688 7.58398438 C-3.15913086 6.3706543 -3.15913086 6.3706543 -3.1640625 5.1328125 C-3.17191772 4.00951538 -3.17191772 4.00951538 -3.17993164 2.86352539 C-3.01250827 0.25928194 -2.59628016 0.12269755 0 0 Z M18.93359375 7.09765625 C19.92359375 8.08765625 20.91359375 9.07765625 21.93359375 10.09765625 C22.59359375 9.10765625 23.25359375 8.11765625 23.93359375 7.09765625 C22.28359375 7.09765625 20.63359375 7.09765625 18.93359375 7.09765625 Z M28.93359375 7.09765625 C27.21923195 9.05692688 25.54954207 11.05645837 23.93359375 13.09765625 C25.5569918 14.8064963 27.22678428 16.47212342 28.93359375 18.09765625 C29.59359375 18.09765625 30.25359375 18.09765625 30.93359375 18.09765625 C30.93359375 14.46765625 30.93359375 10.83765625 30.93359375 7.09765625 C30.27359375 7.09765625 29.61359375 7.09765625 28.93359375 7.09765625 Z M-8.06640625 27.09765625 C-9.29780025 30.79183826 -8.71073389 33.30328235 -8.06640625 37.09765625 C-4.96596397 37.41854179 -4.96596397 37.41854179 -2.83984375 35.234375 C-2.04835938 34.42613281 -1.256875 33.61789063 -0.44140625 32.78515625 C0.35523438 31.98464844 1.151875 31.18414062 1.97265625 30.359375 C4.12108317 28.1727447 4.12108317 28.1727447 4.93359375 25.09765625 C-0.45832845 23.91143337 -3.41624694 23.99755004 -8.06640625 27.09765625 Z M-10.06640625 30.09765625 C-10.06640625 31.74765625 -10.06640625 33.39765625 -10.06640625 35.09765625 C-9.73640625 35.09765625 -9.40640625 35.09765625 -9.06640625 35.09765625 C-9.06640625 33.44765625 -9.06640625 31.79765625 -9.06640625 30.09765625 C-9.39640625 30.09765625 -9.72640625 30.09765625 -10.06640625 30.09765625 Z M7.93359375 29.09765625 C3.51264572 32.82112461 -0.64474107 36.39286663 -4.06640625 41.09765625 C-2.09513104 43.06893146 1.10684467 42.89062181 3.76953125 43.1484375 C6.06152465 43.30434739 6.06152465 43.30434739 7.93359375 41.59765625 C9.22128914 38.37841777 9.74474206 35.55993726 9.93359375 32.09765625 C9.27359375 31.10765625 8.61359375 30.11765625 7.93359375 29.09765625 Z M-1.06640625 43.09765625 C-1.06640625 43.42765625 -1.06640625 43.75765625 -1.06640625 44.09765625 C0.58359375 44.09765625 2.23359375 44.09765625 3.93359375 44.09765625 C3.93359375 43.76765625 3.93359375 43.43765625 3.93359375 43.09765625 C2.28359375 43.09765625 0.63359375 43.09765625 -1.06640625 43.09765625 Z " fill="#050505" transform="translate(28.06640625,65.90234375)"/>
<path d="M0 0 C3.68754757 0.49831724 5.60490662 1.10067643 8 4 C10.46800047 2.84826645 12.04783565 1.95216435 14 0 C16.125 0.375 16.125 0.375 18 1 C16.66536458 2.46484375 15.33072917 3.9296875 13.99609375 5.39453125 C13.66738281 5.92433594 13.33867188 6.45414062 13 7 C14.28818012 10.86454035 16.11451422 11.89285475 19.3125 14.375 C28.42371534 21.45474276 28.42371534 21.45474276 29.75 27.3125 C29.8325 28.199375 29.915 29.08625 30 30 C27.69 28.35 25.38 26.7 23 25 C19.7 28.3 16.4 31.6 13 35 C14.73315485 38.4663097 15.31104771 39.54777647 18.125 41.75 C19.07375 42.4925 20.0225 43.235 21 44 C20.67 44.99 20.34 45.98 20 47 C16.64749299 46.42424336 15.06181371 45.40693737 12.75 42.9375 C12.22921875 42.38964844 11.7084375 41.84179688 11.171875 41.27734375 C10.78515625 40.85582031 10.3984375 40.43429688 10 40 C7.11919043 41.17366316 5.65742801 42.35092741 3.4375 44.625 C1 47 1 47 -2 47 C-2.495 45.515 -2.495 45.515 -3 44 C-0.36 41.69 2.28 39.38 5 37 C3.16614077 33.33228155 1.74937171 31.53165004 -1.125 28.75 C-2.21167969 27.69039062 -2.21167969 27.69039062 -3.3203125 26.609375 C-3.87460937 26.07828125 -4.42890625 25.5471875 -5 25 C-8.465 27.475 -8.465 27.475 -12 30 C-11.84157604 23.66304164 -8.37616401 20.1717572 -4 16 C-1.3125 14.25 -1.3125 14.25 1 13 C2.36984198 11.70420353 3.7151049 10.38007251 5 9 C3.99554337 6.75928906 3.12245015 5.12245015 1.375 3.375 C0.92125 2.92125 0.4675 2.4675 0 2 C0 1.34 0 0.68 0 0 Z M7 11 C11 12 11 12 11 12 Z M-3 22 C-2.29875 22.70125 -1.5975 23.4025 -0.875 24.125 C2.08333333 27.08333333 5.04166667 30.04166667 8 33 C11.15649355 31.6094742 13.23989506 29.97966857 15.625 27.5 C16.51058594 26.58734375 16.51058594 26.58734375 17.4140625 25.65625 C17.93742187 25.1096875 18.46078125 24.563125 19 24 C19.66 23.34 20.32 22.68 21 22 C12.75042944 16.2611683 5.24957056 16.2611683 -3 22 Z " fill="#090909" transform="translate(55,0)"/>
<path d="M0 0 C2.31 1.98 4.62 3.96 7 6 C5 7 5 7 1.625 7.3125 C-1.94494079 7.76659656 -1.94494079 7.76659656 -4.4375 9.5 C-6.75630498 13.21008796 -6.47943241 16.7322656 -6 21 C-5.67 21.99 -5.34 22.98 -5 24 C-1.40178053 25.58321657 3.15039369 25.53752203 7 25 C9.62283334 23.71107713 9.62283334 23.71107713 11 21 C11.60320189 18.00461283 11.86965361 15.05010563 12 12 C14.31858133 13.60881154 16.17222399 14.90164688 18 17 C18.36676222 21.21776549 16.7879393 23.56435744 14.25 26.75 C10.61642615 30.65975998 7.92002914 31.86036152 2.5625 32.25 C-1 32 -1 32 -4 30.625 C-6.9376399 29.65248446 -6.9376399 29.65248446 -8.9296875 31.203125 C-10.70973774 32.73296737 -12.37963806 34.30293454 -14 36 C-13.34 36.763125 -12.68 37.52625 -12 38.3125 C-10 41 -10 41 -10 44 C-12.9719385 42.87548273 -15.33440687 41.77706209 -18 40 C-20.67145537 40.80161791 -20.67145537 40.80161791 -23 42 C-22.34 40.02 -21.68 38.04 -21 36 C-21.66 35.4225 -22.32 34.845 -23 34.25 C-25 32 -25 32 -25 28 C-22.04590299 29.37154504 -19.55991624 30.98863724 -17 33 C-14.72477869 30.82761355 -12.66900498 28.67691059 -11 26 C-11.52437773 22.92583694 -11.52437773 22.92583694 -13 20 C-13.46984835 14.73769851 -12.89720787 11.4423854 -10 7 C-6.99471468 3.95262385 -3.8449497 1.92247485 0 0 Z " fill="#000000" transform="translate(25,84)"/>
<path d="M0 0 C5.88279749 2.59241923 9.29673472 4.72565248 13 10 C15.15361206 16.46083617 13.87128839 21.13778621 11 27 C13.64 28.98 16.28 30.96 19 33 C19.78375 32.175 20.5675 31.35 21.375 30.5 C24 28 24 28 26 28 C25.50168276 31.68754757 24.89932357 33.60490662 22 36 C22.66 37.98 23.32 39.96 24 42 C23.0925 41.608125 22.185 41.21625 21.25 40.8125 C20.1775 40.544375 19.105 40.27625 18 40 C15.78963709 41.30344828 15.78963709 41.30344828 14 43 C13.01 43 12.02 43 11 43 C12.20381448 40.50638429 13.45428722 38.31856917 15 36 C12.82761355 33.72477869 10.67691059 31.66900498 8 30 C4.92583694 30.52437773 4.92583694 30.52437773 2 32 C-3.26230149 32.46984835 -6.5576146 31.89720787 -11 29 C-13.90885834 26.09114166 -15.70036607 23.77274013 -17.1875 19.9375 C-17 17 -17 17 -15.7109375 15.51171875 C-14.0625 14.125 -14.0625 14.125 -11 12 C-10.97421875 12.60328125 -10.9484375 13.2065625 -10.921875 13.828125 C-10.65825461 17.54277595 -10.40082985 20.31524901 -8.5 23.5625 C-4.76687297 25.70904805 -1.21105206 25.47306478 3 25 C3.99 24.67 4.98 24.34 6 24 C7.35417496 19.93747513 7.5222187 16.24686679 7 12 C5.73061576 9.31379818 5.73061576 9.31379818 3 8 C-0.03536748 7.39397138 -2.89289416 7.18277093 -6 7 C-4.02 4.69 -2.04 2.38 0 0 Z " fill="#000000" transform="translate(102,84)"/>
<path d="M0 0 C0.33 0.66 0.66 1.32 1 2 C0.67 2.99 0.34 3.98 0 5 C-0.50704484 10.29487804 -0.64847741 14.65500981 1.6875 19.5 C4.99563198 23.0763589 7.54788579 24.60904617 12.25 25.875 C17.01763314 26.0339211 20.74789622 25.16306247 25 23 C28.97425701 18.92638657 30.14013236 16.27890751 30.125 10.6875 C30.12757812 9.74261719 30.13015625 8.79773437 30.1328125 7.82421875 C30.005363 5.11404264 29.60596226 2.64026415 29 0 C30.14626322 0.97866338 31.29199788 1.95794587 32.4375 2.9375 C33.07558594 3.48277344 33.71367188 4.02804688 34.37109375 4.58984375 C36.98725187 6.85467128 36.98725187 6.85467128 37.3125 10.5625 C37.19719783 16.43242848 35.11501451 20.66476706 31.19921875 24.98828125 C27.0345271 28.89419594 23.6105394 30.94802386 18 32 C17.67 33.65 17.34 35.3 17 37 C15.68 37 14.36 37 13 37 C12.505 34.525 12.505 34.525 12 32 C11.43152344 31.86464844 10.86304687 31.72929688 10.27734375 31.58984375 C3.9485833 29.82539802 -0.00117173 27.23423863 -4 22 C-6.37710321 17.78255882 -7.70257576 13.8370563 -7.5703125 9 C-6.43437901 5.0164524 -3.11579923 2.54350958 0 0 Z " fill="#000000" transform="translate(49,24)"/>
<path d="M0 0 C2.95409701 1.37154504 5.44008376 2.98863724 8 5 C8.99 4.34 9.98 3.68 11 3 C10.89816406 3.87914062 10.79632813 4.75828125 10.69140625 5.6640625 C11.10209293 10.10363748 12.72268247 11.37209892 15.9375 14.375 C16.85402344 15.24898437 17.77054688 16.12296875 18.71484375 17.0234375 C20.6224914 19.10903199 20.6224914 19.10903199 22 19 C22.33 16.36 22.66 13.72 23 11 C23.33 11 23.66 11 24 11 C24.19561869 13.0825867 24.38119313 15.16611856 24.5625 17.25 C24.66691406 18.41015625 24.77132813 19.5703125 24.87890625 20.765625 C24.98198087 23.51871477 24.86213473 25.419982 24 28 C23.01 27.34 22.02 26.68 21 26 C17.7 29.3 14.4 32.6 11 36 C11.66 37.65 12.32 39.3 13 41 C12.125 44.3125 12.125 44.3125 11 47 C10.67 47 10.34 47 10 47 C9.01 43.535 9.01 43.535 8 40 C4.04 42.475 4.04 42.475 0 45 C0.53069061 41.17902761 1.49701566 38.93828597 4 36 C3.34 35.236875 2.68 34.47375 2 33.6875 C0 31 0 31 0 28 C3.06775511 29.42431487 5.21040099 30.90780074 8 33 C11.3 29.7 14.6 26.4 18 23 C14.56530675 18.84641746 11.36729534 15.21124658 7 12 C4.03 14.475 4.03 14.475 1 17 C0.25 15.3125 0.25 15.3125 0 13 C1.9375 10.25 1.9375 10.25 4 8 C3.01 6.8553125 3.01 6.8553125 2 5.6875 C0 3 0 3 0 0 Z " fill="#5F5F5F" transform="translate(0,56)"/>
<path d="M0 0 C0.33 1.32 0.66 2.64 1 4 C-0.9375 6.25 -0.9375 6.25 -3 8 C-1.84826645 10.46800047 -0.95216435 12.04783565 1 14 C1 15.32 1 16.64 1 18 C-1.88437779 16.70700306 -3.87219421 15.34058637 -6 13 C-9.21524305 14.40844718 -11.32183868 16.10344786 -13.75 18.625 C-14.67039062 19.57246094 -14.67039062 19.57246094 -15.609375 20.5390625 C-16.06828125 21.02117187 -16.5271875 21.50328125 -17 22 C-15.52278578 25.45201639 -13.56205999 27.64961936 -10.875 30.25 C-9.78832031 31.30960938 -9.78832031 31.30960938 -8.6796875 32.390625 C-8.12539062 32.92171875 -7.57109375 33.4528125 -7 34 C-6.05125 33.175 -5.1025 32.35 -4.125 31.5 C-1.25 29 -1.25 29 1 29 C0.35455571 32.48539917 -1.10134397 35.02819057 -3 38 C-2.01 38.86625 -2.01 38.86625 -1 39.75 C1 42 1 42 1 46 C-1.95409701 44.62845496 -4.44008376 43.01136276 -7 41 C-7.66 43.31 -8.32 45.62 -9 48 C-9.33 48 -9.66 48 -10 48 C-12.23269231 41.55 -12.23269231 41.55 -11.0546875 38.765625 C-10.70664063 38.18296875 -10.35859375 37.6003125 -10 37 C-11.62192821 35.35113941 -13.24763772 33.7059976 -14.875 32.0625 C-15.77992187 31.14597656 -16.68484375 30.22945312 -17.6171875 29.28515625 C-19.77682255 26.98812373 -19.77682255 26.98812373 -22 26 C-22.33 26.99 -22.66 27.98 -23 29 C-23.98844951 25.05352382 -23.96191905 21.72607036 -23.5625 17.6875 C-23.46066406 16.61886719 -23.35882813 15.55023438 -23.25390625 14.44921875 C-23.12822266 13.23685547 -23.12822266 13.23685547 -23 12 C-22.67 12 -22.34 12 -22 12 C-21.67 14.64 -21.34 17.28 -21 20 C-14.89578221 15.06973424 -14.89578221 15.06973424 -10 9 C-9.66407492 6.2895393 -9.66407492 6.2895393 -10 4 C-8.68 4.66 -7.36 5.32 -6 6 C-4.02 4.02 -2.04 2.04 0 0 Z " fill="#5E5E5E" transform="translate(127,55)"/>
<path d="M0 0 C1.9375 0.8125 1.9375 0.8125 4 2 C5.23156105 5.69468315 5.22260483 9.15097846 5.25 13 C5.270625 13.72445312 5.29125 14.44890625 5.3125 15.1953125 C5.35128616 20.45083746 5.35128616 20.45083746 3.765625 22.9296875 C1.68909622 24.18846822 -0.12752415 24.62678007 -2.5 25.125 C-4.92996633 25.75754776 -4.92996633 25.75754776 -7 27 C-8.2165762 29.3178978 -8.77667718 31.37603764 -9.26953125 33.94140625 C-10 36 -10 36 -12.07421875 37.27734375 C-12.70972656 37.51582031 -13.34523437 37.75429687 -14 38 C-15.19183198 34.02722675 -15.10173918 31.5633149 -13.375 27.875 C-11.44567421 24.39556074 -9.41750191 22.13593869 -6 20 C-4.68 19.67 -3.36 19.34 -2 19 C-2 14.38 -2 9.76 -2 5 C-2.66 4.67 -3.32 4.34 -4 4 C-2.68 2.68 -1.36 1.36 0 0 Z " fill="#000000" transform="translate(63,66)"/>
<path d="M0 0 C3.87511727 0.54984772 5.59576506 2.27555331 8.25 5.0625 C8.95640625 5.79597656 9.6628125 6.52945312 10.390625 7.28515625 C10.92171875 7.85105469 11.4528125 8.41695312 12 9 C16.03895528 7.24238869 18.38128213 4.66407963 21.31640625 1.4609375 C23 0 23 0 26 0 C25.45015228 3.87511727 23.72444669 5.59576506 20.9375 8.25 C19.83728516 9.30960938 19.83728516 9.30960938 18.71484375 10.390625 C18.14894531 10.92171875 17.58304688 11.4528125 17 12 C18.30371946 14.96184809 19.57928724 16.75770306 22.125 18.75 C23.07375 19.4925 24.0225 20.235 25 21 C24.67 21.99 24.34 22.98 24 24 C20.64749299 23.42424336 19.06181371 22.40693737 16.75 19.9375 C16.22921875 19.38964844 15.7084375 18.84179688 15.171875 18.27734375 C14.78515625 17.85582031 14.3984375 17.43429688 14 17 C11.11919043 18.17366316 9.65742801 19.35092741 7.4375 21.625 C5 24 5 24 2 24 C1.67 23.01 1.34 22.02 1 21 C3.64 18.69 6.28 16.38 9 14 C6.92024615 9.84049231 4.815257 7.7572457 1.4609375 4.68359375 C0 3 0 3 0 0 Z " fill="#545454" transform="translate(51,23)"/>
<path d="M0 0 C0.26554687 0.56203125 0.53109375 1.1240625 0.8046875 1.703125 C2.09331034 4.17930222 3.56130361 6.43844882 5.125 8.75 C5.66382812 9.54921875 6.20265625 10.3484375 6.7578125 11.171875 C7.16773437 11.77515625 7.57765625 12.3784375 8 13 C7.34 13.66 6.68 14.32 6 15 C5.34 15 4.68 15 4 15 C2.40891998 16.44748074 0.87440511 17.95775474 -0.625 19.5 C-1.44226563 20.3353125 -2.25953125 21.170625 -3.1015625 22.03125 C-3.72804688 22.6809375 -4.35453125 23.330625 -5 24 C-4.175 24.94875 -3.35 25.8975 -2.5 26.875 C0 29.75 0 29.75 0 32 C-3.82097239 31.46930939 -6.06171403 30.50298434 -9 28 C-9.5775 28.680625 -10.155 29.36125 -10.75 30.0625 C-11.4925 30.701875 -12.235 31.34125 -13 32 C-14.32 31.67 -15.64 31.34 -17 31 C-15.35 28.69 -13.7 26.38 -12 24 C-14.31 23.34 -16.62 22.68 -19 22 C-19 21.67 -19 21.34 -19 21 C-15.75 19.875 -15.75 19.875 -12 19 C-10.68 19.66 -9.36 20.32 -8 21 C-4.7 17.7 -1.4 14.4 2 11 C1.01 9.35 0.02 7.7 -1 6 C-0.6875 2.6875 -0.6875 2.6875 0 0 Z " fill="#707070" transform="translate(44,96)"/>
<path d="M0 0 C0.75788818 -0.00451172 1.51577637 -0.00902344 2.29663086 -0.01367188 C7.81498182 0.00124091 7.81498182 0.00124091 10.0625 1.125 C10.14357583 3.06181161 10.20172475 4.9995934 10.25 6.9375 C10.30220703 8.55591797 10.30220703 8.55591797 10.35546875 10.20703125 C10.0625 13.125 10.0625 13.125 8.55078125 15.01171875 C8.05964844 15.37910156 7.56851563 15.74648437 7.0625 16.125 C5.0825 14.475 3.1025 12.825 1.0625 11.125 C-3.22988623 12.77591778 -5.8168915 15.86254566 -8.9375 19.125 C-9.9275 18.795 -10.9175 18.465 -11.9375 18.125 C-10.28658222 13.83261377 -7.19995434 11.2456085 -3.9375 8.125 C-5.15757944 5.4344472 -5.15757944 5.4344472 -6.9375 3.125 C-8.78641946 2.89136119 -10.64238031 2.71196365 -12.5 2.5625 C-13.51191406 2.47871094 -14.52382813 2.39492187 -15.56640625 2.30859375 C-16.74009766 2.21771484 -16.74009766 2.21771484 -17.9375 2.125 C-17.9375 1.795 -17.9375 1.465 -17.9375 1.125 C-11.93896328 0.25248557 -6.05168142 0.01527078 0 0 Z M-2.9375 2.125 C-1.9475 3.115 -0.9575 4.105 0.0625 5.125 C0.7225 4.135 1.3825 3.145 2.0625 2.125 C0.4125 2.125 -1.2375 2.125 -2.9375 2.125 Z M7.0625 2.125 C5.3481382 4.08427063 3.67844832 6.08380212 2.0625 8.125 C3.68589805 9.83384005 5.35569053 11.49946717 7.0625 13.125 C7.7225 13.125 8.3825 13.125 9.0625 13.125 C9.0625 9.495 9.0625 5.865 9.0625 2.125 C8.4025 2.125 7.7425 2.125 7.0625 2.125 Z " fill="#484848" transform="translate(49.9375,70.875)"/>
<path d="M0 0 C0.66 0.66 1.32 1.32 2 2 C1.625 5.625 1.625 5.625 1 9 C0.01 9.33 -0.98 9.66 -2 10 C1.20760251 13.80635497 4.40746109 17.54563567 8 21 C8.86625 20.62875 9.7325 20.2575 10.625 19.875 C14.55697326 18.85559952 16.32937509 19.42687504 20 21 C20 21.33 20 21.66 20 22 C17.69 22.66 15.38 23.32 13 24 C13.28875 24.5775 13.5775 25.155 13.875 25.75 C14.91666667 27.83333333 15.95833333 29.91666667 17 32 C13.64404172 31.40072174 11.62198774 30.15377564 9 28 C7.8553125 28.99 7.8553125 28.99 6.6875 30 C4 32 4 32 1 32 C2.37405423 29.04049858 4.01776932 26.58504604 6 24 C5.30132812 23.30132812 4.60265625 22.60265625 3.8828125 21.8828125 C0.58854167 18.58854167 -2.70572917 15.29427083 -6 12 C-3.25 6.25 -3.25 6.25 -1 4 C-0.3574765 1.93125966 -0.3574765 1.93125966 0 0 Z " fill="#6C6C6C" transform="translate(83,96)"/>
<path d="M0 0 C3.82097239 0.53069061 6.06171403 1.49701566 9 4 C9.7425 3.319375 10.485 2.63875 11.25 1.9375 C12.1575 1.298125 13.065 0.65875 14 0 C15.32 0.33 16.64 0.66 18 1 C16.02 3.31 14.04 5.62 12 8 C12.55429687 8.55429688 13.10859375 9.10859375 13.6796875 9.6796875 C16.453125 12.453125 19.2265625 15.2265625 22 18 C21.01 18.99 20.02 19.98 19 21 C18.29875 20.278125 17.5975 19.55625 16.875 18.8125 C14.07229255 16.00176187 11.07737208 13.50483774 8 11 C5.69 12.98 3.38 14.96 1 17 C0.34 16.67 -0.32 16.34 -1 16 C0.52708963 12.56404834 2.59927045 9.88087546 5 7 C4.175 6.21625 3.35 5.4325 2.5 4.625 C0 2 0 2 0 0 Z " fill="#828282" transform="translate(27,0)"/>
<path d="M0 0 C3.68754757 0.49831724 5.60490662 1.10067643 8 4 C10.46800047 2.84826645 12.04783565 1.95216435 14 0 C16.125 0.375 16.125 0.375 18 1 C17.154375 1.886875 16.30875 2.77375 15.4375 3.6875 C13.16914939 6.33719169 13.16914939 6.33719169 13.1875 9.875 C13.455625 10.57625 13.72375 11.2775 14 12 C12.68 12 11.36 12 10 12 C6.72843322 13.23620271 4.94079867 14.93629254 2.75 17.625 C1.96882813 18.57246094 1.96882813 18.57246094 1.171875 19.5390625 C0.78515625 20.02117188 0.3984375 20.50328125 0 21 C-0.99 20.67 -1.98 20.34 -3 20 C-3.33 19.01 -3.66 18.02 -4 17 C-3.4225 16.54109375 -2.845 16.0821875 -2.25 15.609375 C-1.5075 14.99578125 -0.765 14.3821875 0 13.75 C0.7425 13.14671875 1.485 12.5434375 2.25 11.921875 C4.44884733 9.94027788 4.44884733 9.94027788 4 6 C2.07706482 2.78170896 2.07706482 2.78170896 0 0 Z " fill="#7C7C7C" transform="translate(83,0)"/>
<path d="M0 0 C0.99 0.33 1.98 0.66 3 1 C3.33 1.99 3.66 2.98 4 4 C1.69 5.98 -0.62 7.96 -3 10 C-2.01 11.1446875 -2.01 11.1446875 -1 12.3125 C1 15 1 15 1 18 C-1.9719385 16.87548273 -4.33440687 15.77706209 -7 14 C-9.67145537 14.80161791 -9.67145537 14.80161791 -12 16 C-11.34 14.02 -10.68 12.04 -10 10 C-10.99 9.13375 -10.99 9.13375 -12 8.25 C-14 6 -14 6 -14 2 C-11.04590299 3.37154504 -8.55991624 4.98863724 -6 7 C-4.02 4.69 -2.04 2.38 0 0 Z " fill="#D8D8D8" transform="translate(14,110)"/>
<path d="M0 0 C1.76150391 0.03383789 1.76150391 0.03383789 3.55859375 0.06835938 C6.45701637 0.1272704 9.35286427 0.20948369 12.25 0.3125 C11.046875 2.79296875 11.046875 2.79296875 8.25 5.3125 C3.99401733 5.96923947 -0.20643064 5.78021802 -4.5 5.625 C-6.26150391 5.59116211 -6.26150391 5.59116211 -8.05859375 5.55664062 C-10.95701637 5.4977296 -13.85286427 5.41551631 -16.75 5.3125 C-13.30937413 -1.78099815 -6.83340919 -0.24703648 0 0 Z " fill="#010101" transform="translate(47.75,65.6875)"/>
<path d="M0 0 C3.99500618 1.3697164 6.80009492 3.25722422 10 6 C10.78375 5.175 11.5675 4.35 12.375 3.5 C15 1 15 1 17 1 C16.50168276 4.68754757 15.89932357 6.60490662 13 9 C13.66 10.98 14.32 12.96 15 15 C14.0925 14.608125 13.185 14.21625 12.25 13.8125 C11.1775 13.544375 10.105 13.27625 9 13 C6.78963709 14.30344828 6.78963709 14.30344828 5 16 C4.01 16 3.02 16 2 16 C3.20381448 13.50638429 4.45428722 11.31856917 6 9 C3.69 7.02 1.38 5.04 -1 3 C-0.67 2.01 -0.34 1.02 0 0 Z " fill="#C4C4C4" transform="translate(111,111)"/>
<path d="M0 0 C0.51949219 0.30035156 1.03898437 0.60070312 1.57421875 0.91015625 C5.88176809 3.35953983 5.88176809 3.35953983 10.6875 3.8125 C11.450625 3.544375 12.21375 3.27625 13 3 C13.928125 2.814375 14.85625 2.62875 15.8125 2.4375 C16.534375 2.293125 17.25625 2.14875 18 2 C18 4 18 4 15.5 6.625 C14.675 7.40875 13.85 8.1925 13 9 C14.2375 10.175625 14.2375 10.175625 15.5 11.375 C18 14 18 14 18 16 C14.51460083 15.35455571 11.97180943 13.89865603 9 12 C8.401875 12.66 7.80375 13.32 7.1875 14 C5 16 5 16 2 16 C3.02486226 13.95027548 4.04359259 11.92428655 5.1875 9.9375 C6.31455354 7.84615294 6.31455354 7.84615294 5 5 C3.06669397 3.90833725 3.06669397 3.90833725 1 3 C0.34 2.34 -0.32 1.68 -1 1 C-0.67 0.67 -0.34 0.34 0 0 Z " fill="#8E8E8E" transform="translate(54,112)"/>
<path d="M0 0 C3.68754757 0.49831724 5.60490662 1.10067643 8 4 C10.46800047 2.84826645 12.04783565 1.95216435 14 0 C16.125 0.375 16.125 0.375 18 1 C15.99804688 3.19726562 15.99804688 3.19726562 13.99609375 5.39453125 C13.66738281 5.92433594 13.33867188 6.45414062 13 7 C13.7763932 10.0745356 13.7763932 10.0745356 16 12 C13.54700814 12.81766395 12.12810602 13.02627816 9.5625 12.5 C6.7167519 11.94473208 4.78408477 12.28409249 2 13 C2 12.34 2 11.68 2 11 C2.99 10.34 3.98 9.68 5 9 C3.99554337 6.75928906 3.12245015 5.12245015 1.375 3.375 C0.92125 2.92125 0.4675 2.4675 0 2 C0 1.34 0 0.68 0 0 Z " fill="#A3A3A3" transform="translate(55,0)"/>
<path d="M0 0 C2.31170149 1.15585075 3.24991739 2.37943224 4.875 4.375 C7.05538908 6.97757227 9.13580897 9.12725971 12 11 C12.33 8.69 12.66 6.38 13 4 C13.33 4 13.66 4 14 4 C15.04726144 8.75933663 15.70609202 11.82317996 13.125 16.125 C8.82317996 18.70609202 5.75933663 18.04726144 1 17 C1 16.67 1 16.34 1 16 C4.465 15.505 4.465 15.505 8 15 C4.90174897 11.23046125 2.01534259 7.82561145 -2 5 C-2.33 4.34 -2.66 3.68 -3 3 C-2.01 2.01 -1.02 1.02 0 0 Z " fill="#515151" transform="translate(95,92)"/>
<path d="M0 0 C1.32 0.33 2.64 0.66 4 1 C4.33 2.32 4.66 3.64 5 5 C4.41734375 5.25652344 3.8346875 5.51304688 3.234375 5.77734375 C0.80289161 7.10785826 -0.81735553 8.58443013 -2.75 10.5625 C-3.36359375 11.18253906 -3.9771875 11.80257812 -4.609375 12.44140625 C-6.11095926 13.77622963 -6.11095926 13.77622963 -6 15 C-3.69 15.33 -1.38 15.66 1 16 C1 16.33 1 16.66 1 17 C-6.30909091 18.21818182 -6.30909091 18.21818182 -9.375 17.25 C-11 16 -11 16 -13 13 C-12.9765625 10.73828125 -12.9765625 10.73828125 -12.625 8.3125 C-12.51414062 7.50425781 -12.40328125 6.69601563 -12.2890625 5.86328125 C-12.19367187 5.24839844 -12.09828125 4.63351563 -12 4 C-11.67 4 -11.34 4 -11 4 C-10.67 6.31 -10.34 8.62 -10 11 C-4.43939354 6.53022535 -4.43939354 6.53022535 0 1 C0 0.67 0 0.34 0 0 Z " fill="#515151" transform="translate(31,92)"/>
<path d="M0 0 C1.98 0 3.96 0 6 0 C6.12375 0.8971875 6.12375 0.8971875 6.25 1.8125 C7.2138689 4.6237843 8.59955097 5.32695977 11 7 C13 10 13 10 13 13 C9.18315774 11.44499019 6.80804268 8.96404505 4 6 C1.12018877 7.17325643 -0.37938667 8.37938667 -2.625 10.625 C-3.40875 11.40875 -4.1925 12.1925 -5 13 C-5.66 13 -6.32 13 -7 13 C-6.3538439 8.04613656 -5.48520451 6.48520451 -2 3 C-1.34 2.67 -0.68 2.34 0 2 C0 1.34 0 0.68 0 0 Z " fill="#555555" transform="translate(61,90)"/>
<path d="M0 0 C0.99 0.33 1.98 0.66 3 1 C0.525 4.465 0.525 4.465 -2 8 C-1.01 8.99 -0.02 9.98 1 11 C0.67 11.99 0.34 12.98 0 14 C-0.598125 13.67 -1.19625 13.34 -1.8125 13 C-4.05386471 11.79212012 -4.05386471 11.79212012 -7 12 C-8.35368596 13.31266518 -9.68799596 14.64567325 -11 16 C-11.66 16 -12.32 16 -13 16 C-12.43628586 12.73045798 -11.50037734 11.17424117 -9 9 C-9.66 6.69 -10.32 4.38 -11 2 C-10.13375 2.5259375 -10.13375 2.5259375 -9.25 3.0625 C-7.08596543 4.16953689 -7.08596543 4.16953689 -4.9375 3.8125 C-2.74244718 2.89199398 -1.55133719 1.78403777 0 0 Z " fill="#DCDCDC" transform="translate(13,0)"/>
<path d="M0 0 C4.76470588 1.85294118 4.76470588 1.85294118 7 3.25 C9.11110906 4.27682209 9.11110906 4.27682209 11.75 3.125 C12.86375 2.568125 12.86375 2.568125 14 2 C13.34 4.31 12.68 6.62 12 9 C12.680625 9.5775 13.36125 10.155 14.0625 10.75 C14.701875 11.4925 15.34125 12.235 16 13 C15.62109375 15.140625 15.62109375 15.140625 15 17 C14.51789063 16.566875 14.03578125 16.13375 13.5390625 15.6875 C12.59160156 14.8521875 12.59160156 14.8521875 11.625 14 C10.99851562 13.443125 10.37203125 12.88625 9.7265625 12.3125 C8.09610167 10.79827513 8.09610167 10.79827513 6 11 C5.62875 9.88625 5.62875 9.88625 5.25 8.75 C3.90634806 5.79396573 2.31013315 4.23312872 0 2 C0 1.34 0 0.68 0 0 Z " fill="#D4D4D4" transform="translate(112,0)"/>
<path d="M0 0 C5.2645107 0.97490939 7.93539211 4.71397377 11.375 8.625 C8.375 8.625 8.375 8.625 5.375 7.625 C-0.31395404 7.20395865 -5.29909783 7.38251488 -10.625 9.625 C-9.66770084 8.49911986 -8.70912105 7.3743285 -7.75 6.25 C-7.21632812 5.62351562 -6.68265625 4.99703125 -6.1328125 4.3515625 C-2.94491295 0.70116975 -2.94491295 0.70116975 0 0 Z " fill="#000000" transform="translate(63.625,11.375)"/>
<path d="M0 0 C0.26554687 0.56203125 0.53109375 1.1240625 0.8046875 1.703125 C2.09331034 4.17930222 3.56130361 6.43844882 5.125 8.75 C5.66382813 9.54921875 6.20265625 10.3484375 6.7578125 11.171875 C7.16773438 11.77515625 7.57765625 12.3784375 8 13 C7.34 13.66 6.68 14.32 6 15 C5.34 15 4.68 15 4 15 C3.21625 15.845625 2.4325 16.69125 1.625 17.5625 C0.75875 18.366875 -0.1075 19.17125 -1 20 C-3.1640625 19.65234375 -3.1640625 19.65234375 -5 19 C-4.57847656 18.51789063 -4.15695313 18.03578125 -3.72265625 17.5390625 C-2.90087891 16.59160156 -2.90087891 16.59160156 -2.0625 15.625 C-1.51722656 14.99851562 -0.97195312 14.37203125 -0.41015625 13.7265625 C1.06958624 12.04367666 1.06958624 12.04367666 2 10 C1.34 9.67 0.68 9.34 0 9 C-0.85056945 5.44307323 -1.16909807 3.50729422 0 0 Z " fill="#676767" transform="translate(44,96)"/>
<path d="M0 0 C0.62109375 1.859375 0.62109375 1.859375 1 4 C-0.9375 6.25 -0.9375 6.25 -3 8 C-1.84826645 10.46800047 -0.95216435 12.04783565 1 14 C0.625 16.125 0.625 16.125 0 18 C-6.6440678 13.22033898 -6.6440678 13.22033898 -7.875 9 C-6.58753401 4.58583088 -3.64324154 2.62090335 0 0 Z " fill="#B1B1B1" transform="translate(127,27)"/>
<path d="M0 0 C3.3721049 1.44518781 5.69880363 3.12350453 8 6 C8.6875 8.375 8.6875 8.375 8 11 C5.85169665 13.2549189 3.49764011 15.14588451 1 17 C0.37890625 15.171875 0.37890625 15.171875 0 13 C1.9375 10.25 1.9375 10.25 4 8 C3.01 6.8553125 3.01 6.8553125 2 5.6875 C0 3 0 3 0 0 Z " fill="#A2A2A2" transform="translate(0,84)"/>
<path d="M0 0 C3.3721049 1.44518781 5.69880363 3.12350453 8 6 C8.6875 8.375 8.6875 8.375 8 11 C5.85169665 13.2549189 3.49764011 15.14588451 1 17 C0.37890625 15.171875 0.37890625 15.171875 0 13 C1.9375 10.25 1.9375 10.25 4 8 C3.01 6.8553125 3.01 6.8553125 2 5.6875 C0 3 0 3 0 0 Z " fill="#B1B1B1" transform="translate(0,56)"/>
<path d="M0 0 C0.62109375 1.859375 0.62109375 1.859375 1 4 C-0.9375 6.25 -0.9375 6.25 -3 8 C-1.84826645 10.46800047 -0.95216435 12.04783565 1 14 C1 15.32 1 16.64 1 18 C-2.37471011 16.55369567 -4.78192764 14.95742982 -7 12 C-7.14299188 8.71118686 -6.69226668 6.83911113 -4.58203125 4.28125 C-3.1092242 2.79794789 -1.55864346 1.39283033 0 0 Z " fill="#B2B2B2" transform="translate(127,55)"/>
<path d="M0 0 C3.82097239 0.53069061 6.06171403 1.49701566 9 4 C9.7425 3.319375 10.485 2.63875 11.25 1.9375 C12.1575 1.298125 13.065 0.65875 14 0 C16.171875 0.37890625 16.171875 0.37890625 18 1 C13.01694915 6.57627119 13.01694915 6.57627119 9 8.25 C5.04427424 7.92035619 3.72562981 6.37561577 1.1015625 3.54296875 C0 2 0 2 0 0 Z " fill="#A2A2A2" transform="translate(27,0)"/>
<path d="M0 0 C0.33 0.66 0.66 1.32 1 2 C2.88764903 2.68472665 2.88764903 2.68472665 5.0625 3.125 C5.79597656 3.29257813 6.52945312 3.46015625 7.28515625 3.6328125 C7.85105469 3.75398438 8.41695312 3.87515625 9 4 C8.01 4.495 8.01 4.495 7 5 C8.83333333 8.16666667 8.83333333 8.16666667 12 10 C5.56014376 10.67081836 2.16216577 8.75430238 -3 5 C-2.01 3.35 -1.02 1.7 0 0 Z " fill="#080808" transform="translate(19,106)"/>
<path d="M0 0 C0.66 0.33 1.32 0.66 2 1 C1.36191406 1.61488281 0.72382812 2.22976562 0.06640625 2.86328125 C-1.17302734 4.07564453 -1.17302734 4.07564453 -2.4375 5.3125 C-3.26121094 6.11300781 -4.08492188 6.91351563 -4.93359375 7.73828125 C-7.19403477 9.90470808 -7.19403477 9.90470808 -8 13 C-1.07 13 5.86 13 13 13 C13 13.33 13 13.66 13 14 C5.74 14 -1.52 14 -9 14 C-9.33 12.02 -9.66 10.04 -10 8 C-7.21039995 4.4719764 -4.04579597 1.96822507 0 0 Z " fill="#373737" transform="translate(77,51)"/>
<path d="M0 0 C0.61875 0.185625 1.2375 0.37125 1.875 0.5625 C4.04160178 1.23686176 4.04160178 1.23686176 6 0 C6.268125 1.0725 6.53625 2.145 6.8125 3.25 C7.86227827 6.56508928 8.74612328 8.43877646 11 11 C9.68 11 8.36 11 7 11 C5.25 9 5.25 9 4 7 C1.53199953 8.15173355 -0.04783565 9.04783565 -2 11 C-2.99 10.67 -3.98 10.34 -5 10 C-4.360625 9.46375 -3.72125 8.9275 -3.0625 8.375 C-0.61470596 5.55632807 -0.33285388 3.66139268 0 0 Z " fill="#0D0D0D" transform="translate(61,60)"/>
<path d="M0 0 C4.00457227 0.97672494 5.22529416 3.28613452 7.5625 6.625 C7.5625 7.285 7.5625 7.945 7.5625 8.625 C4.20654172 8.02572174 2.18448774 6.77877564 -0.4375 4.625 C-1.200625 5.285 -1.96375 5.945 -2.75 6.625 C-5.4375 8.625 -5.4375 8.625 -8.4375 8.625 C-6.65306238 4.46131222 -4.56102068 1.16949248 0 0 Z " fill="#C4C4C4" transform="translate(92.4375,119.375)"/>
<path d="M0 0 C-0.64544429 3.48539917 -2.10134397 6.02819057 -4 9 C-3.34 9.5775 -2.68 10.155 -2 10.75 C0 13 0 13 0 17 C-3.35806998 15.6104538 -5.32052848 14.27054981 -7 11 C-6.92773032 6.9528978 -6.59953431 4.75425284 -4.0625 1.5625 C-2 0 -2 0 0 0 Z " fill="#B9B9B9" transform="translate(128,84)"/>
<path d="M0 0 C2.875 2.375 2.875 2.375 5 5 C5 5.66 5 6.32 5 7 C1.51460083 6.35455571 -1.02819057 4.89865603 -4 3 C-4.598125 3.66 -5.19625 4.32 -5.8125 5 C-8 7 -8 7 -11 7 C-8.5047597 1.43369472 -6.45528914 -1.03284626 0 0 Z " fill="#A5A5A5" transform="translate(67,121)"/>
<path d="M0 0 C3.68754757 0.49831724 5.60490662 1.10067643 8 4 C10.46800047 2.84826645 12.04783565 1.95216435 14 0 C16.125 0.375 16.125 0.375 18 1 C15.32676056 5.22544298 15.32676056 5.22544298 13 7 C9.73282661 7.5755341 7.07706749 7.22278988 4 6 C1.4375 2.9375 1.4375 2.9375 0 0 Z " fill="#A7A7A7" transform="translate(83,0)"/>
<path d="M0 0 C3.29613831 0.17919698 4.31911122 0.43014236 7.0625 2.4375 C8.5 4.5625 8.5 4.5625 8.5 6.5625 C4.67902761 6.03180939 2.43828597 5.06548434 -0.5 2.5625 C-1.0775 3.243125 -1.655 3.92375 -2.25 4.625 C-2.9925 5.264375 -3.735 5.90375 -4.5 6.5625 C-6.75 6.3125 -6.75 6.3125 -8.5 5.5625 C-6.1982037 1.55937601 -4.54356317 0.17216137 0 0 Z " fill="#C2C2C2" transform="translate(35.5,121.4375)"/>
<path d="M0 0 C0.66 0 1.32 0 2 0 C1.50168276 3.68754757 0.89932357 5.60490662 -2 8 C-1.34 9.98 -0.68 11.96 0 14 C-0.9075 13.608125 -1.815 13.21625 -2.75 12.8125 C-3.8225 12.544375 -4.895 12.27625 -6 12 C-8.21036291 13.30344828 -8.21036291 13.30344828 -10 15 C-10.99 15 -11.98 15 -13 15 C-13 14.34 -13 13.68 -13 13 C-11.6696875 12.443125 -11.6696875 12.443125 -10.3125 11.875 C-5.38114236 9.08366549 -2.23297385 5.2779382 0 0 Z " fill="#DFDFDF" transform="translate(126,112)"/>
<path d="M0 0 C2.46800047 1.15173355 4.04783565 2.04783565 6 4 C6.66759388 9.09040334 6.66759388 9.09040334 6 12 C4.18767376 14.2074555 2.41405287 15.39063142 0 17 C0.56545837 13.04179141 1.80902348 10.3340947 4 7 C3.34 6.401875 2.68 5.80375 2 5.1875 C0 3 0 3 0 0 Z " fill="#C1C1C1" transform="translate(0,28)"/>
<path d="M0 0 C2.475 0.99 2.475 0.99 5 2 C5.1875 4.875 5.1875 4.875 5 8 C4.01 8.66 3.02 9.32 2 10 C1.26656572 13.06556598 1.26656572 13.06556598 1 16 C0.67 16 0.34 16 0 16 C-2.22821577 9.56293223 -2.22821577 9.56293223 -1.0625 6.6875 C-0.711875 6.130625 -0.36125 5.57375 0 5 C-0.33 4.34 -0.66 3.68 -1 3 C-0.67 2.01 -0.34 1.02 0 0 Z " fill="#777777" transform="translate(117,87)"/>
<path d="M0 0 C3.62074747 0.79479822 5.17101325 2.82937229 7.5625 5.5625 C5.10950814 6.38016395 3.69060602 6.58877816 1.125 6.0625 C-1.7207481 5.50723208 -3.65341523 5.84659249 -6.4375 6.5625 C-6.4375 4.5625 -6.4375 4.5625 -4.75 2.4375 C-2.4375 0.5625 -2.4375 0.5625 0 0 Z " fill="#808080" transform="translate(63.4375,6.4375)"/>
<path d="M0 0 C0.66 0.33 1.32 0.66 2 1 C1.01 2.32 0.02 3.64 -1 5 C-0.01 5.99 0.98 6.98 2 8 C1.67 8.99 1.34 9.98 1 11 C0.401875 10.67 -0.19625 10.34 -0.8125 10 C-3.05386471 8.79212012 -3.05386471 8.79212012 -6 9 C-6.99 9.66 -7.98 10.32 -9 11 C-8.1875 9.0625 -8.1875 9.0625 -7 7 C-6.01 6.67 -5.02 6.34 -4 6 C-2.90833725 4.06669397 -2.90833725 4.06669397 -2 2 C-1.34 1.34 -0.68 0.68 0 0 Z " fill="#C5C5C5" transform="translate(12,3)"/>
<path d="M0 0 C3.6875 0.875 3.6875 0.875 7 2 C7 2.33 7 2.66 7 3 C2.126739 4.5912689 -1.80790596 5.21192221 -7 5 C-7.66 3.68 -8.32 2.36 -9 1 C-8.071875 1.20625 -7.14375 1.4125 -6.1875 1.625 C-2.84826598 2.36692966 -2.84826598 2.36692966 0 0 Z " fill="#727272" transform="translate(96,115)"/>
<path d="M0 0 C0.99 0.33 1.98 0.66 3 1 C3.33 1.99 3.66 2.98 4 4 C1.36 5.98 -1.28 7.96 -4 10 C-4.66 9.01 -5.32 8.02 -6 7 C-4.02 4.69 -2.04 2.38 0 0 Z " fill="#8E8E8E" transform="translate(14,110)"/>
<path d="M0 0 C0 3.66666667 0 7.33333333 0 11 C-2.475 10.01 -2.475 10.01 -5 9 C-5.25 6.1875 -5.25 6.1875 -5 3 C-1.9 0 -1.9 0 0 0 Z " fill="#888888" transform="translate(11,30)"/>
<path d="M0 0 C-2.97 3.96 -2.97 3.96 -6 8 C-6.99 7.67 -7.98 7.34 -9 7 C-9.33 6.01 -9.66 5.02 -10 4 C-4.5 -1.125 -4.5 -1.125 0 0 Z " fill="#5F5F5F" transform="translate(89,13)"/>
<path d="M0 0 C0.77897741 2.33693224 1.40410569 4.61642277 2 7 C2.33 7.99 2.66 8.98 3 10 C2.0625 13.1875 2.0625 13.1875 1 16 C0.67 16 0.34 16 0 16 C-1.57849109 11.16587103 -2.40435072 7.15547167 -2 2 C-1.34 1.34 -0.68 0.68 0 0 Z " fill="#6E6E6E" transform="translate(10,87)"/>
<path d="M0 0 C0.66 0.99 1.32 1.98 2 3 C1.34 4.32 0.68 5.64 0 7 C0.99 7.99 1.98 8.98 3 10 C2.67 10.66 2.34 11.32 2 12 C-3.57142857 6.85714286 -3.57142857 6.85714286 -4 3 C-2.68 2.01 -1.36 1.02 0 0 Z " fill="#121212" transform="translate(53,101)"/>
<path d="M0 0 C0.268125 0.5775 0.53625 1.155 0.8125 1.75 C1.93012871 4.06163244 1.93012871 4.06163244 3.6875 6 C5 8 5 8 4.6875 10.25 C4.460625 10.8275 4.23375 11.405 4 12 C0.99399656 10.25457865 0.11501734 9.42467941 -0.8125 6 C-1 3 -1 3 0 0 Z " fill="#4D4D4D" transform="translate(44,96)"/>
<path d="M0 0 C2.91517292 1.07401108 4.77810176 1.77810176 7 4 C7 4.99 7 5.98 7 7 C3.20411134 6.45773019 1.52788007 4.79872437 -1 2 C-0.67 1.34 -0.34 0.68 0 0 Z " fill="#8B8B8B" transform="translate(111,111)"/>
<path d="M0 0 C3.35250701 0.57575664 4.93818629 1.59306263 7.25 4.0625 C8.03117187 4.88427734 8.03117187 4.88427734 8.828125 5.72265625 C9.21484375 6.14417969 9.6015625 6.56570312 10 7 C9.67 7.99 9.34 8.98 9 10 C7.49702124 8.52386015 5.99768715 7.04400843 4.5 5.5625 C3.6646875 4.73878906 2.829375 3.91507812 1.96875 3.06640625 C0 1 0 1 0 0 Z " fill="#0A0A0A" transform="translate(93,66)"/>
<path d="M0 0 C-0.34879632 3.25543229 -1.02133261 4.01873107 -3.5625 6.25 C-4.366875 6.8275 -5.17125 7.405 -6 8 C-6.25 5.6875 -6.25 5.6875 -6 3 C-3.95575462 1.02389614 -2.8823175 0 0 0 Z " fill="#0D0D0D" transform="translate(116,97)"/>
<path d="M0 0 C1.2065625 0.0309375 1.2065625 0.0309375 2.4375 0.0625 C1.38875002 2.68437494 0.78818687 3.85621361 -1.6875 5.3125 C-2.30625 5.56 -2.925 5.8075 -3.5625 6.0625 C-3.605221 4.39638095 -3.60313832 2.72867115 -3.5625 1.0625 C-2.5625 0.0625 -2.5625 0.0625 0 0 Z " fill="#000000" transform="translate(28.5625,65.9375)"/>
<path d="M0 0 C1.0013988 3.00419641 1.51421457 5.87709365 2 9 C0.68 9 -0.64 9 -2 9 C-2.125 5.625 -2.125 5.625 -2 2 C-1.34 1.34 -0.68 0.68 0 0 Z " fill="#838383" transform="translate(10,59)"/>
<path d="M0 0 C1.65 1.32 3.3 2.64 5 4 C4.67 4.99 4.34 5.98 4 7 C0.83884224 5.63016497 0.0072908 5.0109362 -2 2 C-1.34 1.34 -0.68 0.68 0 0 Z " fill="#737373" transform="translate(14,12)"/>
<path d="M0 0 C2.46800047 1.15173355 4.04783565 2.04783565 6 4 C5.01 4.99 4.02 5.98 3 7 C1.68 5.68 0.36 4.36 -1 3 C-0.67 2.01 -0.34 1.02 0 0 Z " fill="#575757" transform="translate(43,14)"/>
<path d="M0 0 C2.5 1.75 2.5 1.75 5 4 C5 5.32 5 6.64 5 8 C1.125 6.125 1.125 6.125 0 5 C-0.04063832 3.33382885 -0.042721 1.66611905 0 0 Z " fill="#C7C7C7" transform="translate(123,65)"/>
<path d="M0 0 C1.32 1.32 2.64 2.64 4 4 C2.25 8.875 2.25 8.875 0 10 C-1.10807948 6.67576157 -0.76802174 5.32809422 0 2 C0 1.34 0 0.68 0 0 Z " fill="#838383" transform="translate(117,59)"/>
<path d="M0 0 C0.928125 0.33 1.85625 0.66 2.8125 1 C5.92029291 2.14967004 5.92029291 2.14967004 9 2 C8.814375 2.61875 8.62875 3.2375 8.4375 3.875 C7.76313824 6.04160178 7.76313824 6.04160178 9 8 C4.7257442 6.4169423 2.73468206 3.49431596 0 0 Z " fill="#0E0E0E" transform="translate(45,45)"/>
<path d="M0 0 C0.33 0.99 0.66 1.98 1 3 C-0.65 4.32 -2.3 5.64 -4 7 C-4.66 6.01 -5.32 5.02 -6 4 C-2.25 0 -2.25 0 0 0 Z " fill="#929292" transform="translate(118,9)"/>
<path d="M0 0 C1.32 1.32 2.64 2.64 4 4 C3.34 5.65 2.68 7.3 2 9 C0.25165733 6.377486 -0.51529754 5.00515522 -1 2 C-0.67 1.34 -0.34 0.68 0 0 Z " fill="#838383" transform="translate(117,31)"/>
<path d="M0 0 C0.66 0.66 1.32 1.32 2 2 C1.625 5.625 1.625 5.625 1 9 C0.01 9 -0.98 9 -2 9 C-2.33 8.01 -2.66 7.02 -3 6 C-2.34 5.34 -1.68 4.68 -1 4 C-0.3574765 1.93125966 -0.3574765 1.93125966 0 0 Z " fill="#525252" transform="translate(83,96)"/>
<path d="M0 0 C0 0.66 0 1.32 0 2 C-3.20380017 4.13586678 -4.01939967 4.23132175 -7.6875 4.125 C-8.89986328 4.09792969 -8.89986328 4.09792969 -10.13671875 4.0703125 C-11.05904297 4.03550781 -11.05904297 4.03550781 -12 4 C-12 3.67 -12 3.34 -12 3 C-10.906875 2.690625 -9.81375 2.38125 -8.6875 2.0625 C-1.52941176 0 -1.52941176 0 0 0 Z " fill="#7C7C7C" transform="translate(72,114)"/>
<path d="M0 0 C2.25 0.25 2.25 0.25 4 1 C2.25 3.0625 2.25 3.0625 0 5 C-2.25 4.75 -2.25 4.75 -4 4 C-2.25 1.9375 -2.25 1.9375 0 0 Z " fill="#080808" transform="translate(88,66)"/>
<path d="M0 0 C0.99 0.33 1.98 0.66 3 1 C1.25 4.875 1.25 4.875 -1 6 C-1.66 5.67 -2.32 5.34 -3 5 C-1.125 1.125 -1.125 1.125 0 0 Z " fill="#6A6A6A" transform="translate(29,11)"/>
<path d="M0 0 C1.32 0.99 2.64 1.98 4 3 C3.67 3.99 3.34 4.98 3 6 C1.68 5.34 0.36 4.68 -1 4 C-1 1 -1 1 0 0 Z " fill="#9F9F9F" transform="translate(10,8)"/>
<path d="M0 0 C2.375 0.25 2.375 0.25 5 1 C6.3125 3.0625 6.3125 3.0625 7 5 C4.11424181 4.60196439 3.17810487 4.20990931 1.25 1.9375 C0.8375 1.298125 0.425 0.65875 0 0 Z " fill="#C8C8C8" transform="translate(93,123)"/>
<path d="M0 0 C2.0625 0.4375 2.0625 0.4375 4 1 C2.1875 3 2.1875 3 0 5 C-0.99 5 -1.98 5 -3 5 C-1.125 1.125 -1.125 1.125 0 0 Z " fill="#C8C8C8" transform="translate(59,123)"/>
<path d="M0 0 C2.625 -0.1875 2.625 -0.1875 5 0 C5.33 0.99 5.66 1.98 6 3 C3.36 3 0.72 3 -2 3 C-1.34 2.01 -0.68 1.02 0 0 Z " fill="#9E9E9E" transform="translate(90,120)"/>
<path d="M0 0 C2 1 4 2 6 3 C5.67 4.32 5.34 5.64 5 7 C2.5 5.1875 2.5 5.1875 0 3 C0 2.01 0 1.02 0 0 Z " fill="#121212" transform="translate(12,97)"/>
<path d="M0 0 C1.33841672 0.31229724 2.67139075 0.64830932 4 1 C4.99 1 5.98 1 7 1 C4.03 3.475 4.03 3.475 1 6 C0.34 4.35 -0.32 2.7 -1 1 C-0.67 0.67 -0.34 0.34 0 0 Z " fill="#0C0C0C" transform="translate(75,46)"/>
<path d="M0 0 C2.31 0 4.62 0 7 0 C7 0.99 7 1.98 7 3 C5.02 3 3.04 3 1 3 C0.67 2.01 0.34 1.02 0 0 Z " fill="#939393" transform="translate(88,6)"/>
<path d="M0 0 C2.375 0.3125 2.375 0.3125 5 1 C5.66 1.99 6.32 2.98 7 4 C5.35 4 3.7 4 2 4 C1.34 2.68 0.68 1.36 0 0 Z " fill="#CCCCCC" transform="translate(55,0)"/>
<path d="M0 0 C1.98 0 3.96 0 6 0 C6.33 0.99 6.66 1.98 7 3 C4.69 3 2.38 3 0 3 C0 2.01 0 1.02 0 0 Z " fill="#969696" transform="translate(32,119)"/>
<path d="M0 0 C1.98 0.99 1.98 0.99 4 2 C4 3.65 4 5.3 4 7 C2 5.1875 2 5.1875 0 3 C0 2.01 0 1.02 0 0 Z " fill="#CCCCCC" transform="translate(0,84)"/>
<path d="M0 0 C0.66 0 1.32 0 2 0 C1.40312566 3.34249629 0.26396123 5.46436342 -2 8 C-2.66 8 -3.32 8 -4 8 C-2.66666667 5.33333333 -1.33333333 2.66666667 0 0 Z " fill="#636363" transform="translate(84,42)"/>
<path d="M0 0 C0 3.58534593 -1.02362045 5.07495826 -3 8 C-3.33 8 -3.66 8 -4 8 C-4.25 5.6875 -4.25 5.6875 -4 3 C-2 1.1875 -2 1.1875 0 0 Z " fill="#6F6F6F" transform="translate(15,26)"/>
<path d="M0 0 C2.475 0.495 2.475 0.495 5 1 C5 1.99 5 2.98 5 4 C4.01 4 3.02 4 2 4 C1.34 2.68 0.68 1.36 0 0 Z " fill="#6F6F6F" transform="translate(38,11)"/>
<path d="M0 0 C2.1875 0.3125 2.1875 0.3125 4 1 C2.68 2.32 1.36 3.64 0 5 C-0.99 4.34 -1.98 3.68 -3 3 C-1.75 1.4375 -1.75 1.4375 0 0 Z " fill="#CBCBCB" transform="translate(97,0)"/>
<path d="M0 0 C2.25 0.25 2.25 0.25 4 1 C2.8125 2.5 2.8125 2.5 1 4 C-1.6875 4.1875 -1.6875 4.1875 -4 4 C-2.25 1.9375 -2.25 1.9375 0 0 Z " fill="#CBCBCB" transform="translate(41,0)"/>
<path d="M0 0 C2.375 0.3125 2.375 0.3125 5 1 C5.66 1.99 6.32 2.98 7 4 C5.35 4 3.7 4 2 4 C1.34 2.68 0.68 1.36 0 0 Z " fill="#CCCCCC" transform="translate(27,0)"/>
<path d="M0 0 C1.65 0 3.3 0 5 0 C5.66 1.32 6.32 2.64 7 4 C3.73045798 3.43628586 2.17424117 2.50037734 0 0 Z " fill="#CBCBCB" transform="translate(65,124)"/>
<path d="M0 0 C0.99 0 1.98 0 3 0 C1.95125002 2.62187494 1.35068687 3.79371361 -1.125 5.25 C-1.74375 5.4975 -2.3625 5.745 -3 6 C-2 4 -1 2 0 0 Z " fill="#131313" transform="translate(100,110)"/>
<path d="M0 0 C-1.29299694 2.88437779 -2.65941363 4.87219421 -5 7 C-5 3 -5 3 -3.625 1.25 C-2 0 -2 0 0 0 Z " fill="#2E2E2E" transform="translate(77,108)"/>
<path d="M0 0 C0.33 0 0.66 0 1 0 C1 1.65 1 3.3 1 5 C-0.98 5.99 -0.98 5.99 -3 7 C-2.25 2.25 -2.25 2.25 0 0 Z " fill="#CECECE" transform="translate(3,94)"/>
<path d="M0 0 C0.66 0 1.32 0 2 0 C1.43628586 3.26954202 0.50037734 4.82575883 -2 7 C-2.125 4.625 -2.125 4.625 -2 2 C-1.34 1.34 -0.68 0.68 0 0 Z " fill="#CBCBCB" transform="translate(126,84)"/>
<path d="M0 0 C0.33 0 0.66 0 1 0 C1 1.65 1 3.3 1 5 C-0.98 5.99 -0.98 5.99 -3 7 C-2.25 2.25 -2.25 2.25 0 0 Z " fill="#CECECE" transform="translate(3,66)"/>
<path d="M0 0 C0.33 1.32 0.66 2.64 1 4 C-0.32 4.99 -1.64 5.98 -3 7 C-3.1875 4.625 -3.1875 4.625 -3 2 C-2.01 1.34 -1.02 0.68 0 0 Z " fill="#CDCDCD" transform="translate(127,27)"/>
<path d="M0 0 C2.375 0.3125 2.375 0.3125 5 1 C5.66 1.99 6.32 2.98 7 4 C5.35 4 3.7 4 2 4 C1.34 2.68 0.68 1.36 0 0 Z " fill="#CFCFCF" transform="translate(83,0)"/>
<path d="M0 0 C1.32 0.33 2.64 0.66 4 1 C3.01 2.485 3.01 2.485 2 4 C-0.625 4.1875 -0.625 4.1875 -3 4 C-2.01 2.68 -1.02 1.36 0 0 Z " fill="#CECECE" transform="translate(69,0)"/>
<path d="M0 0 C3.3 0 6.6 0 10 0 C10 0.33 10 0.66 10 1 C6.7 1 3.4 1 0 1 C0 0.67 0 0.34 0 0 Z " fill="#000000" transform="translate(59,19)"/>
<path d="M0 0 C2.64 0 5.28 0 8 0 C8 0.33 8 0.66 8 1 C5.36 1 2.72 1 0 1 C0 0.67 0 0.34 0 0 Z " fill="#000000" transform="translate(60,108)"/>
<path d="M0 0 C1 4 1 4 1 4 Z " fill="#000000" transform="translate(78,29)"/>
<path d="M0 0 C1 4 1 4 1 4 Z " fill="#000000" transform="translate(49,29)"/>
<path d="M0 0 C0.66 0.66 1.32 1.32 2 2 C1.34 2 0.68 2 0 2 C0 1.34 0 0.68 0 0 Z " fill="#000000" transform="translate(93,105)"/>
<path d="M0 0 C0.33 0.66 0.66 1.32 1 2 C0.34 1.67 -0.32 1.34 -1 1 C-0.67 0.67 -0.34 0.34 0 0 Z " fill="#000000" transform="translate(34,105)"/>
<path d="" fill="#000000" transform="translate(0,0)"/>
<path d="" fill="#000000" transform="translate(0,0)"/>
<path d="" fill="#000000" transform="translate(0,0)"/>
<path d="" fill="#000000" transform="translate(0,0)"/>
<path d="M0 0 C0.66 0 1.32 0 2 0 C1.67 0.66 1.34 1.32 1 2 C0.67 1.34 0.34 0.68 0 0 Z " fill="#000000" transform="translate(105,93)"/>
<path d="M0 0 C0.99 0.495 0.99 0.495 2 1 C1.01 1.495 1.01 1.495 0 2 C0 1.34 0 0.68 0 0 Z " fill="#000000" transform="translate(21,93)"/>
<path d="M0 0 C3 1 3 1 3 1 Z " fill="#000000" transform="translate(99,91)"/>
<path d="M0 0 C3 1 3 1 3 1 Z " fill="#000000" transform="translate(26,91)"/>
<path d="M0 0 C3 1 3 1 3 1 Z " fill="#000000" transform="translate(67,48)"/>
<path d="M0 0 C3 1 3 1 3 1 Z " fill="#000000" transform="translate(58,48)"/>
<path d="" fill="#000000" transform="translate(0,0)"/>
<path d="" fill="#000000" transform="translate(0,0)"/>
<path d="M0 0 C2 1 2 1 2 1 Z " fill="#000000" transform="translate(104,116)"/>
<path d="M0 0 C2 1 2 1 2 1 Z " fill="#000000" transform="translate(22,116)"/>
<path d="M0 0 C2 1 2 1 2 1 Z " fill="#000000" transform="translate(92,115)"/>
<path d="M0 0 C2 1 2 1 2 1 Z " fill="#000000" transform="translate(34,115)"/>
<path d="M0 0 C2 1 2 1 2 1 Z " fill="#000000" transform="translate(108,114)"/>
<path d="M0 0 C2 1 2 1 2 1 Z " fill="#000000" transform="translate(18,114)"/>
<path d="" fill="#000000" transform="translate(0,0)"/>
<path d="" fill="#000000" transform="translate(0,0)"/>
<path d="" fill="#000000" transform="translate(0,0)"/>
<path d="" fill="#000000" transform="translate(0,0)"/>
<path d="M0 0 C2 1 2 1 2 1 Z " fill="#000000" transform="translate(68,107)"/>
<path d="M0 0 C2 1 2 1 2 1 Z " fill="#000000" transform="translate(58,107)"/>
<path d="" fill="#000000" transform="translate(0,0)"/>
<path d="" fill="#000000" transform="translate(0,0)"/>
<path d="" fill="#000000" transform="translate(0,0)"/>
<path d="" fill="#000000" transform="translate(0,0)"/>
<path d="" fill="#000000" transform="translate(0,0)"/>
<path d="" fill="#000000" transform="translate(0,0)"/>
<path d="" fill="#000000" transform="translate(0,0)"/>
<path d="" fill="#000000" transform="translate(0,0)"/>
<path d="" fill="#000000" transform="translate(0,0)"/>
<path d="" fill="#000000" transform="translate(0,0)"/>
<path d="" fill="#000000" transform="translate(0,0)"/>
<path d="" fill="#000000" transform="translate(0,0)"/>
<path d="" fill="#000000" transform="translate(0,0)"/>
<path d="M0 0 C2 1 2 1 2 1 Z " fill="#000000" transform="translate(103,92)"/>
<path d="" fill="#000000" transform="translate(0,0)"/>
<path d="M0 0 C2 1 2 1 2 1 Z " fill="#000000" transform="translate(67,92)"/>
<path d="" fill="#000000" transform="translate(0,0)"/>
<path d="M0 0 C2 1 2 1 2 1 Z " fill="#000000" transform="translate(23,92)"/>
<path d="M0 0 C2 1 2 1 2 1 Z " fill="#000000" transform="translate(110,87)"/>
<path d="M0 0 C2 1 2 1 2 1 Z " fill="#000000" transform="translate(16,87)"/>
<path d="M0 0 C2 1 2 1 2 1 Z " fill="#000000" transform="translate(105,84)"/>
<path d="M0 0 C2 1 2 1 2 1 Z " fill="#000000" transform="translate(93,84)"/>
<path d="M0 0 C2 1 2 1 2 1 Z " fill="#000000" transform="translate(33,84)"/>
<path d="M0 0 C2 1 2 1 2 1 Z " fill="#000000" transform="translate(21,84)"/>
<path d="M0 0 C2 1 2 1 2 1 Z " fill="#000000" transform="translate(70,47)"/>
<path d="M0 0 C2 1 2 1 2 1 Z " fill="#000000" transform="translate(56,47)"/>
<path d="" fill="#000000" transform="translate(0,0)"/>
<path d="" fill="#000000" transform="translate(0,0)"/>
<path d="" fill="#000000" transform="translate(0,0)"/>
<path d="" fill="#000000" transform="translate(0,0)"/>
<path d="" fill="#000000" transform="translate(0,0)"/>
<path d="" fill="#000000" transform="translate(0,0)"/>
<path d="" fill="#000000" transform="translate(0,0)"/>
<path d="" fill="#000000" transform="translate(0,0)"/>
<path d="M0 0 C2 1 2 1 2 1 Z " fill="#000000" transform="translate(69,20)"/>
<path d="M0 0 C2 1 2 1 2 1 Z " fill="#000000" transform="translate(57,20)"/>
<path d="M0 0 C2 1 2 1 2 1 Z " fill="#000000" transform="translate(72,12)"/>
<path d="M0 0 C2 1 2 1 2 1 Z " fill="#000000" transform="translate(54,12)"/>
<path d="" fill="#000000" transform="translate(0,0)"/>
<path d="" fill="#000000" transform="translate(0,0)"/>
<path d="" fill="#000000" transform="translate(0,0)"/>
<path d="" fill="#000000" transform="translate(0,0)"/>
<path d="" fill="#000000" transform="translate(0,0)"/>
<path d="" fill="#000000" transform="translate(0,0)"/>
<path d="" fill="#000000" transform="translate(0,0)"/>
<path d="" fill="#000000" transform="translate(0,0)"/>
<path d="" fill="#000000" transform="translate(0,0)"/>
<path d="" fill="#000000" transform="translate(0,0)"/>
<path d="" fill="#000000" transform="translate(0,0)"/>
<path d="" fill="#000000" transform="translate(0,0)"/>
<path d="" fill="#000000" transform="translate(0,0)"/>
<path d="" fill="#000000" transform="translate(0,0)"/>
<path d="" fill="#000000" transform="translate(0,0)"/>
<path d="" fill="#000000" transform="translate(0,0)"/>
<path d="" fill="#000000" transform="translate(0,0)"/>
<path d="" fill="#000000" transform="translate(0,0)"/>
<path d="" fill="#000000" transform="translate(0,0)"/>
<path d="" fill="#000000" transform="translate(0,0)"/>
<path d="" fill="#000000" transform="translate(0,0)"/>
<path d="" fill="#000000" transform="translate(0,0)"/>
<path d="" fill="#000000" transform="translate(0,0)"/>
<path d="" fill="#000000" transform="translate(0,0)"/>
<path d="" fill="#000000" transform="translate(0,0)"/>
<path d="" fill="#000000" transform="translate(0,0)"/>
<path d="" fill="#000000" transform="translate(0,0)"/>
<path d="" fill="#000000" transform="translate(0,0)"/>
<path d="" fill="#000000" transform="translate(0,0)"/>
<path d="" fill="#000000" transform="translate(0,0)"/>
<path d="" fill="#000000" transform="translate(0,0)"/>
<path d="" fill="#000000" transform="translate(0,0)"/>
<path d="" fill="#000000" transform="translate(0,0)"/>
<path d="" fill="#000000" transform="translate(0,0)"/>
<path d="" fill="#000000" transform="translate(0,0)"/>
<path d="" fill="#000000" transform="translate(0,0)"/>
<path d="" fill="#000000" transform="translate(0,0)"/>
<path d="" fill="#000000" transform="translate(0,0)"/>
<path d="" fill="#000000" transform="translate(0,0)"/>
<path d="" fill="#000000" transform="translate(0,0)"/>
<path d="" fill="#000000" transform="translate(0,0)"/>
<path d="" fill="#000000" transform="translate(0,0)"/>
<path d="" fill="#000000" transform="translate(0,0)"/>
<path d="" fill="#000000" transform="translate(0,0)"/>
<path d="" fill="#000000" transform="translate(0,0)"/>
<path d="" fill="#000000" transform="translate(0,0)"/>
<path d="" fill="#000000" transform="translate(0,0)"/>
<path d="" fill="#000000" transform="translate(0,0)"/>
<path d="" fill="#000000" transform="translate(0,0)"/>
<path d="" fill="#000000" transform="translate(0,0)"/>
<path d="" fill="#000000" transform="translate(0,0)"/>
<path d="" fill="#000000" transform="translate(0,0)"/>
<path d="" fill="#000000" transform="translate(0,0)"/>
<path d="" fill="#000000" transform="translate(0,0)"/>
<path d="" fill="#000000" transform="translate(0,0)"/>
<path d="" fill="#000000" transform="translate(0,0)"/>
<path d="" fill="#000000" transform="translate(0,0)"/>
<path d="" fill="#000000" transform="translate(0,0)"/>
<path d="" fill="#000000" transform="translate(0,0)"/>
<path d="" fill="#000000" transform="translate(0,0)"/>
<path d="" fill="#000000" transform="translate(0,0)"/>
<path d="" fill="#000000" transform="translate(0,0)"/>
<path d="" fill="#000000" transform="translate(0,0)"/>
<path d="" fill="#000000" transform="translate(0,0)"/>
<path d="" fill="#000000" transform="translate(0,0)"/>
<path d="" fill="#000000" transform="translate(0,0)"/>
<path d="" fill="#000000" transform="translate(0,0)"/>
<path d="" fill="#000000" transform="translate(0,0)"/>
<path d="" fill="#000000" transform="translate(0,0)"/>
<path d="" fill="#000000" transform="translate(0,0)"/>
<path d="" fill="#000000" transform="translate(0,0)"/>
<path d="" fill="#000000" transform="translate(0,0)"/>
<path d="" fill="#000000" transform="translate(0,0)"/>
<path d="" fill="#000000" transform="translate(0,0)"/>
<path d="" fill="#000000" transform="translate(0,0)"/>
<path d="" fill="#000000" transform="translate(0,0)"/>
<path d="" fill="#000000" transform="translate(0,0)"/>
<path d="" fill="#000000" transform="translate(0,0)"/>
<path d="" fill="#000000" transform="translate(0,0)"/>
<path d="" fill="#000000" transform="translate(0,0)"/>
<path d="" fill="#000000" transform="translate(0,0)"/>
<path d="" fill="#000000" transform="translate(0,0)"/>
<path d="" fill="#000000" transform="translate(0,0)"/>
</svg>
