<svg width="15" height="15" viewBox="0 0 15 15" fill="none" xmlns="http://www.w3.org/2000/svg">
<path d="M11.7948 2.02362H9.9573V1.40762C9.9573 1.31479 9.92042 1.22577 9.85478 1.16013C9.78915 1.09449 9.70012 1.05762 9.6073 1.05762C9.51447 1.05762 9.42545 1.09449 9.35981 1.16013C9.29417 1.22577 9.2573 1.31479 9.2573 1.40762V2.02362H5.4948V1.40762C5.4948 1.31479 5.45792 1.22577 5.39228 1.16013C5.32665 1.09449 5.23762 1.05762 5.1448 1.05762C5.05197 1.05762 4.96295 1.09449 4.89731 1.16013C4.83167 1.22577 4.7948 1.31479 4.7948 1.40762V2.02362H3.0168C2.73832 2.02362 2.47125 2.13424 2.27433 2.33116C2.07742 2.52807 1.9668 2.79514 1.9668 3.07362V11.8516C1.9668 12.1301 2.07742 12.3972 2.27433 12.5941C2.47125 12.791 2.73832 12.9016 3.0168 12.9016H11.7948C12.0733 12.9016 12.3403 12.791 12.5373 12.5941C12.7342 12.3972 12.8448 12.1301 12.8448 11.8516V3.07362C12.8448 2.79514 12.7342 2.52807 12.5373 2.33116C12.3403 2.13424 12.0733 2.02362 11.7948 2.02362ZM3.0168 2.72362H4.7948V3.77362C4.7948 3.86644 4.83167 3.95547 4.89731 4.0211C4.96295 4.08674 5.05197 4.12362 5.1448 4.12362C5.23762 4.12362 5.32665 4.08674 5.39228 4.0211C5.45792 3.95547 5.4948 3.86644 5.4948 3.77362V2.72362H9.2573V3.77362C9.2573 3.86644 9.29417 3.95547 9.35981 4.0211C9.42545 4.08674 9.51447 4.12362 9.6073 4.12362C9.70012 4.12362 9.78915 4.08674 9.85478 4.0211C9.92042 3.95547 9.9573 3.86644 9.9573 3.77362V2.72362H11.7983C11.8911 2.72362 11.9801 2.76049 12.0458 2.82613C12.1114 2.89177 12.1483 2.98079 12.1483 3.07362V5.52362H2.6668V3.07362C2.6668 2.98079 2.70367 2.89177 2.76931 2.82613C2.83495 2.76049 2.92397 2.72362 3.0168 2.72362ZM11.7948 12.2016H3.0168C2.92397 12.2016 2.83495 12.1647 2.76931 12.0991C2.70367 12.0335 2.6668 11.9444 2.6668 11.8516V6.21312H12.1448V11.8516C12.1448 11.9444 12.1079 12.0335 12.0423 12.0991C11.9766 12.1647 11.8876 12.2016 11.7948 12.2016Z" fill="#2F3337"/>
</svg>
