<svg width="30" height="30" viewBox="0 0 30 30" fill="none" xmlns="http://www.w3.org/2000/svg">
<path d="M14.2812 13.5507H5.65625C4.46722 13.5507 3.5 14.5179 3.5 15.707V24.332C3.5 25.521 4.46722 26.4882 5.65625 26.4882H14.2812C15.4703 26.4882 16.4375 25.521 16.4375 24.332V15.707C16.4375 14.5179 15.4703 13.5507 14.2812 13.5507ZM15 24.332C15 24.7282 14.6778 25.0507 14.2812 25.0507H5.65625C5.25967 25.0507 4.9375 24.7282 4.9375 24.332V15.707C4.9375 15.3107 5.25967 14.9882 5.65625 14.9882H14.2812C14.6778 14.9882 15 15.3107 15 15.707V24.332Z" fill="#083160"/>
<path d="M12.3356 16.6363C12.3341 16.6378 11.4062 17.5656 11.4062 17.5656L11.1957 17.355C10.5387 16.6981 9.52598 17.7181 10.1793 18.3714C10.1806 18.3726 10.8981 19.0901 10.8981 19.0901C11.1658 19.3582 11.6413 19.3633 11.9144 19.0901L13.3519 17.6526C14.0082 16.9964 12.9899 15.9819 12.3356 16.6363Z" fill="#083160"/>
<path d="M24.3438 4.92572H22.1875V4.20697C22.1875 3.27717 20.75 3.29129 20.75 4.20697C20.75 4.2093 20.75 4.51568 20.75 4.92572H15.7188C15.7188 4.51415 15.7188 4.20697 15.7188 4.20697C15.7188 3.27744 14.2812 3.28283 14.2812 4.20697C14.2812 4.21004 14.2812 4.51612 14.2812 4.92572H9.25V4.20697C9.25 3.27665 7.8125 3.30735 7.8125 4.20697C7.8125 4.20895 7.8125 4.51542 7.8125 4.92572H5.65625C4.46722 4.92572 3.5 5.89295 3.5 7.08197V12.1132C3.5 13.0506 4.9375 13.025 4.9375 12.1132C4.9375 12.1069 4.9375 11.4805 4.9375 10.6757H25.0625V22.8945C25.0625 23.2907 24.7403 23.6132 24.3438 23.6132H18.5938C17.665 23.6132 17.6678 25.0507 18.5938 25.0507C18.6102 25.0507 24.3438 25.0507 24.3438 25.0507C25.5328 25.0507 26.5 24.0835 26.5 22.8945V7.08197C26.5 5.89295 25.5328 4.92572 24.3438 4.92572ZM4.9375 9.23822C4.9375 8.11123 4.9375 7.08197 4.9375 7.08197C4.9375 6.68575 5.25967 6.36322 5.65625 6.36322H7.8125C7.8125 6.77322 7.8125 7.07952 7.8125 7.08193C7.8125 8.00028 9.25 8.01257 9.25 7.08197V6.36322H14.2812C14.2812 6.7734 14.2812 7.07982 14.2812 7.08193C14.2812 7.98883 15.7188 7.99221 15.7188 7.08193C15.7188 7.07947 15.7188 6.77322 15.7188 6.36322H20.75C20.75 6.77305 20.75 7.0793 20.75 7.08193C20.75 7.99976 22.1875 8.01244 22.1875 7.08197V6.36322H24.3438C24.7403 6.36322 25.0625 6.68575 25.0625 7.08197V9.23822H4.9375ZM11.6168 20.9488C11.6168 20.9488 11.5309 21.0347 11.4062 21.1594C11.2811 21.0342 11.1957 20.9488 11.1957 20.9488C10.539 20.292 9.52708 21.3129 10.1793 21.9651C10.1793 21.9651 10.2652 22.051 10.3899 22.1757C10.2649 22.3007 10.1793 22.3863 10.1793 22.3863C9.54294 23.0227 10.547 24.0514 11.1957 23.4026L11.4062 23.1921C11.5314 23.3172 11.6168 23.4026 11.6168 23.4026C12.2753 24.0612 13.2741 23.0272 12.6332 22.3863C12.6332 22.3863 12.5473 22.3004 12.4226 22.1757L12.6332 21.9651C13.2893 21.309 12.2713 20.2943 11.6168 20.9488ZM7.09375 18.582H7.8125C8.74178 18.582 8.73112 17.1445 7.8125 17.1445H7.09375C6.16482 17.1445 6.16978 18.582 7.09375 18.582ZM7.8125 21.457H7.09375C6.16544 21.457 6.16886 22.8945 7.09375 22.8945H7.8125C8.74112 22.8945 8.73489 21.457 7.8125 21.457Z" fill="#083160"/>
<path d="M20.0312 16.4257H22.9062C23.3035 16.4257 23.625 16.1039 23.625 15.707V12.832C23.625 12.435 23.3035 12.1132 22.9062 12.1132H20.0312C19.634 12.1132 19.3125 12.435 19.3125 12.832V15.707C19.3125 16.1039 19.634 16.4257 20.0312 16.4257ZM20.75 13.5507H22.1875V14.9882H20.75V13.5507ZM19.3125 21.457C19.3125 21.8539 19.634 22.1757 20.0312 22.1757H22.9062C23.3035 22.1757 23.625 21.8539 23.625 21.457V18.582C23.625 18.185 23.3035 17.8632 22.9062 17.8632H20.0312C19.634 17.8632 19.3125 18.185 19.3125 18.582V21.457ZM20.75 19.3007H22.1875V20.7382H20.75V19.3007Z" fill="#083160"/>
</svg>
