<svg width="36" height="36" viewBox="0 0 36 36" fill="none" xmlns="http://www.w3.org/2000/svg">
<path d="M18 11.25C16.4425 11.25 14.9199 11.7119 13.6249 12.5772C12.3298 13.4425 11.3205 14.6724 10.7244 16.1114C10.1284 17.5503 9.97246 19.1337 10.2763 20.6613C10.5802 22.1889 11.3302 23.5921 12.4315 24.6935C13.5329 25.7948 14.9361 26.5448 16.4637 26.8487C17.9913 27.1525 19.5747 26.9966 21.0136 26.4006C22.4526 25.8045 23.6825 24.7952 24.5478 23.5001C25.4131 22.2051 25.875 20.6825 25.875 19.125C25.875 17.0364 25.0453 15.0334 23.5685 13.5565C22.0916 12.0797 20.0886 11.25 18 11.25ZM18 24.75C16.8875 24.75 15.7999 24.4201 14.8749 23.802C13.9499 23.1839 13.2289 22.3054 12.8032 21.2776C12.3774 20.2498 12.266 19.1188 12.4831 18.0276C12.7001 16.9365 13.2359 15.9342 14.0225 15.1475C14.8092 14.3609 15.8115 13.8251 16.9026 13.6081C17.9938 13.391 19.1248 13.5024 20.1526 13.9282C21.1804 14.3539 22.0589 15.0749 22.677 15.9999C23.2951 16.9249 23.625 18.0125 23.625 19.125C23.625 20.6168 23.0324 22.0476 21.9775 23.1025C20.9226 24.1574 19.4918 24.75 18 24.75Z" fill="white"/>
<path d="M28.125 15.75C28.7463 15.75 29.25 15.2463 29.25 14.625C29.25 14.0037 28.7463 13.5 28.125 13.5C27.5037 13.5 27 14.0037 27 14.625C27 15.2463 27.5037 15.75 28.125 15.75Z" fill="white"/>
<path d="M28.125 9H27.27C27.0603 9.00146 26.8544 8.9443 26.6755 8.83497C26.4966 8.72564 26.3518 8.56849 26.2575 8.38125L25.875 7.605C25.4074 6.67185 24.6894 5.8872 23.8013 5.33884C22.9132 4.79048 21.89 4.50004 20.8463 4.5H15.1538C14.11 4.50004 13.0868 4.79048 12.1987 5.33884C11.3106 5.8872 10.5926 6.67185 10.125 7.605L9.7425 8.38125C9.64816 8.56849 9.50336 8.72564 9.32446 8.83497C9.14556 8.9443 8.93966 9.00146 8.73 9H7.875C6.38316 9 4.95242 9.59263 3.89752 10.6475C2.84263 11.7024 2.25 13.1332 2.25 14.625V25.875C2.25 27.3668 2.84263 28.7976 3.89752 29.8525C4.95242 30.9074 6.38316 31.5 7.875 31.5H28.125C29.6168 31.5 31.0476 30.9074 32.1025 29.8525C33.1574 28.7976 33.75 27.3668 33.75 25.875V14.625C33.75 13.1332 33.1574 11.7024 32.1025 10.6475C31.0476 9.59263 29.6168 9 28.125 9ZM31.5 25.875C31.5 26.7701 31.1444 27.6286 30.5115 28.2615C29.8786 28.8944 29.0201 29.25 28.125 29.25H7.875C6.97989 29.25 6.12145 28.8944 5.48851 28.2615C4.85558 27.6286 4.5 26.7701 4.5 25.875V14.625C4.5 13.7299 4.85558 12.8714 5.48851 12.2385C6.12145 11.6056 6.97989 11.25 7.875 11.25H8.73C9.35826 11.2512 9.97438 11.0771 10.509 10.7472C11.0437 10.4172 11.4756 9.9446 11.7562 9.3825L12.1388 8.6175C12.4185 8.05711 12.8487 7.58562 13.3812 7.25581C13.9137 6.92599 14.5274 6.75086 15.1538 6.75H20.8463C21.4726 6.75086 22.0863 6.92599 22.6188 7.25581C23.1513 7.58562 23.5815 8.05711 23.8612 8.6175L24.2437 9.3825C24.5244 9.9446 24.9563 10.4172 25.491 10.7472C26.0256 11.0771 26.6417 11.2512 27.27 11.25H28.125C29.0201 11.25 29.8786 11.6056 30.5115 12.2385C31.1444 12.8714 31.5 13.7299 31.5 14.625V25.875Z" fill="white"/>
</svg>
