<svg width="12" height="12" viewBox="0 0 12 12" fill="none" xmlns="http://www.w3.org/2000/svg">
<path d="M10.7287 3.00029V9.00146C10.7287 9.01318 10.7275 9.02373 10.7275 9.03428C10.7193 9.06357 10.7275 9.04482 10.7275 9.03428C10.7252 9.04365 10.7229 9.0542 10.7205 9.06474C10.7182 9.07529 10.7146 9.08467 10.7111 9.09404C10.7006 9.12803 10.7252 9.07529 10.7041 9.1081C10.6936 9.12568 10.6842 9.14326 10.6725 9.15967C10.6936 9.13037 10.6572 9.1749 10.6502 9.18076C10.6432 9.18779 10.635 9.19482 10.6279 9.20068C10.6338 9.19599 10.6549 9.18428 10.6268 9.20068C10.6186 9.20537 10.6104 9.21123 10.601 9.21709C10.5975 9.21943 10.56 9.23818 10.5811 9.22881C10.601 9.21943 10.5717 9.23232 10.5658 9.23349C10.5529 9.23701 10.5412 9.24053 10.5283 9.24404C10.5225 9.24639 10.4943 9.2499 10.5283 9.24521C10.5178 9.24639 10.5072 9.24756 10.4967 9.24756H10.4791C10.3525 9.2499 10.2248 9.24756 10.0971 9.24756H1.51543C1.49902 9.24756 1.48262 9.24639 1.46738 9.24521C1.50371 9.2499 1.44863 9.23935 1.43809 9.23584C1.42871 9.23232 1.41816 9.22998 1.40879 9.22529C1.44395 9.23935 1.40059 9.21943 1.3959 9.21709C1.38535 9.21123 1.34316 9.17959 1.36895 9.20185C1.35371 9.18896 1.33965 9.17373 1.32559 9.15967C1.3209 9.15498 1.30566 9.13388 1.32441 9.15967C1.31855 9.15146 1.3127 9.14326 1.30801 9.13506C1.30215 9.12685 1.29863 9.11748 1.29277 9.10928C1.27051 9.07412 1.29863 9.13623 1.28574 9.09521C1.27988 9.07529 1.27402 9.05537 1.26934 9.03545C1.27754 9.0706 1.26816 9.01435 1.26816 9.00264V3.00146C1.26816 2.98857 1.26816 2.97685 1.26934 2.96396C1.26699 2.98974 1.27051 2.96045 1.27168 2.95693C1.2752 2.94521 1.27754 2.93349 1.28105 2.92178C1.29277 2.87139 1.27402 2.93232 1.28574 2.90654C1.29043 2.89599 1.29629 2.88545 1.30215 2.87607C1.30449 2.87256 1.32324 2.84209 1.3127 2.85732C1.30215 2.87256 1.32324 2.84443 1.32676 2.84092C1.33613 2.83037 1.34668 2.81982 1.35723 2.81045H1.10879C1.26465 2.93935 1.42168 3.06943 1.57754 3.19834C1.95137 3.50771 2.3252 3.81592 2.69902 4.12529C3.14668 4.4956 3.59551 4.86592 4.04316 5.23623C4.42285 5.55029 4.80254 5.86318 5.18106 6.17724C5.34863 6.31553 5.51504 6.45615 5.68379 6.59326C5.87012 6.74443 6.10918 6.77842 6.32598 6.6706C6.37754 6.64482 6.4209 6.60732 6.46426 6.57099C6.53926 6.50771 6.61426 6.44326 6.68926 6.37998C7.0127 6.10459 7.3373 5.82803 7.66074 5.55264C8.09785 5.17998 8.53496 4.80849 8.97324 4.43584C9.37637 4.09248 9.77949 3.74912 10.1838 3.40576C10.4064 3.21592 10.6291 3.02724 10.8506 2.8374C10.8611 2.82803 10.8717 2.81982 10.8822 2.81045H10.6338C10.6502 2.82568 10.6678 2.84209 10.6818 2.86084C10.6701 2.8456 10.6807 2.86084 10.6842 2.86787C10.6912 2.88076 10.6994 2.89365 10.7053 2.90654C10.717 2.93232 10.6994 2.88662 10.7076 2.91357C10.7111 2.92529 10.7146 2.93584 10.717 2.94756C10.7182 2.95107 10.724 2.98271 10.7217 2.96865C10.7264 2.95224 10.7287 3.00146 10.7287 3.00029C10.7311 3.0917 10.8084 3.18076 10.9045 3.17607C10.9982 3.17139 11.0826 3.09873 11.0803 3.00029C11.0768 2.83271 11.0111 2.67568 10.8881 2.56084C10.8143 2.49287 10.7146 2.49756 10.6396 2.56084C10.485 2.69326 10.3291 2.82451 10.1744 2.95693C9.80527 3.27099 9.43613 3.58623 9.06699 3.90029C8.62871 4.27295 8.19043 4.64678 7.75215 5.01943C7.38652 5.33115 7.01973 5.64287 6.6541 5.95459C6.54277 6.04951 6.43027 6.14443 6.31895 6.23935C6.28848 6.26514 6.25918 6.28975 6.22871 6.31553C6.22168 6.32139 6.21348 6.32842 6.20645 6.33428C6.1877 6.34951 6.22754 6.32373 6.19238 6.34482C6.18184 6.35068 6.17246 6.35654 6.16191 6.3624C6.11738 6.38818 6.17598 6.35889 6.14785 6.36826C6.13379 6.37295 6.1209 6.37646 6.10684 6.37998C6.10098 6.38232 6.07285 6.38467 6.10332 6.38115C6.0916 6.38232 6.08106 6.38232 6.06934 6.38232C6.07168 6.38232 6.0166 6.37998 6.04238 6.38232C6.06699 6.38467 6.01426 6.37646 6.01543 6.37646C6.01191 6.37529 5.9709 6.3624 5.9873 6.36943C6.0084 6.37764 5.95801 6.3542 5.96152 6.35654C5.95098 6.35068 5.9416 6.34482 5.93106 6.33779C5.93574 6.34131 5.94043 6.34599 5.93809 6.34365L5.93457 6.34014C5.91582 6.32607 5.89824 6.30967 5.87949 6.29443C5.78691 6.21826 5.69551 6.14209 5.60293 6.06592C5.26074 5.78349 4.91855 5.4999 4.57637 5.21748C4.1334 4.85185 3.6916 4.48623 3.24863 4.1206C2.84785 3.78896 2.44707 3.45849 2.04629 3.12685C1.82715 2.94639 1.60918 2.76592 1.39004 2.58428C1.37949 2.57607 1.37012 2.56787 1.35957 2.55849C1.28457 2.49639 1.18613 2.48818 1.11113 2.55849C0.966992 2.69209 0.918945 2.87139 0.918945 3.06006V8.95693C0.918945 9.1749 1.00332 9.37178 1.1873 9.49834C1.36543 9.61904 1.57988 9.59795 1.78379 9.59795H10.4814C10.8154 9.59326 11.0768 9.32373 11.0791 8.99092C11.0803 8.78467 11.0791 8.57724 11.0791 8.37099V3.00029C11.0791 2.90889 10.9982 2.81982 10.9033 2.82451C10.8096 2.82803 10.7287 2.90185 10.7287 3.00029Z" fill="#2F3337"/>
<path d="M10.6395 2.56029C10.4848 2.69271 10.329 2.82396 10.1743 2.95638C9.80513 3.27044 9.43599 3.58568 9.06685 3.89974C8.62857 4.2724 8.19028 4.64622 7.752 5.01888C7.38638 5.3306 7.01958 5.64232 6.65396 5.95404C6.54263 6.04896 6.43013 6.14388 6.3188 6.2388C6.28833 6.26458 6.25903 6.28919 6.22857 6.31497C6.22153 6.32083 6.21333 6.32786 6.2063 6.33372C6.18755 6.34896 6.22739 6.32318 6.19224 6.34427C6.18169 6.35013 6.17232 6.35599 6.16177 6.36185C6.11724 6.38763 6.17583 6.35833 6.14771 6.36771C6.13364 6.3724 6.12075 6.37591 6.10669 6.37943C6.10083 6.38177 6.07271 6.38411 6.10318 6.3806C6.09146 6.38177 6.08091 6.38177 6.06919 6.38177C6.07154 6.38177 6.01646 6.37943 6.04224 6.38177C6.06685 6.38411 6.01411 6.37591 6.01528 6.37591C6.01177 6.37474 5.97075 6.36185 5.98716 6.36888C6.00825 6.37708 5.95786 6.35365 5.96138 6.35599C5.95083 6.35013 5.94146 6.34427 5.93091 6.33724C5.9356 6.34075 5.94028 6.34544 5.93794 6.3431L5.93443 6.33958C5.91568 6.32552 5.8981 6.30911 5.87935 6.29388C5.78677 6.21771 5.69536 6.14154 5.60278 6.06536C5.2606 5.78294 4.91841 5.49935 4.57622 5.21693C4.13325 4.8513 3.69146 4.48568 3.24849 4.12005C2.84771 3.78841 2.44692 3.45794 2.04614 3.1263C1.827 2.94583 1.60903 2.76536 1.38989 2.58372C1.37935 2.57552 1.36997 2.56732 1.35942 2.55794V2.80638C1.36294 2.80404 1.38521 2.78763 1.36528 2.80169C1.37232 2.79701 1.38052 2.79232 1.38755 2.78763C1.39458 2.78411 1.44263 2.76185 1.41802 2.77122C1.43794 2.76419 1.45786 2.75833 1.47896 2.75365C1.49888 2.74896 1.48247 2.75247 1.47778 2.75365C1.49067 2.75247 1.50239 2.75247 1.51528 2.75247H10.1672C10.2704 2.75247 10.3747 2.7513 10.4778 2.75247H10.4813C10.4883 2.75247 10.5329 2.75716 10.5094 2.75247C10.5305 2.75599 10.5504 2.76185 10.5704 2.76888C10.5985 2.77826 10.5516 2.75833 10.5786 2.77122C10.5868 2.77474 10.595 2.77943 10.602 2.78411C10.6126 2.78997 10.6219 2.79583 10.6325 2.80286C10.6266 2.79935 10.6114 2.78411 10.6383 2.80755C10.711 2.86966 10.8165 2.87786 10.8868 2.80755C10.9501 2.74427 10.9594 2.62122 10.8868 2.55911C10.7614 2.45247 10.6161 2.40091 10.4532 2.40091H1.80708C1.71099 2.40091 1.61372 2.39974 1.51763 2.40091C1.36294 2.40326 1.22817 2.45951 1.11099 2.55911C1.04302 2.61654 1.04185 2.75013 1.11099 2.80755C1.26685 2.93646 1.42388 3.06654 1.57974 3.19544C1.95357 3.50482 2.32739 3.81302 2.70122 4.1224C3.14888 4.49271 3.59771 4.86302 4.04536 5.23333C4.42505 5.5474 4.80474 5.86029 5.18325 6.17435C5.35083 6.31263 5.51724 6.45326 5.68599 6.59036C5.87232 6.74154 6.11138 6.77552 6.32818 6.66771C6.37974 6.64193 6.4231 6.60443 6.46646 6.5681C6.54146 6.50482 6.61646 6.44036 6.69146 6.37708C7.01489 6.10169 7.3395 5.82513 7.66294 5.54974C8.10005 5.17708 8.53716 4.8056 8.97544 4.43294C9.37857 4.08958 9.78169 3.74622 10.186 3.40286C10.4086 3.21302 10.6313 3.02435 10.8528 2.83451C10.8633 2.82513 10.8739 2.81693 10.8844 2.80755C10.9571 2.74544 10.9477 2.6224 10.8844 2.55911C10.8165 2.4888 10.7122 2.49818 10.6395 2.56029Z" fill="#2F3337"/>
</svg>
