<svg width="30" height="30" viewBox="0 0 30 30" fill="none" xmlns="http://www.w3.org/2000/svg">
<path d="M9.73178 6.51087L9.73178 6.51089L9.73357 6.51131C10.0863 6.59396 10.4112 6.37286 10.4929 6.04504C10.5789 5.74033 10.7502 5.47977 10.9856 5.28418C11.22 5.08945 11.4947 4.98239 11.8129 4.98239H23.7176C24.0985 4.98239 24.4394 5.15454 24.6746 5.39345C24.9313 5.6541 25.08 6.00051 25.08 6.36753V16.137C25.08 16.5253 24.9099 16.8722 24.6746 17.1111C24.418 17.3717 24.0776 17.5222 23.7176 17.5222H22.9636C22.6099 17.5222 22.3381 17.8004 22.3381 18.1559C22.3381 18.5113 22.6099 18.7896 22.9636 18.7896H23.6948C24.4084 18.7896 25.0506 18.4994 25.5255 18.0172C26.0003 17.535 26.2854 16.8835 26.2854 16.1602V6.34433C26.2854 5.62107 26.0003 4.96956 25.5255 4.48735C25.0506 4.00512 24.4084 3.71494 23.6948 3.71494H11.79C11.1935 3.71494 10.6463 3.93323 10.1965 4.29385C9.7457 4.65531 9.41333 5.16145 9.27084 5.74029L9.27083 5.74029L9.27043 5.74204C9.18976 6.09703 9.40542 6.42801 9.73178 6.51087ZM18.2108 21.8848H8.45395C8.30918 21.8848 8.1968 21.9448 8.09684 22.0208C8.09667 22.021 8.09649 22.0211 8.09631 22.0212L4.94367 24.3618V10.7301C4.94367 10.3418 5.11384 9.99496 5.34907 9.75607C5.60571 9.49544 5.94611 9.345 6.30606 9.345H18.2108C18.5917 9.345 18.9326 9.51715 19.1678 9.75607C19.4245 10.0167 19.5732 10.3631 19.5732 10.7301V20.4996C19.5732 20.888 19.4031 21.2348 19.1678 21.4737C18.9112 21.7343 18.5708 21.8848 18.2108 21.8848ZM7.37141 17.5061C7.37141 17.8616 7.64323 18.1398 7.99695 18.1398H16.5199C16.8737 18.1398 17.1455 17.8616 17.1455 17.5061C17.1455 17.1507 16.8737 16.8724 16.5199 16.8724H7.99695C7.64322 16.8724 7.37141 17.1507 7.37141 17.5061ZM7.37141 13.7469C7.37141 14.1023 7.64322 14.3806 7.99695 14.3806H16.5199C16.8737 14.3806 17.1455 14.1023 17.1455 13.7469C17.1455 13.3914 16.8737 13.1131 16.5199 13.1131H7.99695C7.64322 13.1131 7.37141 13.3914 7.37141 13.7469ZM8.67034 23.1522H18.2108C18.9244 23.1522 19.5667 22.862 20.0415 22.3798C20.5163 21.8976 20.8015 21.2461 20.8015 20.5228V10.7301C20.8015 10.0069 20.5163 9.35538 20.0415 8.87317C19.5667 8.39094 18.9244 8.10076 18.2108 8.10076H6.30606C5.59246 8.10076 4.95021 8.39094 4.47537 8.87317C4.00055 9.35538 3.71543 10.0069 3.71543 10.7301V25.6512C3.71543 26.0067 3.98725 26.2849 4.34098 26.2849C4.5007 26.2849 4.63922 26.2306 4.74962 26.1212L8.67034 23.1522Z" fill="#083160" stroke="#083160" stroke-width="0.2"/>
</svg>
