<svg width="14" height="15" viewBox="0 0 14 15" fill="none" xmlns="http://www.w3.org/2000/svg">
<path d="M8.66146 7.79191L7.29199 7.00065V4.2526C7.29199 4.09153 7.1614 3.96094 7.00033 3.96094C6.83925 3.96094 6.70866 4.09153 6.70866 4.2526V7.16927C6.70869 7.27341 6.76427 7.36961 6.85449 7.42163L8.36979 8.29663C8.41408 8.32241 8.46439 8.33597 8.51562 8.33594C8.61966 8.33587 8.71575 8.2804 8.76784 8.19035C8.84848 8.05096 8.80088 7.87255 8.66146 7.79191ZM7.00033 1.33594C3.77868 1.33594 1.16699 3.94762 1.16699 7.16927C1.16699 10.3909 3.77868 13.0026 7.00033 13.0026C10.2204 12.9988 12.8299 10.3894 12.8337 7.16927C12.8337 3.94762 10.222 1.33594 7.00033 1.33594ZM7.00033 12.4193C4.10082 12.4193 1.75033 10.0688 1.75033 7.16927C1.75033 4.26977 4.10082 1.91927 7.00033 1.91927C9.89851 1.92244 12.2472 4.27108 12.2503 7.16927C12.2503 10.0688 9.89983 12.4193 7.00033 12.4193Z" fill="#2F3337"/>
</svg>
