<svg width="30" height="30" viewBox="0 0 30 30" fill="none" xmlns="http://www.w3.org/2000/svg">
<path d="M7.1218 4.5C5.68256 4.5 4.5 5.68256 4.5 7.1218V11.4954C4.5 12.9347 5.68256 14.1258 7.1218 14.1258H11.5023C12.9415 14.1258 14.1241 12.9347 14.1241 11.4954V7.1218C14.1241 5.68256 12.9415 4.5 11.5023 4.5H7.1218ZM18.4977 4.5C17.0585 4.5 15.8759 5.68256 15.8759 7.1218V11.4954C15.8759 12.9347 17.0585 14.1258 18.4977 14.1258H22.8782C24.3174 14.1258 25.5 12.9347 25.5 11.4954V7.1218C25.5 5.68256 24.3174 4.5 22.8782 4.5H18.4977ZM7.1218 6.25014H11.5023C12.0022 6.25014 12.3739 6.62187 12.3739 7.1218V11.4954C12.3739 11.9954 12.0022 12.3739 11.5023 12.3739H7.1218C6.62187 12.3739 6.25014 11.9954 6.25014 11.4954V7.1218C6.25014 6.62187 6.62187 6.25014 7.1218 6.25014ZM18.4977 6.25014H22.8782C23.3781 6.25014 23.7499 6.62187 23.7499 7.1218V11.4954C23.7499 11.9954 23.3781 12.3739 22.8782 12.3739H18.4977C17.9978 12.3739 17.6261 11.9954 17.6261 11.4954V7.1218C17.6261 6.62187 17.9978 6.25014 18.4977 6.25014ZM7.1218 15.8759C5.68256 15.8759 4.5 17.0585 4.5 18.4977V22.8782C4.5 24.3174 5.68256 25.5 7.1218 25.5H11.5023C12.9415 25.5 14.1241 24.3174 14.1241 22.8782V18.4977C14.1241 17.0585 12.9415 15.8759 11.5023 15.8759H7.1218ZM18.4977 15.8759C17.0585 15.8759 15.8759 17.0585 15.8759 18.4977V22.8782C15.8759 24.3174 17.0585 25.5 18.4977 25.5H22.8782C24.3174 25.5 25.5 24.3174 25.5 22.8782V18.4977C25.5 17.0585 24.3174 15.8759 22.8782 15.8759H18.4977ZM7.1218 17.6261H11.5023C12.0022 17.6261 12.3739 17.9978 12.3739 18.4977V22.8782C12.3739 23.3781 12.0022 23.7499 11.5023 23.7499H7.1218C6.62187 23.7499 6.25014 23.3781 6.25014 22.8782V18.4977C6.25014 17.9978 6.62187 17.6261 7.1218 17.6261ZM18.4977 17.6261H22.8782C23.3781 17.6261 23.7499 17.9978 23.7499 18.4977V22.8782C23.7499 23.3781 23.3781 23.7499 22.8782 23.7499H18.4977C17.9978 23.7499 17.6261 23.3781 17.6261 22.8782V18.4977C17.6261 17.9978 17.9978 17.6261 18.4977 17.6261Z" fill="#083160"/>
</svg>
