<svg width="15" height="15" viewBox="0 0 15 15" fill="none" xmlns="http://www.w3.org/2000/svg">
<path d="M14.3182 2.72727H10.9091V0.681818C10.9091 0.500989 10.8373 0.327566 10.7094 0.1997C10.5815 0.0718342 10.4081 0 10.2273 0H4.77273C4.5919 0 4.41847 0.0718342 4.29061 0.1997C4.16274 0.327566 4.09091 0.500989 4.09091 0.681818V2.72727H0.681818C0.500989 2.72727 0.327566 2.79911 0.1997 2.92697C0.0718342 3.05484 0 3.22826 0 3.40909C0 3.58992 0.0718342 3.76334 0.1997 3.89121C0.327566 4.01907 0.500989 4.09091 0.681818 4.09091H1.44341L2.73273 14.4027C2.75333 14.5676 2.83343 14.7193 2.95797 14.8293C3.08252 14.9392 3.24294 15 3.40909 15H11.5909C11.7571 15 11.9175 14.9392 12.042 14.8293C12.1666 14.7193 12.2467 14.5676 12.2673 14.4027L13.5566 4.09091H14.3182C14.499 4.09091 14.6724 4.01907 14.8003 3.89121C14.9282 3.76334 15 3.58992 15 3.40909C15 3.22826 14.9282 3.05484 14.8003 2.92697C14.6724 2.79911 14.499 2.72727 14.3182 2.72727ZM5.45455 1.36364H9.54545V2.72727H5.45455V1.36364ZM10.9889 13.6364H4.01114L2.81795 4.09091H12.182L10.9889 13.6364Z" fill="#ED1112"/>
</svg>
