<svg width="15" height="19" viewBox="0 0 15 19" fill="none" xmlns="http://www.w3.org/2000/svg">
<path d="M6.89169 0.0972656H6.79169V0.197266V12.8647L2.15567 8.22871L2.08496 8.158L2.01425 8.22871L1.08225 9.16072L1.01154 9.23144L1.08225 9.30215L7.48007 15.6999L7.55078 15.7706L7.62149 15.6999L14.0193 9.30215L14.09 9.23144L14.0193 9.16072L13.0873 8.22871L13.0166 8.158L12.9459 8.22871L8.30987 12.8647V0.197266V0.0972656H8.20987H6.89169ZM0.300781 15.2564H0.200781V15.3564V18.6518V18.7518H0.300781H14.8008H14.9008V18.6518V15.3564V15.2564H14.8008H13.4826H13.3826V15.3564V17.2336H1.71896V15.3564V15.2564H1.61896H0.300781Z" fill="#00A0A3" stroke="#00A0A3" stroke-width="0.2"/>
</svg>
