<svg width="14" height="15" viewBox="0 0 14 15" fill="none" xmlns="http://www.w3.org/2000/svg">
<path d="M7.39285 3.45776L1.06511 9.79434C0.831941 10.0283 0.684579 10.3343 0.646949 10.6626L0.394823 12.8795C0.378388 13.0354 0.394976 13.193 0.443505 13.342C0.492033 13.4911 0.57141 13.6282 0.676452 13.7444C0.781493 13.8606 0.909837 13.9534 1.0531 14.0166C1.19636 14.0797 1.35133 14.112 1.50787 14.1111H1.637L3.85079 13.8586C4.17739 13.8208 4.48228 13.6757 4.71786 13.446L11.0456 7.10329L7.39285 3.45776ZM13.1856 2.92201L11.5806 1.31478C11.4463 1.17979 11.2868 1.07268 11.1111 0.999593C10.9354 0.926507 10.747 0.888885 10.5567 0.888885C10.3665 0.888885 10.1781 0.926507 10.0024 0.999593C9.82667 1.07268 9.66711 1.17979 9.53285 1.31478L8.04469 2.80501L11.6974 6.46286L13.1856 4.97263C13.3204 4.83817 13.4274 4.67839 13.5003 4.50244C13.5733 4.32649 13.6109 4.13784 13.6109 3.94732C13.6109 3.75679 13.5733 3.56815 13.5003 3.3922C13.4274 3.21625 13.3204 3.05647 13.1856 2.92201Z" fill="white"/>
</svg>
