<svg width="30" height="30" viewBox="0 0 30 30" fill="none" xmlns="http://www.w3.org/2000/svg">
<path d="M14.9996 17.5436C15.765 17.5448 16.5099 17.2964 17.1215 16.8362L17.1217 16.8361L18.7541 15.6015L25.2888 21.4294C25.2313 21.5049 25.1686 21.5769 25.1007 21.6448C24.705 22.0406 24.1681 22.2629 23.6084 22.2629H6.3908C5.83107 22.2629 5.29426 22.0406 4.89847 21.6448C4.83062 21.5769 4.76787 21.5049 4.71046 21.4294L11.2451 15.6015L12.8775 16.8361L12.8777 16.8362C13.4893 17.2964 14.2342 17.5448 14.9996 17.5436ZM14.9996 17.5436C14.9996 17.5436 14.9995 17.5436 14.9995 17.5436L14.9996 17.4436L14.9998 17.5436C14.9997 17.5436 14.9997 17.5436 14.9996 17.5436ZM23.6084 23.6686H23.6085C24.5407 23.6675 25.4344 23.2967 26.0936 22.6376C26.7527 21.9784 27.1235 21.0847 27.1246 20.1526V20.1524V9.84759V9.84747C27.1235 8.91529 26.7527 8.0216 26.0936 7.36244C25.4344 6.70329 24.5407 6.33249 23.6085 6.3314H23.6084L6.3908 6.3314L6.39069 6.3314C5.4585 6.33249 4.56481 6.70329 3.90565 7.36244C3.2465 8.0216 2.8757 8.91529 2.87461 9.84747V9.84759L2.87461 20.1524L2.87461 20.1526C2.87516 20.6191 2.96829 21.0759 3.14383 21.4986C3.14787 21.5113 3.15228 21.5239 3.15705 21.5364C3.17031 21.5712 3.18625 21.6047 3.20464 21.6366C3.37655 22.0051 3.61261 22.3445 3.90565 22.6376C4.56481 23.2967 5.4585 23.6675 6.39069 23.6686H6.3908H23.6084ZM25.7189 19.931L19.8977 14.7366L25.7189 10.3339V19.931ZM25.1007 8.35526C25.2312 8.48568 25.3428 8.63141 25.4338 8.78824L18.4578 14.0702C18.3933 14.1048 18.334 14.1494 18.2825 14.203L16.2741 15.7237C16.274 15.7238 16.2739 15.7238 16.2738 15.7239C15.9058 15.9985 15.4588 16.1469 14.9996 16.1469C14.5404 16.1469 14.0934 15.9985 13.7254 15.7239C13.7253 15.7238 13.7252 15.7238 13.7251 15.7237L11.7167 14.203C11.6652 14.1494 11.6059 14.1048 11.5414 14.0702L4.56545 8.78824C4.65646 8.63142 4.76805 8.48568 4.89847 8.35526C5.29426 7.95947 5.83107 7.73711 6.3908 7.73711H23.6084C24.1681 7.73711 24.705 7.95947 25.1007 8.35526ZM4.28032 19.9279V10.3339L10.1013 14.7364L4.28032 19.9279Z" fill="#083160" stroke="#083160" stroke-width="0.2"/>
</svg>
