<svg width="44" height="44" viewBox="0 0 44 44" fill="none" xmlns="http://www.w3.org/2000/svg">
<rect width="44" height="44" fill="white" fill-opacity="0.96"/>
<path d="M40.9285 25.0715C42.6248 14.6175 35.5254 4.76781 25.0715 3.07146C14.6176 1.37511 4.76786 8.47452 3.07151 18.9284C1.37516 29.3824 8.47457 39.2321 18.9285 40.9284C29.3824 42.6248 39.2321 35.5254 40.9285 25.0715Z" fill="#083160" fill-opacity="0.3"/>
<path d="M36.5051 22.4825C36.7715 14.4716 30.4934 7.76153 22.4826 7.49508C14.4717 7.22863 7.76159 13.5067 7.49514 21.5176C7.22869 29.5285 13.5068 36.2386 21.5177 36.505C29.5285 36.7715 36.2386 30.4934 36.5051 22.4825Z" fill="#083160" fill-opacity="0.67"/>
<path d="M32.6914 17.9844V32.4703C32.6914 33.5215 31.8393 34.3737 30.7881 34.3737H9.45022C8.39901 34.3737 7.54688 33.5215 7.54688 32.4703V17.9844H32.6914Z" fill="#E5F5F9"/>
<path d="M32.691 13.0463V16.6291C32.691 16.778 32.569 16.8998 32.4202 16.8998H7.81765C7.66601 16.8998 7.54688 16.778 7.54688 16.6291V13.0463C7.54688 12.2095 8.22661 11.5299 9.06325 11.5299H31.1746C32.0112 11.5299 32.691 12.2095 32.691 13.0463Z" fill="#09478E"/>
<path d="M32.691 15.1397V16.6289C32.691 16.7778 32.569 16.8997 32.4202 16.8997H7.81765C7.66601 16.8997 7.54688 16.7778 7.54688 16.6289V13.0461C7.54688 12.277 8.1236 11.638 8.86823 11.5432V14.8689C8.86823 15.0177 8.98748 15.1397 9.139 15.1397H32.691Z" fill="#083160"/>
<path d="M32.6914 16.4564V30.9424C32.6914 31.9936 31.8393 32.8457 30.7881 32.8457H9.45022C8.39901 32.8457 7.54688 31.9936 7.54688 30.9424V16.4564H32.6914Z" fill="white"/>
<path d="M32.6915 16.4562H7.54688V17.809H32.6915V16.4562Z" fill="#E5F5F9"/>
<path d="M12.6897 13.7359C12.31 13.7359 12.002 13.4278 12.002 13.0482C12.002 12.6686 12.31 12.3606 12.6897 12.3606C13.0693 12.3606 13.3773 12.6687 13.3773 13.0483C13.3773 13.4279 13.0693 13.7359 12.6897 13.7359Z" fill="#00A0A3"/>
<path d="M10.4463 11.5299V10.8875C10.4463 10.1922 11.0121 9.62634 11.7074 9.62634C12.4055 9.62634 12.9711 10.1922 12.9711 10.8875V12.9073C12.9711 13.0632 12.8449 13.1894 12.689 13.1894C12.5331 13.1894 12.4069 13.0632 12.4069 12.9073V10.8875C12.4069 10.5032 12.0942 10.1905 11.7102 10.1905C11.3231 10.1905 11.0105 10.5032 11.0105 10.8875V11.5299H10.4463Z" fill="white"/>
<path d="M17.7971 13.7359C17.4175 13.7359 17.1094 13.4278 17.1094 13.0482C17.1094 12.6686 17.4175 12.3606 17.7971 12.3606C18.1767 12.3606 18.4847 12.6687 18.4847 13.0483C18.4847 13.4279 18.1766 13.7359 17.7971 13.7359Z" fill="#00A0A3"/>
<path d="M15.5537 11.5299V10.8875C15.5537 10.1922 16.1196 9.62634 16.8149 9.62634C17.5129 9.62634 18.0785 10.1922 18.0785 10.8875V12.9073C18.0785 13.0632 17.9523 13.1894 17.7964 13.1894C17.6405 13.1894 17.5143 13.0632 17.5143 12.9073V10.8875C17.5143 10.5032 17.2016 10.1905 16.8176 10.1905C16.4306 10.1905 16.1179 10.5032 16.1179 10.8875V11.5299H15.5537Z" fill="white"/>
<path d="M22.9025 13.7359C22.5229 13.7359 22.2148 13.4278 22.2148 13.0482C22.2148 12.6686 22.5229 12.3606 22.9025 12.3606C23.2821 12.3606 23.5902 12.6687 23.5902 13.0483C23.5902 13.4279 23.2821 13.7359 22.9025 13.7359Z" fill="#00A0A3"/>
<path d="M20.6592 11.5299V10.8875C20.6592 10.1922 21.225 9.62634 21.9203 9.62634C22.6184 9.62634 23.1839 10.1922 23.1839 10.8875V12.9073C23.1839 13.0632 23.0578 13.1894 22.9019 13.1894C22.746 13.1894 22.6198 13.0632 22.6198 12.9073V10.8875C22.6198 10.5032 22.3071 10.1905 21.9231 10.1905C21.536 10.1905 21.2233 10.5032 21.2233 10.8875V11.5299H20.6592Z" fill="white"/>
<path d="M28.008 13.7359C27.6284 13.7359 27.3203 13.4278 27.3203 13.0482C27.3203 12.6686 27.6284 12.3606 28.008 12.3606C28.3876 12.3606 28.6957 12.6687 28.6957 13.0483C28.6957 13.4279 28.3876 13.7359 28.008 13.7359Z" fill="#00A0A3"/>
<path d="M25.7666 11.5299V10.8875C25.7666 10.1922 26.3324 9.62634 27.0278 9.62634C27.7258 9.62634 28.2914 10.1922 28.2914 10.8875V12.9073C28.2914 13.0632 28.1652 13.1894 28.0093 13.1894C27.8534 13.1894 27.7272 13.0632 27.7272 12.9073V10.8875C27.7272 10.5032 27.4145 10.1905 27.0305 10.1905C26.6435 10.1905 26.3308 10.5032 26.3308 10.8875V11.5299H25.7666Z" fill="white"/>
<path d="M13.7419 19.8281V21.772C13.7419 22.0836 13.4893 22.3362 13.1777 22.3362H11.2312C10.9196 22.3362 10.667 22.0836 10.667 21.772V19.8281C10.667 19.5165 10.9196 19.2639 11.2312 19.2639H13.1777C13.4893 19.2639 13.7419 19.5165 13.7419 19.8281ZM19.0152 19.8281V21.772C19.0152 22.0836 18.7626 22.3362 18.451 22.3362H16.5045C16.1929 22.3362 15.9403 22.0836 15.9403 21.772V19.8281C15.9403 19.5165 16.1929 19.2639 16.5045 19.2639H18.451C18.7626 19.2639 19.0152 19.5165 19.0152 19.8281ZM24.2885 19.8281V21.772C24.2885 22.0836 24.0359 22.3362 23.7243 22.3362H21.7778C21.4662 22.3362 21.2136 22.0836 21.2136 21.772V19.8281C21.2136 19.5165 21.4662 19.2639 21.7778 19.2639H23.7243C24.0359 19.2639 24.2885 19.5165 24.2885 19.8281ZM29.5618 19.8281V21.772C29.5618 22.0836 29.3092 22.3362 28.9976 22.3362H27.0511C26.7395 22.3362 26.4869 22.0836 26.4869 21.772V19.8281C26.4869 19.5165 26.7395 19.2639 27.0511 19.2639H28.9976C29.3092 19.2639 29.5618 19.5165 29.5618 19.8281ZM13.7419 23.9615V25.9055C13.7419 26.217 13.4893 26.4696 13.1777 26.4696H11.2312C10.9196 26.4696 10.667 26.217 10.667 25.9055V23.9615C10.667 23.6499 10.9196 23.3973 11.2312 23.3973H13.1777C13.4893 23.3973 13.7419 23.6499 13.7419 23.9615ZM24.2885 23.9615V25.9055C24.2885 26.217 24.0359 26.4696 23.7243 26.4696H21.7778C21.4662 26.4696 21.2136 26.217 21.2136 25.9055V23.9615C21.2136 23.6499 21.4662 23.3973 21.7778 23.3973H23.7243C24.0359 23.3973 24.2885 23.6499 24.2885 23.9615ZM29.5618 23.9615V25.9055C29.5618 26.217 29.3092 26.4696 28.9976 26.4696H27.0511C26.7395 26.4696 26.4869 26.217 26.4869 25.9055V23.9615C26.4869 23.6499 26.7395 23.3973 27.0511 23.3973H28.9976C29.3092 23.3973 29.5618 23.6499 29.5618 23.9615Z" fill="#E5F5F9"/>
<path d="M13.7419 28.095V30.039C13.7419 30.3506 13.4893 30.6032 13.1777 30.6032H11.2312C10.9196 30.6032 10.667 30.3506 10.667 30.039V28.095C10.667 27.7835 10.9196 27.5309 11.2312 27.5309H13.1777C13.4893 27.5309 13.7419 27.7835 13.7419 28.095Z" fill="#00A0A3"/>
<path d="M19.0153 28.095V30.039C19.0153 30.3506 18.7627 30.6032 18.4511 30.6032H16.5046C16.193 30.6032 15.9404 30.3506 15.9404 30.039V28.095C15.9404 27.7835 16.193 27.5309 16.5046 27.5309H18.4511C18.7627 27.5309 19.0153 27.7835 19.0153 28.095ZM24.2886 28.095V30.039C24.2886 30.3506 24.036 30.6032 23.7244 30.6032H21.7779C21.4663 30.6032 21.2137 30.3506 21.2137 30.039V28.095C21.2137 27.7835 21.4663 27.5309 21.7779 27.5309H23.7244C24.036 27.5309 24.2886 27.7835 24.2886 28.095ZM29.5619 28.095V30.039C29.5619 30.3506 29.3093 30.6032 28.9977 30.6032H27.0512C26.7396 30.6032 26.487 30.3506 26.487 30.039V28.095C26.487 27.7835 26.7396 27.5309 27.0512 27.5309H28.9977C29.3093 27.5309 29.5619 27.7835 29.5619 28.095Z" fill="#E5F5F9"/>
<path d="M11.3926 22.4442V26.565C11.3926 26.5784 11.3926 26.5917 11.3945 26.605C11.4154 27.1762 11.8857 27.6351 12.4627 27.6351H12.5522C12.6512 27.6351 12.7312 27.7151 12.7312 27.8141V28.5376C12.7312 28.6842 12.8968 28.7681 13.0148 28.6805L14.3858 27.6713C14.4163 27.6465 14.4524 27.6351 14.4905 27.6351H18.1467C18.7389 27.6351 19.2168 27.1553 19.2168 26.565V22.4442C19.2168 21.895 18.7775 21.3741 18.1467 21.3741H12.4627C11.8724 21.3741 11.3926 21.854 11.3926 22.4442Z" fill="#FC545D"/>
<path d="M12.2833 24.6969V21.3922C11.7786 21.4781 11.3926 21.9154 11.3926 22.4442V26.565C11.3926 26.5783 11.3926 26.5916 11.3945 26.605C11.4154 27.1762 11.8857 27.6351 12.4627 27.6351H12.5522C12.6512 27.6351 12.7312 27.715 12.7312 27.814V28.5376C12.7312 28.6842 12.8968 28.768 13.0149 28.6804L14.3858 27.6712C14.4163 27.6465 14.4524 27.6351 14.4905 27.6351H18.1467C18.7232 27.6351 19.1879 27.1793 19.2122 26.6105H14.1969C13.14 26.6105 12.2833 25.7538 12.2833 24.6969Z" fill="#F14448"/>
<path opacity="0.3" d="M13.7568 22.1487L15.7524 22.1487C15.8689 22.1487 15.9634 22.0543 15.9634 21.9378C15.9634 21.8213 15.8689 21.7269 15.7524 21.7269L13.7568 21.7268C13.6403 21.7268 13.5459 21.8212 13.5459 21.9377C13.5459 22.0542 13.6403 22.1487 13.7568 22.1487ZM16.4665 22.1488H16.6372C16.7537 22.1488 16.8481 22.0544 16.8481 21.9379C16.8481 21.8213 16.7537 21.7269 16.6372 21.7269L16.4665 21.7269C16.35 21.7269 16.2555 21.8213 16.2555 21.9378C16.2555 22.0543 16.35 22.1488 16.4665 22.1488Z" fill="white"/>
<path d="M15.0947 25.8346C15.0947 25.674 15.2282 25.5399 15.3894 25.5399C15.5618 25.5399 15.6887 25.6784 15.6887 25.8346C15.6887 26.002 15.557 26.1339 15.3894 26.1339C15.2335 26.1339 15.0947 26.0067 15.0947 25.8346ZM15.2197 25.0056L15.1298 23.3582V22.864C15.1298 22.7181 15.24 22.6045 15.3894 22.6045C15.5411 22.6045 15.6439 22.7217 15.6439 22.864V23.3582L15.5541 25.0056C15.5473 25.09 15.4922 25.1504 15.3894 25.1504C15.2843 25.1504 15.2258 25.0881 15.2197 25.0056Z" fill="white"/>
<path d="M15.3884 26.2238C15.1801 26.2238 15.0039 26.054 15.0039 25.8346C15.0039 25.7307 15.0419 25.6396 15.1174 25.5638C15.3648 25.3178 15.7775 25.4993 15.7775 25.8346C15.7775 26.0545 15.6033 26.2238 15.3884 26.2238ZM15.3884 25.6298C15.2773 25.6298 15.1836 25.7235 15.1836 25.8346C15.1836 26.1067 15.5979 26.1164 15.5979 25.8346C15.5979 25.7256 15.5087 25.6298 15.3884 25.6298ZM15.3884 25.2403C15.2356 25.2403 15.1383 25.1408 15.1291 25.0124L15.039 23.3631V22.8641C15.039 22.4079 15.7328 22.3944 15.7328 22.8641V23.3583L15.6429 25.0105C15.632 25.1435 15.5393 25.2403 15.3884 25.2403ZM15.3884 25.0607C15.4346 25.0607 15.4596 25.0451 15.4636 24.9983L15.5531 23.3535V22.8641C15.5531 22.6332 15.2187 22.6416 15.2187 22.8641V23.3583L15.3085 25.0008C15.3111 25.0361 15.3329 25.0607 15.3884 25.0607Z" fill="white"/>
<path d="M38.5733 28.6209C38.5733 31.8536 35.9394 34.4871 32.69 34.4871C29.4406 34.4871 26.8066 31.8536 26.8066 28.6209C26.8066 25.3715 29.4406 22.7375 32.69 22.7375C35.9394 22.7375 38.5733 25.3715 38.5733 28.6209Z" fill="#24272B"/>
<path d="M37.3821 32.1588C36.3076 33.5726 34.6065 34.4867 32.6909 34.4867C29.4426 34.4867 26.8086 31.8526 26.8086 28.6211C26.8086 26.7096 27.7206 25.0104 29.1323 23.936C28.3786 24.9251 27.933 26.1578 27.933 27.4945C27.933 30.7282 30.567 33.3602 33.8173 33.3602C35.1584 33.3602 36.393 32.9125 37.3821 32.1588Z" fill="#13181E"/>
<path d="M37.2528 28.619C37.2528 31.1259 35.2102 33.1681 32.6904 33.1681C30.1705 33.1681 28.1279 31.1259 28.1279 28.619C28.1279 26.0991 30.1705 24.0565 32.6904 24.0565C35.2102 24.0565 37.2528 26.0991 37.2528 28.619Z" fill="white"/>
<path d="M36.0863 25.5726C35.2804 24.848 34.2101 24.4066 33.04 24.4066C30.5204 24.4066 28.4778 26.4493 28.4778 28.9688C28.4778 30.1307 28.915 31.1905 29.6355 31.9963C28.7089 31.1614 28.1279 29.9557 28.1279 28.619C28.1279 26.0995 30.1706 24.0568 32.6901 24.0568C34.0394 24.0568 35.2512 24.6419 36.0863 25.5726Z" fill="#E5F5F9"/>
<path d="M32.541 28.5898C32.4829 28.5898 32.4265 28.5595 32.3958 28.5052L31.1505 26.3042C31.1052 26.2243 31.1335 26.1226 31.2136 26.0773C31.2931 26.0317 31.3952 26.0602 31.4405 26.1403L32.6858 28.3413C32.7311 28.4212 32.7029 28.5229 32.6227 28.5682C32.5969 28.5829 32.5687 28.5898 32.541 28.5898Z" fill="#D3E6ED"/>
<path d="M32.967 28.8043V31.4925C32.967 31.6441 32.8441 31.767 32.6925 31.767C32.5409 31.767 32.418 31.6441 32.418 31.4925V28.8043H32.967Z" fill="#FC545D"/>
<path d="M33.0666 28.7L31.4824 30.1302C31.3319 30.2661 31.0997 30.2542 30.9638 30.1036C30.8279 29.9531 30.8397 29.7209 30.9903 29.585L32.5745 28.1548L33.0666 28.7Z" fill="#083160"/>
<path d="M33.3215 28.6397C33.3215 28.9856 33.0397 29.2674 32.692 29.2674C32.3443 29.2674 32.0625 28.9856 32.0625 28.6397C32.0625 28.2921 32.3443 28.0103 32.692 28.0103C33.0397 28.0103 33.3215 28.2921 33.3215 28.6397Z" fill="#24272B"/>
<path d="M32.9887 28.6392C32.9887 28.803 32.8552 28.9364 32.6906 28.9364C32.526 28.9364 32.3926 28.803 32.3926 28.6392C32.3926 28.4746 32.526 28.3412 32.6906 28.3412C32.8552 28.3412 32.9887 28.4746 32.9887 28.6392Z" fill="white"/>
<path d="M32.9442 28.7958C32.8921 28.8791 32.7985 28.9354 32.6922 28.9354C32.5277 28.9354 32.3945 28.802 32.3945 28.6396C32.3945 28.5334 32.4486 28.4418 32.5319 28.3877C32.5049 28.4335 32.4882 28.4856 32.4882 28.5439C32.4882 28.7084 32.6215 28.8416 32.786 28.8416C32.8442 28.8416 32.8984 28.825 32.9442 28.7958Z" fill="#E5F5F9"/>
<path d="M30.766 25.7741L30.5799 25.4518C30.5179 25.3442 30.5548 25.2069 30.6622 25.1448C30.7698 25.0823 30.9071 25.1197 30.9691 25.2271L31.1552 25.5493C31.2172 25.6569 31.1804 25.7943 31.073 25.8563C30.9657 25.9183 30.8279 25.8816 30.766 25.7741Z" fill="#24272B"/>
<path d="M34.4135 32.0889L34.2274 31.7666C34.1654 31.659 34.2022 31.5217 34.3096 31.4596C34.4176 31.3972 34.5545 31.4345 34.6166 31.5419L34.8027 31.8642C34.8647 31.9717 34.8278 32.1091 34.7204 32.1711C34.6131 32.2332 34.4754 32.1963 34.4135 32.0889Z" fill="#24272B"/>
<path d="M29.5819 27.1226L29.2598 26.9367C29.1524 26.8747 29.1155 26.7373 29.1776 26.6297C29.2393 26.5224 29.3769 26.4851 29.4845 26.5475L29.8067 26.7335C29.9141 26.7955 29.9509 26.9329 29.8889 27.0404C29.827 27.1479 29.6892 27.1847 29.5819 27.1226Z" fill="#24272B"/>
<path d="M35.8965 30.7686L35.5743 30.5825C35.4669 30.5205 35.4301 30.383 35.4921 30.2756C35.5539 30.1682 35.6914 30.131 35.799 30.1934L36.1212 30.3795C36.2286 30.4415 36.2655 30.579 36.2034 30.6864C36.1418 30.7935 36.0042 30.8309 35.8965 30.7686ZM29.2304 28.8828H28.8585C28.7344 28.8828 28.6338 28.7821 28.6338 28.6581C28.6338 28.534 28.7344 28.4333 28.8585 28.4333H29.2304C29.3544 28.4333 29.4551 28.534 29.4551 28.6581C29.4551 28.7821 29.3544 28.8828 29.2304 28.8828ZM36.5224 28.8828H36.1502C36.0261 28.8828 35.9255 28.7821 35.9255 28.6581C35.9255 28.534 36.0261 28.4333 36.1502 28.4333H36.5224C36.6464 28.4333 36.7471 28.534 36.7471 28.6581C36.7471 28.7821 36.6464 28.8828 36.5224 28.8828Z" fill="#24272B"/>
<path d="M29.1776 30.6864C29.1155 30.579 29.1524 30.4415 29.2598 30.3794L29.5819 30.1934C29.6896 30.131 29.8272 30.1682 29.8889 30.2756C29.9509 30.383 29.9141 30.5205 29.8067 30.5825L29.4845 30.7686C29.377 30.8308 29.2394 30.7937 29.1776 30.6864Z" fill="#24272B"/>
<path d="M35.493 27.0404C35.431 26.9329 35.4678 26.7955 35.5752 26.7335L35.8974 26.5475C36.0051 26.4851 36.1426 26.5224 36.2043 26.6297C36.2664 26.7373 36.2295 26.8747 36.1221 26.9367L35.7999 27.1226C35.6931 27.1845 35.5552 27.1483 35.493 27.0404Z" fill="#24272B"/>
<path d="M30.6622 32.1711C30.5548 32.1091 30.5179 31.9717 30.5799 31.8642L30.766 31.5419C30.8281 31.4345 30.9653 31.3972 31.073 31.4596C31.1804 31.5217 31.2172 31.659 31.1552 31.7666L30.9691 32.0889C30.9072 32.1964 30.7694 32.2332 30.6622 32.1711Z" fill="#24272B"/>
<path d="M34.3096 25.8563C34.2022 25.7943 34.1654 25.6569 34.2274 25.5493L34.4135 25.2271C34.4752 25.1197 34.6128 25.0823 34.7204 25.1448C34.8278 25.2069 34.8647 25.3442 34.8027 25.4518L34.6166 25.7741C34.5543 25.8821 34.4163 25.918 34.3096 25.8563Z" fill="#24272B"/>
<path d="M32.6896 32.7148C32.5655 32.7148 32.4648 32.6141 32.4648 32.4901V32.1179C32.4648 31.9938 32.5655 31.8931 32.6896 31.8931C32.8136 31.8931 32.9143 31.9938 32.9143 32.1179V32.4901C32.9143 32.6141 32.8136 32.7148 32.6896 32.7148ZM32.6896 25.423C32.5655 25.423 32.4648 25.3223 32.4648 25.1982V24.826C32.4648 24.702 32.5655 24.6013 32.6896 24.6013C32.8136 24.6013 32.9143 24.702 32.9143 24.826V25.1982C32.9143 25.3223 32.8136 25.423 32.6896 25.423Z" fill="#24272B"/>
<path d="M37.358 26.9422C37.3305 26.8655 37.301 26.7899 37.2699 26.7151C37.2256 26.6089 37.2758 26.4869 37.382 26.4428C37.4881 26.3987 37.6099 26.4487 37.6542 26.5548C37.6882 26.6362 37.7201 26.7183 37.75 26.8015C37.7888 26.9099 37.7325 27.029 37.6243 27.0679C37.5176 27.1062 37.3972 27.0516 37.358 26.9422ZM36.981 26.1327C36.546 25.3836 35.9195 24.7583 35.1694 24.3242C35.0699 24.2666 35.0358 24.1393 35.0935 24.0397C35.1509 23.9402 35.278 23.9057 35.378 23.9638C36.1908 24.4342 36.8697 25.1117 37.3413 25.9237C37.399 26.0231 37.3651 26.1506 37.2656 26.2083C37.165 26.2661 37.0387 26.2315 36.981 26.1327Z" fill="white"/>
</svg>
