<svg width="25" height="24" viewBox="0 0 25 24" fill="none" xmlns="http://www.w3.org/2000/svg">
<path d="M20.5331 9.73298L14.5586 4.39128C14.4842 4.32508 14.3923 4.28177 14.2939 4.26656C14.1956 4.25135 14.0949 4.26489 14.004 4.30555C13.9132 4.34621 13.836 4.41225 13.7818 4.49574C13.7275 4.57923 13.6986 4.6766 13.6984 4.77615V7.31785C8.99731 7.447 5.20801 12.0758 5.20801 17.7481C5.20857 18.2662 5.24049 18.7837 5.30358 19.2979C5.30358 19.3108 5.30358 19.3238 5.30358 19.3393C5.30681 19.3584 5.31112 19.3774 5.31649 19.3961L5.32941 19.4271C5.33687 19.4465 5.34549 19.4655 5.35524 19.4839L5.3759 19.5149C5.38615 19.5319 5.39736 19.5483 5.40948 19.564L5.4379 19.595L5.47664 19.6311L5.5128 19.657L5.55672 19.6854L5.59546 19.7035L5.64971 19.7241H5.67037H5.68328C5.72216 19.7339 5.76203 19.7391 5.8021 19.7396H5.87959C5.91474 19.7354 5.94936 19.7276 5.98292 19.7164C6.02997 19.6996 6.07434 19.6761 6.11465 19.6466L6.1379 19.6311C6.17523 19.6014 6.20826 19.5666 6.23605 19.5278L6.24122 19.5175C6.26958 19.4745 6.29134 19.4275 6.30579 19.378C7.339 15.519 10.2682 12.9204 13.577 12.9204H13.6907V15.4544C13.6909 15.5539 13.7198 15.6513 13.774 15.7348C13.8282 15.8183 13.9054 15.8843 13.9963 15.925C14.0871 15.9656 14.1878 15.9792 14.2862 15.964C14.3846 15.9488 14.4765 15.9055 14.5508 15.8393L20.5331 10.5027C20.5881 10.4542 20.6321 10.3946 20.6623 10.3278C20.6924 10.261 20.708 10.1886 20.708 10.1153C20.708 10.042 20.6924 9.96952 20.6623 9.90272C20.6321 9.83591 20.5881 9.77629 20.5331 9.72781V9.73298ZM14.7316 14.3049V12.4374C14.7316 12.4374 14.7316 12.4193 14.7316 12.409C14.7326 12.3909 14.7326 12.3728 14.7316 12.3548C14.7316 12.3393 14.7316 12.3238 14.7316 12.3083C14.7273 12.2917 14.7221 12.2753 14.7161 12.2592L14.698 12.2153L14.6748 12.1714L14.6464 12.13L14.6154 12.0913L14.5818 12.0577L14.5431 12.0267L14.4811 12.0086L14.4372 11.9854L14.3907 11.9647L14.3442 11.9492H14.2925H14.2641C14.0239 11.9286 13.8043 11.9156 13.5873 11.9156C10.5833 11.9156 7.87111 13.7444 6.29804 16.6581C6.75782 11.9725 9.98402 8.34589 13.8999 8.34589H14.1944H14.215H14.2667H14.3054L14.3803 8.32523H14.3984C14.4253 8.31451 14.4512 8.30155 14.4759 8.28649C14.4997 8.27113 14.5221 8.25385 14.5431 8.23482C14.5617 8.21719 14.5789 8.1982 14.5947 8.178L14.6102 8.15733C14.6226 8.13913 14.6338 8.12015 14.6438 8.10051L14.6619 8.06951C14.6698 8.05183 14.6767 8.03372 14.6825 8.01527C14.6825 8.00235 14.6825 7.98685 14.6955 7.97394C14.6964 7.95587 14.6964 7.93776 14.6955 7.9197C14.6955 7.90678 14.6955 7.89387 14.6955 7.87837V5.93077L19.4147 10.1179L14.7316 14.3049Z" fill="#083160"/>
</svg>
