<svg width="16" height="18" viewBox="0 0 16 18" fill="none" xmlns="http://www.w3.org/2000/svg">
<g clip-path="url(#clip0_4890_14867)">
<path d="M15.9922 9.15323C15.9922 8.48236 15.9377 7.99279 15.8199 7.48511H8.15918V10.5131H12.6559C12.5652 11.2656 12.0757 12.3989 10.9877 13.1604L10.9725 13.2617L13.3947 15.1382L13.5625 15.1549C15.1037 13.7315 15.9922 11.6373 15.9922 9.15323Z" fill="#4285F4"/>
<path d="M8.15918 17.1313C10.3622 17.1313 12.2116 16.406 13.5625 15.1549L10.9877 13.1604C10.2987 13.6409 9.37399 13.9763 8.15918 13.9763C6.00149 13.9763 4.17018 12.553 3.51737 10.5857L3.42168 10.5938L0.903055 12.543L0.870117 12.6346C2.21187 15.2999 4.96793 17.1313 8.15918 17.1313Z" fill="#34A853"/>
<path d="M3.51756 10.5857C3.34531 10.078 3.24562 9.53397 3.24562 8.97191C3.24562 8.40978 3.34531 7.86584 3.5085 7.35816L3.50394 7.25003L0.95375 5.26953L0.870312 5.30922C0.317313 6.41528 0 7.65734 0 8.97191C0 10.2865 0.317313 11.5285 0.870312 12.6345L3.51756 10.5857Z" fill="#FBBC05"/>
<path d="M8.15918 3.96744C9.69131 3.96744 10.7248 4.62925 11.3141 5.18231L13.6169 2.93394C12.2026 1.61937 10.3622 0.8125 8.15918 0.8125C4.96793 0.8125 2.21187 2.64381 0.870117 5.30919L3.5083 7.35813C4.17018 5.39081 6.00149 3.96744 8.15918 3.96744Z" fill="#EB4335"/>
</g>
<defs>
<clipPath id="clip0_4890_14867">
<rect width="16" height="16.375" fill="white" transform="translate(0 0.8125)"/>
</clipPath>
</defs>
</svg>
