<svg width="42" height="43" viewBox="0 0 42 43" fill="none" xmlns="http://www.w3.org/2000/svg">
<path d="M10.5 14.5V28.5H24.5V14.5H10.5Z" fill="white"/>
<path d="M2.625 15.375V27.625L7 28.5L11.375 27.625V15.375L7 14.5L2.625 15.375Z" fill="#1E88E5"/>
<path d="M32.375 21.5V33.75C32.375 35.1999 31.1999 36.375 29.75 36.375H11.375L10.5 32L11.375 27.625H23.625V21.5L28 20.625L32.375 21.5Z" fill="#4CAF50"/>
<path d="M32.375 9.25V21.5H23.625V15.375H11.375L10.5 11L11.375 6.625H29.75C31.1999 6.625 32.375 7.80013 32.375 9.25Z" fill="#FBC02D"/>
<path d="M11.375 27.625V36.375H5.25C3.80013 36.375 2.625 35.1999 2.625 33.75V27.625H11.375Z" fill="#1565C0"/>
<path d="M11.375 6.625V15.375H2.625L11.375 6.625Z" fill="#E53935"/>
<path d="M33.25 21.5002L32.375 28.8939L23.625 21.5002L32.375 14.1064L33.25 21.5002Z" fill="#2E7D32"/>
<path d="M40.25 9.34642V33.6539C40.25 34.3889 39.3925 34.8002 38.8237 34.3364L32.375 28.8939V14.1064L38.8237 8.66393C39.3925 8.20018 40.25 8.61142 40.25 9.34642Z" fill="#4CAF50"/>
</svg>
