<svg width="233" height="60" viewBox="0 0 233 60" fill="none" xmlns="http://www.w3.org/2000/svg">
<rect width="60" height="60" rx="30" fill="url(#paint0_linear_1930_4103)"/>
<path d="M30.7501 9.57089C31.2426 9.85296 31.616 10.2025 31.8712 10.7307C31.9383 11.4519 31.9101 11.8167 31.5709 12.46C31.4586 12.6001 31.3545 12.6987 31.1963 12.7806C31.0381 12.8624 31.0192 12.8845 30.9103 12.8845C31.8279 16.8889 33.7347 21.0388 36.3557 24.1508C36.2937 24.2311 36.2318 24.3114 36.168 24.3942C35.3143 25.5308 34.8017 26.571 34.4338 27.9615C34.5239 27.9281 34.6141 27.8947 34.7069 27.8603C36.83 27.081 38.8728 26.3535 41.1604 26.4704C41.4807 26.8017 41.4807 26.8017 41.5008 27.2366C41.4941 27.3665 41.4875 27.4963 41.4807 27.6301C41.0969 27.8287 40.7501 27.8405 40.3272 27.8774C36.9879 28.1879 33.0271 29.4188 30.58 31.888C30.2696 32.1035 30.2696 32.1035 29.863 32.0815C29.4661 31.9368 29.2444 31.795 28.9283 31.5133C26.5623 29.6116 23.4338 28.4724 20.5 27.9615C20.3767 27.9329 20.2535 27.9043 20.1265 27.8748C19.314 27.7627 18.865 28.0593 18.2327 28.5471C17.9552 28.7732 17.6829 29.0044 17.4126 29.2397C16.9765 29.6183 16.9765 29.6183 16.6562 29.784C16.7672 29.7897 16.8783 29.7954 16.9927 29.8013C21.4876 30.0492 25.3454 31.1993 29.1485 33.7603C29.2309 33.8581 29.3133 33.956 29.3982 34.0567C29.6283 34.303 29.6283 34.303 30.0163 34.2373C30.4654 34.0792 30.7471 33.8854 31.1205 33.5843C33.5775 31.7423 36.461 30.7611 39.3987 30.1153C39.5224 30.086 39.6461 30.0566 39.7736 30.0264C40.6397 29.8704 41.5248 29.912 42.4016 29.9082C42.6989 29.9031 42.6989 29.9031 43.0022 29.8979C44.6624 29.8906 45.8087 30.0916 47.1163 31.1923C47.2449 31.299 47.2449 31.299 47.3761 31.4078C47.5585 31.5591 47.7403 31.7112 47.9215 31.8641C48.221 32.1149 48.5239 32.3608 48.828 32.6057C50.3881 33.8623 50.3881 33.8623 50.7699 34.2574C51.2686 34.7732 51.2504 34.7732 50.6098 35.0858C49.8537 35.1187 49.2197 35.0401 48.4873 34.8499C43.397 33.5362 37.7601 34.8963 33.3026 37.6266C32.4593 38.1673 31.6714 38.7561 30.9103 39.4142C30.4821 39.7633 30.3305 39.8828 29.7792 39.9527C29.2263 39.685 28.8725 39.337 28.4266 38.9113C24.5013 35.5062 18.4613 34.023 13.453 34.4231C12.5981 34.5476 11.7605 34.7366 10.9205 34.9408C10.3673 35.0725 9.85893 35.116 9.2889 35.0858C8.88863 34.7732 8.88854 34.7732 9.12874 34.2574C11.035 32.5151 14.6461 32.9624 17.0186 33.0584C18.421 33.1502 19.7791 33.4089 21.1406 33.7603C21.4345 33.835 21.4345 33.835 21.7343 33.9111C23.0991 34.3055 24.3631 34.9274 25.6251 35.5828C25.728 35.6359 25.831 35.6889 25.9371 35.7436C27.1955 36.3971 28.324 37.0812 29.41 38.0227C29.7806 38.2848 29.7806 38.2848 30.1952 38.1347C30.5794 37.9086 30.9274 37.6695 31.2806 37.395C34.2176 35.2414 37.4673 33.9309 41.0003 33.2633C41.1455 33.2339 41.2908 33.2046 41.4405 33.1743C42.0337 33.0869 42.6137 33.0768 43.2112 33.0814C43.3851 33.0818 43.3851 33.0818 43.5626 33.0821C43.9297 33.0831 44.2968 33.0851 44.6639 33.0872C44.9141 33.0881 45.1644 33.0888 45.4146 33.0895C46.0252 33.0913 46.6358 33.0942 47.2464 33.0976C46.9738 32.8525 46.6992 32.6098 46.4237 32.3682C46.271 32.2328 46.1183 32.0974 45.961 31.9579C45.1986 31.3954 44.48 31.3175 43.5628 31.2751C43.3898 31.264 43.2168 31.2529 43.0385 31.2415C38.7077 31.0979 34.1298 32.8279 30.7501 35.5828C30.6287 35.7321 30.6287 35.7321 30.5049 35.8844C30.2696 36.0799 30.2696 36.0799 29.883 36.065C29.4059 35.8913 29.1441 35.6726 28.7682 35.3239C25.1471 32.2217 20.1262 31.0581 15.5351 31.2751C15.1028 31.3178 14.672 31.3662 14.2411 31.4218C14.1396 31.4281 14.0381 31.4343 13.9335 31.4408C13.7733 31.2751 13.7733 31.2751 13.6964 30.9094C13.815 30.1962 14.3108 29.9124 14.8444 29.5044C14.9522 29.4188 15.06 29.3332 15.1711 29.245C15.3944 29.068 15.6185 28.8921 15.8434 28.7173C16.1585 28.4719 16.4707 28.2231 16.7819 27.9725C18.778 26.3671 18.778 26.3671 20.1797 26.4704C20.647 26.5375 21.102 26.6377 21.561 26.7499C21.7451 26.7934 21.7451 26.7934 21.9329 26.8378C23.1372 27.1325 24.301 27.5282 25.4649 27.9615C25.1332 26.9356 24.8136 26.0207 24.1836 25.1449C23.9692 24.8142 23.7555 24.4829 23.543 24.1508C23.6684 23.9903 23.6684 23.9903 23.7964 23.8266C26.2058 20.6356 28.2573 16.7259 28.9884 12.7188C28.8827 12.7188 28.7437 12.6169 28.6646 12.535C28.269 11.7985 28.241 11.3893 28.3477 10.565C28.9544 9.53995 29.6424 9.394 30.7501 9.57089Z" fill="white"/>
<path d="M30.0537 24.017C29.7529 24.017 29.5091 24.2608 29.5091 24.5616C29.5091 24.8623 29.7529 25.1062 30.0537 25.1062C30.3545 25.1062 30.5983 24.8623 30.5983 24.5616C30.5983 24.2608 30.3545 24.017 30.0537 24.017ZM29.9516 13.1689V24.5616H30.1558V13.1689H29.9516Z" fill="#2563EB"/>
<path d="M25.5317 41.7325L22.1129 45.1758L25.8503 50.457H23.4486L20.8018 46.5359L19.6867 47.6387V50.457H17.7997V41.7325H19.6867V45.3596L23.1177 41.7325H25.5317ZM26.6183 50.457V41.7325H28.5666L32.1569 47.5775V41.7325H33.9949V50.457H32.0834L28.4686 44.5998V50.457H26.6183ZM35.713 41.7325H39.4748C40.4551 41.7325 41.2271 41.9776 41.803 42.4432C42.3789 42.9089 42.673 43.6073 42.673 44.5386C42.673 45.4576 42.3789 46.156 41.8152 46.6217C41.2393 47.0873 40.4919 47.3201 39.5729 47.3201H37.6123V50.457H35.713V41.7325ZM37.6123 43.301V45.8129H39.3155C40.3081 45.8129 40.8105 45.3963 40.8105 44.5631C40.8105 43.7298 40.3081 43.301 39.3278 43.301H37.6123Z" fill="white"/>
<path d="M68.0952 28.25C67.7352 28.25 67.4952 28.01 67.4952 27.626V13.01C67.4952 12.65 67.7352 12.41 68.0952 12.41H70.6152C70.9752 12.41 71.2152 12.65 71.2152 13.01V19.202L77.2152 12.698C77.4552 12.458 77.7192 12.41 77.9592 12.41H80.7672C81.1992 12.41 81.4392 12.65 81.4392 12.938C81.4392 13.13 81.3912 13.322 81.2472 13.442L76.1832 19.13C79.1832 20.978 80.7192 24.77 81.1992 27.506C81.2472 27.818 81.0792 28.25 80.5752 28.25H78.1992C77.7672 28.25 77.2872 28.01 77.1672 27.578C76.5432 24.818 75.2472 22.466 73.5432 21.362L71.2152 23.666V27.626C71.2152 28.01 70.9752 28.25 70.6152 28.25H68.0952ZM84.0561 28.25C83.6961 28.25 83.4561 28.01 83.4561 27.626V20.786C83.4561 15.146 86.7441 11.978 90.6561 11.978C94.7601 11.978 97.7601 15.386 97.7601 20.786V27.626C97.7601 28.01 97.5201 28.25 97.1601 28.25H94.6401C94.2801 28.25 94.0401 28.01 94.0401 27.626V24.578H87.1521V27.626C87.1521 28.01 86.8881 28.25 86.5281 28.25H84.0561ZM87.1521 21.218H94.0401C94.0401 17.666 92.9121 15.338 90.5361 15.338C88.2081 15.338 87.1521 17.666 87.1521 21.218ZM106.938 28.25C102.522 28.25 100.026 26.786 100.026 22.25V13.01C100.026 12.65 100.266 12.41 100.626 12.41H103.146C103.506 12.41 103.746 12.65 103.746 13.01V21.578C103.746 25.058 105.162 24.89 107.538 24.89H110.97C111.33 24.89 111.594 25.13 111.594 25.49V27.626C111.594 28.01 111.33 28.25 110.97 28.25H106.938ZM114.033 28.25C113.673 28.25 113.433 28.01 113.433 27.626V20.786C113.433 15.146 116.721 11.978 120.633 11.978C124.737 11.978 127.737 15.386 127.737 20.786V27.626C127.737 28.01 127.497 28.25 127.137 28.25H124.617C124.257 28.25 124.017 28.01 124.017 27.626V24.578H117.129V27.626C117.129 28.01 116.865 28.25 116.505 28.25H114.033ZM117.129 21.218H124.017C124.017 17.666 122.889 15.338 120.513 15.338C118.185 15.338 117.129 17.666 117.129 21.218ZM130.603 28.25C130.243 28.25 130.003 28.01 130.003 27.626V13.01C130.003 12.65 130.243 12.41 130.603 12.41H134.659C135.019 12.41 135.259 12.578 135.499 12.938C135.811 13.37 138.067 17.426 139.483 21.026C140.827 17.426 143.083 13.37 143.395 12.938C143.635 12.578 143.899 12.41 144.259 12.41H148.291C148.651 12.41 148.915 12.65 148.915 13.01V27.626C148.915 28.01 148.651 28.25 148.291 28.25H145.795C145.411 28.25 145.171 28.01 145.171 27.626V16.802C143.707 18.818 141.931 22.682 141.139 25.802C141.067 26.042 140.827 26.234 140.587 26.234H137.947C137.707 26.234 137.467 26.042 137.395 25.802C136.483 22.202 134.707 18.89 133.363 16.994V27.626C133.363 28.01 133.123 28.25 132.739 28.25H130.603ZM173.588 28.49C172.292 28.49 170.876 27.938 169.532 26.762C168.02 25.466 166.556 23.378 165.332 20.426V27.626C165.332 28.01 165.092 28.25 164.708 28.25H162.572C162.212 28.25 161.972 28.01 161.972 27.626V13.034C161.972 12.65 162.212 12.41 162.572 12.41H165.524C165.764 12.41 165.932 12.53 166.004 12.77C166.388 14.018 167.444 16.25 168.764 18.65C170.78 22.322 172.556 24.338 173.588 24.338C174.212 24.338 174.644 23.786 174.644 22.61C174.644 19.874 174.404 16.97 173.972 13.178C173.924 12.746 174.14 12.386 174.644 12.386L176.9 12.41C177.26 12.41 177.476 12.794 177.5 13.082C177.788 15.986 178.052 19.562 178.052 22.37C178.052 27.218 175.916 28.49 173.588 28.49ZM186.66 28.25C182.58 28.25 180.204 25.106 180.06 20.186C179.94 15.89 182.58 12.41 186.732 12.41H191.82C192.18 12.41 192.42 12.65 192.42 13.01V15.146C192.42 15.53 192.18 15.77 191.82 15.77H187.212C185.316 15.77 184.092 16.466 183.804 18.65H190.164C190.524 18.65 190.764 18.89 190.764 19.25V21.386C190.764 21.77 190.524 22.01 190.164 22.01H183.828C184.164 24.122 185.412 24.89 187.356 24.89H191.82C192.204 24.89 192.444 25.13 192.444 25.49V27.626C192.444 28.01 192.204 28.25 191.82 28.25H186.66ZM200.53 28.562C195.802 28.562 194.026 19.442 194.026 13.25C194.026 12.578 194.194 12.41 194.626 12.41H197.194C197.506 12.41 197.818 12.458 197.818 12.938C197.818 18.53 199.738 24.938 200.674 24.938C201.202 24.938 202.018 22.25 203.53 13.202C203.602 12.89 203.842 12.77 204.082 12.77H206.794C207.034 12.77 207.274 12.89 207.322 13.202C208.69 22.25 209.962 25.058 210.514 25.058C212.002 25.058 213.13 18.53 213.13 12.938C213.13 12.458 213.442 12.41 213.754 12.41H216.13C216.538 12.41 216.73 12.578 216.73 13.25C216.73 19.442 215.074 28.562 210.322 28.562C208.378 28.562 206.05 27.458 205.186 20.474C204.154 27.146 202.498 28.562 200.53 28.562ZM225.316 28.562C222.628 28.562 220.42 28.058 218.692 27.218C218.452 27.098 218.332 26.834 218.452 26.474L219.196 24.506C219.316 24.218 219.628 24.026 219.988 24.146C222.124 24.89 223.9 25.178 225.868 25.178C227.092 25.178 228.004 24.77 228.004 24.026C228.004 23.018 225.772 22.37 223.492 21.458C221.092 20.474 218.644 19.178 218.644 16.802C218.644 14.306 220.3 12.026 225.124 12.026C227.356 12.026 229.18 12.554 230.716 13.178C231.076 13.322 231.268 13.706 231.148 14.066L230.596 15.866C230.476 16.274 230.092 16.466 229.684 16.346C228.004 15.842 226.42 15.338 224.956 15.338C223.468 15.338 222.388 15.794 222.388 16.538C222.388 17.234 224.116 17.738 226.084 18.482C228.7 19.466 231.748 20.858 231.748 23.714C231.748 25.994 229.9 28.562 225.316 28.562Z" fill="#2563EB"/>
<path d="M67.7091 49.75C67.4391 49.75 67.2591 49.57 67.2591 49.282V38.32C67.2591 38.05 67.4391 37.87 67.7091 37.87H73.0911C76.2951 37.87 77.9511 39.922 77.9511 42.046C77.9511 44.728 76.1151 46.384 72.0291 46.384C71.4171 46.384 70.7511 46.348 70.0491 46.276V49.282C70.0491 49.57 69.8691 49.75 69.5991 49.75H67.7091ZM71.7051 43.918C74.2431 43.918 75.1971 43.306 75.1971 42.046C75.1971 41.218 74.5131 40.39 73.0911 40.39H70.0491V43.846C70.6611 43.9 71.2191 43.918 71.7051 43.918ZM84.7365 49.984C81.4785 49.984 79.2825 47.824 79.2825 44.476V38.32C79.2825 38.05 79.4625 37.87 79.7325 37.87H81.6225C81.8925 37.87 82.0725 38.05 82.0725 38.32V44.566C82.0725 46.132 83.0445 47.446 84.8265 47.446C86.4825 47.446 87.4005 46.024 87.4005 44.476V38.32C87.4005 38.05 87.5805 37.87 87.8685 37.87H89.6505C89.9205 37.87 90.1185 38.05 90.1185 38.32V44.476C90.1185 47.824 87.9045 49.984 84.7365 49.984ZM92.2657 49.75C91.9957 49.75 91.8157 49.57 91.8157 49.282V38.32C91.8157 38.05 91.9957 37.87 92.2657 37.87H97.6477C100.438 37.87 101.824 39.382 101.824 41.164C101.824 42.28 101.248 43.252 99.9697 43.738C101.248 44.152 102.274 45.232 102.274 46.438C102.274 48.238 100.906 49.75 98.0977 49.75H92.2657ZM97.7017 42.604C98.6017 42.604 99.0877 42.01 99.0877 41.452C99.0877 40.912 98.7457 40.39 97.7557 40.39H94.6057V42.586L97.7017 42.604ZM94.6057 47.23H97.9177C99.1777 47.23 99.4837 46.546 99.4837 46.042C99.4837 45.466 99.0337 44.962 98.2777 44.962H94.6057V47.23ZM108.9 49.75C105.588 49.75 103.716 48.652 103.716 45.25V38.32C103.716 38.05 103.896 37.87 104.166 37.87H106.056C106.326 37.87 106.506 38.05 106.506 38.32V44.746C106.506 47.356 107.568 47.23 109.35 47.23H111.924C112.194 47.23 112.392 47.41 112.392 47.68V49.282C112.392 49.57 112.194 49.75 111.924 49.75H108.9ZM114.221 49.75C113.951 49.75 113.771 49.57 113.771 49.282V38.32C113.771 38.05 113.951 37.87 114.221 37.87H116.111C116.381 37.87 116.561 38.05 116.561 38.32V49.282C116.561 49.57 116.381 49.75 116.111 49.75H114.221ZM124.049 49.984C120.521 49.984 118.001 47.086 118.001 43.684C118.001 40.3 120.521 37.546 124.049 37.546C125.435 37.546 126.857 37.96 127.865 38.5C128.099 38.644 128.135 38.878 128.009 39.094L127.271 40.48C127.127 40.75 126.857 40.75 126.623 40.624C125.939 40.3 125.165 40.066 124.283 40.066C122.501 40.066 120.791 41.434 120.791 43.684C120.791 46.132 122.501 47.446 124.517 47.446C125.111 47.446 125.849 47.266 126.623 46.852C126.857 46.762 127.127 46.762 127.271 47.05L128.009 48.364C128.099 48.562 128.045 48.832 127.865 48.976C126.803 49.606 125.291 49.984 124.049 49.984ZM129.971 49.75C129.701 49.75 129.521 49.57 129.521 49.282V44.152C129.521 39.922 131.987 37.546 134.921 37.546C137.999 37.546 140.249 40.102 140.249 44.152V49.282C140.249 49.57 140.069 49.75 139.799 49.75H137.909C137.639 49.75 137.459 49.57 137.459 49.282V46.996H132.293V49.282C132.293 49.57 132.095 49.75 131.825 49.75H129.971ZM132.293 44.476H137.459C137.459 41.812 136.613 40.066 134.831 40.066C133.085 40.066 132.293 41.812 132.293 44.476ZM149.988 37.87C150.258 37.87 150.438 38.05 150.438 38.32V39.922C150.438 40.21 150.258 40.39 149.988 40.39H147.126V49.282C147.126 49.57 146.946 49.75 146.676 49.75H144.786C144.516 49.75 144.336 49.57 144.336 49.282V40.39H141.546C141.276 40.39 141.096 40.21 141.096 39.922V38.32C141.096 38.05 141.276 37.87 141.546 37.87H149.988ZM152.225 49.75C151.955 49.75 151.775 49.57 151.775 49.282V38.32C151.775 38.05 151.955 37.87 152.225 37.87H154.115C154.385 37.87 154.565 38.05 154.565 38.32V49.282C154.565 49.57 154.385 49.75 154.115 49.75H152.225ZM162.125 49.984C158.417 49.984 156.005 47.248 156.005 43.72C156.005 40.336 158.525 37.546 162.053 37.546C165.833 37.546 168.245 40.174 168.245 43.648C168.245 47.266 165.779 49.984 162.125 49.984ZM162.053 47.446C163.943 47.446 165.455 46.024 165.455 43.72C165.455 41.488 163.871 40.066 162.125 40.066C160.379 40.066 158.795 41.452 158.795 43.648C158.795 45.988 160.163 47.446 162.053 47.446ZM178.399 49.93C177.427 49.93 176.365 49.516 175.357 48.634C174.223 47.662 173.125 46.096 172.207 43.882V49.282C172.207 49.57 172.027 49.75 171.739 49.75H170.137C169.867 49.75 169.687 49.57 169.687 49.282V38.338C169.687 38.05 169.867 37.87 170.137 37.87H172.351C172.531 37.87 172.657 37.96 172.711 38.14C172.999 39.076 173.791 40.75 174.781 42.55C176.293 45.304 177.625 46.816 178.399 46.816C178.867 46.816 179.191 46.402 179.191 45.52C179.191 43.468 179.011 41.29 178.687 38.446C178.651 38.122 178.813 37.852 179.191 37.852L180.883 37.87C181.153 37.87 181.315 38.158 181.333 38.374C181.549 40.552 181.747 43.234 181.747 45.34C181.747 48.976 180.145 49.93 178.399 49.93Z" fill="#2563EB"/>
<defs>
<linearGradient id="paint0_linear_1930_4103" x1="6.8662" y1="9.08451" x2="51.8662" y2="50.7042" gradientUnits="userSpaceOnUse">
<stop offset="0.275" stop-color="#4B84FF"/>
<stop offset="1" stop-color="#00329E"/>
</linearGradient>
</defs>
</svg>
