<svg width="24" height="24" viewBox="0 0 24 24" fill="none" xmlns="http://www.w3.org/2000/svg">
<path d="M12 1C18.0751 1 23 5.92487 23 12C23 18.0751 18.0751 23 12 23C5.92487 23 1 18.0751 1 12C1 5.92487 5.92487 1 12 1ZM12 2.83333C6.93739 2.83333 2.83333 6.93739 2.83333 12C2.83333 17.0626 6.93739 21.1667 12 21.1667C17.0626 21.1667 21.1667 17.0626 21.1667 12C21.1667 6.93739 17.0626 2.83333 12 2.83333ZM12 16.5833C12.7594 16.5833 13.375 17.1989 13.375 17.9583C13.375 18.7177 12.7594 19.3333 12 19.3333C11.2406 19.3333 10.625 18.7177 10.625 17.9583C10.625 17.1989 11.2406 16.5833 12 16.5833ZM12 5.58333C14.025 5.58333 15.6667 7.22496 15.6667 9.25C15.6667 10.5893 15.2784 11.3394 14.2844 12.3812L13.8003 12.8753C13.1083 13.5969 12.9167 13.9857 12.9167 14.75C12.9167 15.2563 12.5063 15.6667 12 15.6667C11.4937 15.6667 11.0833 15.2563 11.0833 14.75C11.0833 13.4107 11.4716 12.6606 12.4656 11.6188L12.9497 11.1247C13.6417 10.4031 13.8333 10.0143 13.8333 9.25C13.8333 8.23748 13.0125 7.41667 12 7.41667C10.9875 7.41667 10.1667 8.23748 10.1667 9.25C10.1667 9.75626 9.75626 10.1667 9.25 10.1667C8.74374 10.1667 8.33333 9.75626 8.33333 9.25C8.33333 7.22496 9.97496 5.58333 12 5.58333Z" fill="#2F3337"/>
</svg>
