<svg width="21" height="20" viewBox="0 0 21 20" fill="none" xmlns="http://www.w3.org/2000/svg">
<path d="M18.596 11.0636L17.3852 6.81762C17.2438 6.33336 16.9497 5.90781 16.5466 5.60448C16.1436 5.30115 15.6532 5.13633 15.1488 5.13462H13.8838C13.7155 5.13462 13.554 5.20148 13.435 5.32049C13.316 5.4395 13.2492 5.60092 13.2492 5.76923C13.2492 5.93754 13.316 6.09896 13.435 6.21797C13.554 6.33699 13.7155 6.40385 13.8838 6.40385H15.1488C15.6175 6.40385 16.0355 6.71862 16.165 7.16708L17.0332 10.2115H14.7308C13.9142 10.2115 13.25 10.8758 13.25 11.6923C13.25 12.2753 12.7753 12.75 12.1923 12.75H8.80769C8.22469 12.75 7.75 12.2753 7.75 11.6923C7.75 10.8758 7.08577 10.2115 6.26923 10.2115H3.96685L4.83415 7.16877C4.89815 6.94859 5.03175 6.75506 5.21495 6.61716C5.39815 6.47927 5.62109 6.40443 5.85038 6.40385H7.11538C7.2837 6.40385 7.44511 6.33699 7.56413 6.21797C7.68314 6.09896 7.75 5.93754 7.75 5.76923C7.75 5.60092 7.68314 5.4395 7.56413 5.32049C7.44511 5.20148 7.2837 5.13462 7.11538 5.13462H5.85038C5.34569 5.1363 4.8551 5.30132 4.45198 5.60499C4.04886 5.90866 3.75488 6.33467 3.614 6.81931L2.404 11.0636C2.30177 11.4219 2.24994 11.7927 2.25 12.1653V15.9231C2.25045 16.5401 2.49575 17.1317 2.93204 17.568C3.36832 18.0042 3.95992 18.2496 4.57692 18.25H16.4231C17.0401 18.2496 17.6317 18.0042 18.068 17.568C18.5042 17.1317 18.7496 16.5401 18.75 15.9231V12.1653C18.75 11.793 18.6984 11.4224 18.596 11.0636ZM17.4808 15.9231C17.4808 16.5061 17.0061 16.9808 16.4231 16.9808H4.57692C3.99392 16.9808 3.51923 16.5061 3.51923 15.9231V12.1653C3.51923 11.9529 3.54969 11.7422 3.59792 11.5358C3.6341 11.502 3.68129 11.4824 3.73077 11.4808H6.26923C6.32533 11.4808 6.37914 11.5031 6.41881 11.5427C6.45848 11.5824 6.48077 11.6362 6.48077 11.6923C6.48122 12.3093 6.72652 12.9009 7.1628 13.3372C7.59909 13.7735 8.19069 14.0188 8.80769 14.0192H12.1923C12.8093 14.0188 13.4009 13.7735 13.8372 13.3372C14.2735 12.9009 14.5188 12.3093 14.5192 11.6923C14.5192 11.6362 14.5415 11.5824 14.5812 11.5427C14.6209 11.5031 14.6747 11.4808 14.7308 11.4808H17.2692C17.3208 11.4808 17.3648 11.5045 17.4021 11.5358C17.4503 11.7422 17.4808 11.9529 17.4808 12.1653V15.9231ZM8.36092 8.77054C8.30175 8.71181 8.25473 8.64201 8.22254 8.56511C8.19034 8.48821 8.17361 8.40572 8.1733 8.32235C8.17266 8.15399 8.23894 7.99227 8.35754 7.87277C8.47614 7.75327 8.63736 7.68578 8.80572 7.68514C8.97409 7.68451 9.13581 7.75078 9.25531 7.86938L9.86623 8.47523V2.38462C9.86623 2.2163 9.93309 2.05489 10.0521 1.93587C10.1711 1.81686 10.3325 1.75 10.5008 1.75C10.6692 1.75 10.8306 1.81686 10.9496 1.93587C11.0686 2.05489 11.1355 2.2163 11.1355 2.38462V8.45154L11.7413 7.83638C11.7998 7.77699 11.8694 7.7297 11.9462 7.69722C12.023 7.66474 12.1054 7.64769 12.1888 7.64707C12.2722 7.64644 12.3548 7.66223 12.4321 7.69356C12.5093 7.72488 12.5797 7.77111 12.6391 7.82962C12.6985 7.88812 12.7458 7.95775 12.7782 8.03453C12.8107 8.11131 12.8278 8.19373 12.8284 8.2771C12.829 8.36046 12.8132 8.44314 12.7819 8.5204C12.7506 8.59766 12.7044 8.66799 12.6458 8.72739L10.9535 10.4451C10.8949 10.5046 10.8252 10.552 10.7482 10.5846C10.6712 10.6171 10.5886 10.6341 10.5051 10.6346H10.5017C10.4188 10.6347 10.3366 10.6185 10.26 10.5868C10.1833 10.5552 10.1136 10.5087 10.0549 10.4502L8.36262 8.77054H8.36092Z" fill="black"/>
</svg>
