<svg width="16" height="16" viewBox="0 0 16 16" fill="none" xmlns="http://www.w3.org/2000/svg">
<g clip-path="url(#clip0_4890_14881)">
<path d="M8.5 7.5H16V0.5C16 0.367392 15.9473 0.240215 15.8536 0.146447C15.7598 0.0526784 15.6326 0 15.5 0L8.5 0V7.5Z" fill="#4CAF50"/>
<path d="M7.5 7.5V0H0.5C0.367392 0 0.240215 0.0526784 0.146447 0.146447C0.0526784 0.240215 0 0.367392 0 0.5L0 7.5H7.5Z" fill="#F44336"/>
<path d="M7.5 8.5H0V15.5C0 15.6326 0.0526784 15.7598 0.146447 15.8536C0.240215 15.9473 0.367392 16 0.5 16H7.5V8.5Z" fill="#2196F3"/>
<path d="M8.5 8.5V16H15.5C15.6326 16 15.7598 15.9473 15.8536 15.8536C15.9473 15.7598 16 15.6326 16 15.5V8.5H8.5Z" fill="#FFC107"/>
</g>
<defs>
<clipPath id="clip0_4890_14881">
<rect width="16" height="16" fill="white"/>
</clipPath>
</defs>
</svg>
