<svg width="21" height="21" viewBox="0 0 21 21" fill="none" xmlns="http://www.w3.org/2000/svg">
<path fill-rule="evenodd" clip-rule="evenodd" d="M10.7793 9.41062C13.44 10.4131 15.3343 12.9831 15.3343 15.9925C15.3343 16.9112 14.73 17.6937 13.6643 18.245C12.3637 18.9175 10.335 19.2694 8.30371 19.2694C6.27184 19.2694 4.24308 18.9175 2.94308 18.245C1.87745 17.6937 1.27246 16.9112 1.27246 15.9925C1.27246 12.9831 3.16745 10.4131 5.82808 9.41062C4.7662 8.64249 4.07496 7.39311 4.07496 5.98374C4.07496 3.64999 5.96996 1.75562 8.30371 1.75562C10.6375 1.75562 12.5318 3.64999 12.5318 5.98374C12.5318 7.39311 11.8406 8.64249 10.7793 9.41062ZM8.30371 10.2119C5.11309 10.2119 2.52246 12.8019 2.52246 15.9925C2.52246 16.4887 2.94183 16.8369 3.51746 17.1344C4.67683 17.7344 6.49184 18.0194 8.30371 18.0194C10.1156 18.0194 11.93 17.7344 13.09 17.1344C13.665 16.8369 14.0843 16.4887 14.0843 15.9925C14.0843 12.8019 11.4943 10.2119 8.30371 10.2119ZM8.30371 8.96186C9.94746 8.96186 11.2818 7.62749 11.2818 5.98374C11.2818 4.33999 9.94746 3.00562 8.30371 3.00562C6.65996 3.00562 5.32496 4.33999 5.32496 5.98374C5.32496 7.62749 6.65996 8.96186 8.30371 8.96186ZM15.3343 8.93749H13.7718C13.4268 8.93749 13.1468 8.65749 13.1468 8.31249C13.1468 7.96749 13.4268 7.68749 13.7718 7.68749H15.3343V6.12499C15.3343 5.77999 15.6143 5.49999 15.9593 5.49999C16.3043 5.49999 16.5843 5.77999 16.5843 6.12499V7.68749H18.1468C18.4918 7.68749 18.7718 7.96749 18.7718 8.31249C18.7718 8.65749 18.4918 8.93749 18.1468 8.93749H16.5843V10.5C16.5843 10.845 16.3043 11.125 15.9593 11.125C15.6143 11.125 15.3343 10.845 15.3343 10.5V8.93749Z" fill="#2F3337"/>
</svg>
