<svg width="21" height="21" viewBox="0 0 21 21" fill="none" xmlns="http://www.w3.org/2000/svg">
<g clip-path="url(#clip0_4327_16908)">
<mask id="path-1-outside-1_4327_16908" maskUnits="userSpaceOnUse" x="0.271484" y="1.14062" width="19" height="19" fill="black">
<rect fill="white" x="0.271484" y="1.14062" width="19" height="19"/>
<path d="M3.14648 18.8594H9.39648C9.8936 18.8588 10.3702 18.6611 10.7217 18.3096C11.0732 17.9581 11.2709 17.4815 11.2715 16.9844V13.5469C11.2706 12.8012 10.9741 12.0863 10.4468 11.5591C9.91953 11.0318 9.20465 10.7352 8.45898 10.7344H4.08398C3.33832 10.7352 2.62344 11.0318 2.09617 11.5591C1.56891 12.0863 1.27232 12.8012 1.27148 13.5469V16.9844C1.27203 17.4815 1.46975 17.9581 1.82126 18.3096C2.17277 18.6611 2.64937 18.8588 3.14648 18.8594ZM1.89648 13.5469C1.89716 12.9669 2.12785 12.4109 2.53794 12.0008C2.94802 11.5907 3.50403 11.3601 4.08398 11.3594H8.45898C9.03894 11.3601 9.59494 11.5907 10.005 12.0008C10.4151 12.4109 10.6458 12.9669 10.6465 13.5469V16.9844C10.6461 17.3158 10.5143 17.6335 10.28 17.8679C10.0456 18.1022 9.7279 18.234 9.39648 18.2344H3.14648C2.81507 18.234 2.49733 18.1022 2.26299 17.8679C2.02865 17.6335 1.89684 17.3158 1.89648 16.9844V13.5469ZM6.27148 9.64062C6.97572 9.63981 7.65087 9.3597 8.14884 8.86173C8.64681 8.36376 8.92692 7.68861 8.92773 6.98438V5.89062C8.92719 5.39351 8.72947 4.91691 8.37796 4.5654C8.02645 4.21389 7.54985 4.01617 7.05273 4.01562H5.49023C4.99312 4.01617 4.51652 4.21389 4.16501 4.5654C3.8135 4.91691 3.61578 5.39351 3.61523 5.89062V6.98438C3.61605 7.68861 3.89616 8.36376 4.39413 8.86173C4.8921 9.3597 5.56725 9.63981 6.27148 9.64062ZM4.24023 5.89062C4.24059 5.55921 4.3724 5.24148 4.60674 5.00713C4.84108 4.77279 5.15882 4.64098 5.49023 4.64062H7.05273C7.38415 4.64098 7.70188 4.77279 7.93623 5.00713C8.17057 5.24148 8.30238 5.55921 8.30273 5.89062V6.98438C8.20747 9.67238 4.33537 9.67237 4.24023 6.98434V5.89062Z"/>
<path d="M15.959 8.85938H11.4277C10.9527 8.85819 10.4862 8.98513 10.0773 9.22681C10.0078 9.27003 9.95796 9.33881 9.93859 9.41837C9.91922 9.49794 9.93183 9.58192 9.97373 9.65228C10.0156 9.72264 10.0835 9.77375 10.1626 9.79462C10.2418 9.81549 10.326 9.80447 10.3972 9.76391C10.7093 9.5797 11.0653 9.48313 11.4277 9.48438H15.959C16.5389 9.48505 17.0949 9.71574 17.505 10.1258C17.9151 10.5359 18.1458 11.0919 18.1465 11.6719V15.1094C18.1461 15.4408 18.0143 15.7585 17.78 15.9929C17.5456 16.2272 17.2279 16.359 16.8965 16.3594H12.834C12.7519 16.3606 12.6736 16.3941 12.616 16.4525C12.5584 16.511 12.5261 16.5898 12.5261 16.6719C12.5261 16.754 12.5584 16.8328 12.616 16.8912C12.6736 16.9497 12.7519 16.9832 12.834 16.9844H16.8965C17.3936 16.9838 17.8702 16.7861 18.2217 16.4346C18.5732 16.0831 18.7709 15.6065 18.7715 15.1094V11.6719C18.7706 10.9262 18.4741 10.2113 17.9468 9.68407C17.4195 9.1568 16.7046 8.86022 15.959 8.85938ZM13.7715 7.76562C14.4757 7.76481 15.1509 7.4847 15.6488 6.98673C16.1468 6.48876 16.4269 5.81361 16.4277 5.10938V4.01562C16.4272 3.51851 16.2295 3.04191 15.878 2.6904C15.5264 2.33889 15.0498 2.14117 14.5527 2.14062H12.9902C12.4931 2.14117 12.0165 2.33889 11.665 2.6904C11.3135 3.04191 11.1158 3.51851 11.1152 4.01562V5.10938C11.116 5.81361 11.3962 6.48876 11.8941 6.98673C12.3921 7.4847 13.0673 7.76481 13.7715 7.76562ZM11.7402 4.01562C11.7406 3.68421 11.8724 3.36648 12.1067 3.13213C12.3411 2.89779 12.6588 2.76598 12.9902 2.76562H14.5527C14.8841 2.76598 15.2019 2.89779 15.4362 3.13213C15.6706 3.36648 15.8024 3.68421 15.8027 4.01562V5.10938C15.7075 7.79738 11.8354 7.79737 11.7402 5.10934V4.01562Z"/>
<path d="M15.6465 12.6094C15.6054 12.6094 15.5648 12.6174 15.5269 12.6331C15.489 12.6488 15.4545 12.6719 15.4255 12.7009C15.3965 12.7299 15.3735 12.7644 15.3577 12.8023C15.342 12.8402 15.334 12.8808 15.334 12.9219V13.5469H14.709C14.6261 13.5469 14.5466 13.5798 14.488 13.6384C14.4294 13.697 14.3965 13.7765 14.3965 13.8594C14.3965 13.9423 14.4294 14.0217 14.488 14.0803C14.5466 14.139 14.6261 14.1719 14.709 14.1719H15.334V14.7969C15.334 14.8798 15.3669 14.9592 15.4255 15.0178C15.4841 15.0765 15.5636 15.1094 15.6465 15.1094C15.7294 15.1094 15.8089 15.0765 15.8675 15.0178C15.9261 14.9592 15.959 14.8798 15.959 14.7969V14.1719H16.584C16.6669 14.1719 16.7464 14.139 16.805 14.0803C16.8636 14.0217 16.8965 13.9423 16.8965 13.8594C16.8965 13.7765 16.8636 13.697 16.805 13.6384C16.7464 13.5798 16.6669 13.5469 16.584 13.5469H15.959V12.9219C15.959 12.8808 15.9509 12.8402 15.9352 12.8023C15.9195 12.7644 15.8965 12.7299 15.8675 12.7009C15.8385 12.6719 15.804 12.6488 15.7661 12.6331C15.7282 12.6174 15.6875 12.6094 15.6465 12.6094Z"/>
</mask>
<path d="M3.14648 18.8594H9.39648C9.8936 18.8588 10.3702 18.6611 10.7217 18.3096C11.0732 17.9581 11.2709 17.4815 11.2715 16.9844V13.5469C11.2706 12.8012 10.9741 12.0863 10.4468 11.5591C9.91953 11.0318 9.20465 10.7352 8.45898 10.7344H4.08398C3.33832 10.7352 2.62344 11.0318 2.09617 11.5591C1.56891 12.0863 1.27232 12.8012 1.27148 13.5469V16.9844C1.27203 17.4815 1.46975 17.9581 1.82126 18.3096C2.17277 18.6611 2.64937 18.8588 3.14648 18.8594ZM1.89648 13.5469C1.89716 12.9669 2.12785 12.4109 2.53794 12.0008C2.94802 11.5907 3.50403 11.3601 4.08398 11.3594H8.45898C9.03894 11.3601 9.59494 11.5907 10.005 12.0008C10.4151 12.4109 10.6458 12.9669 10.6465 13.5469V16.9844C10.6461 17.3158 10.5143 17.6335 10.28 17.8679C10.0456 18.1022 9.7279 18.234 9.39648 18.2344H3.14648C2.81507 18.234 2.49733 18.1022 2.26299 17.8679C2.02865 17.6335 1.89684 17.3158 1.89648 16.9844V13.5469ZM6.27148 9.64062C6.97572 9.63981 7.65087 9.3597 8.14884 8.86173C8.64681 8.36376 8.92692 7.68861 8.92773 6.98438V5.89062C8.92719 5.39351 8.72947 4.91691 8.37796 4.5654C8.02645 4.21389 7.54985 4.01617 7.05273 4.01562H5.49023C4.99312 4.01617 4.51652 4.21389 4.16501 4.5654C3.8135 4.91691 3.61578 5.39351 3.61523 5.89062V6.98438C3.61605 7.68861 3.89616 8.36376 4.39413 8.86173C4.8921 9.3597 5.56725 9.63981 6.27148 9.64062ZM4.24023 5.89062C4.24059 5.55921 4.3724 5.24148 4.60674 5.00713C4.84108 4.77279 5.15882 4.64098 5.49023 4.64062H7.05273C7.38415 4.64098 7.70188 4.77279 7.93623 5.00713C8.17057 5.24148 8.30238 5.55921 8.30273 5.89062V6.98438C8.20747 9.67238 4.33537 9.67237 4.24023 6.98434V5.89062Z" fill="#2F3337"/>
<path d="M15.959 8.85938H11.4277C10.9527 8.85819 10.4862 8.98513 10.0773 9.22681C10.0078 9.27003 9.95796 9.33881 9.93859 9.41837C9.91922 9.49794 9.93183 9.58192 9.97373 9.65228C10.0156 9.72264 10.0835 9.77375 10.1626 9.79462C10.2418 9.81549 10.326 9.80447 10.3972 9.76391C10.7093 9.5797 11.0653 9.48313 11.4277 9.48438H15.959C16.5389 9.48505 17.0949 9.71574 17.505 10.1258C17.9151 10.5359 18.1458 11.0919 18.1465 11.6719V15.1094C18.1461 15.4408 18.0143 15.7585 17.78 15.9929C17.5456 16.2272 17.2279 16.359 16.8965 16.3594H12.834C12.7519 16.3606 12.6736 16.3941 12.616 16.4525C12.5584 16.511 12.5261 16.5898 12.5261 16.6719C12.5261 16.754 12.5584 16.8328 12.616 16.8912C12.6736 16.9497 12.7519 16.9832 12.834 16.9844H16.8965C17.3936 16.9838 17.8702 16.7861 18.2217 16.4346C18.5732 16.0831 18.7709 15.6065 18.7715 15.1094V11.6719C18.7706 10.9262 18.4741 10.2113 17.9468 9.68407C17.4195 9.1568 16.7046 8.86022 15.959 8.85938ZM13.7715 7.76562C14.4757 7.76481 15.1509 7.4847 15.6488 6.98673C16.1468 6.48876 16.4269 5.81361 16.4277 5.10938V4.01562C16.4272 3.51851 16.2295 3.04191 15.878 2.6904C15.5264 2.33889 15.0498 2.14117 14.5527 2.14062H12.9902C12.4931 2.14117 12.0165 2.33889 11.665 2.6904C11.3135 3.04191 11.1158 3.51851 11.1152 4.01562V5.10938C11.116 5.81361 11.3962 6.48876 11.8941 6.98673C12.3921 7.4847 13.0673 7.76481 13.7715 7.76562ZM11.7402 4.01562C11.7406 3.68421 11.8724 3.36648 12.1067 3.13213C12.3411 2.89779 12.6588 2.76598 12.9902 2.76562H14.5527C14.8841 2.76598 15.2019 2.89779 15.4362 3.13213C15.6706 3.36648 15.8024 3.68421 15.8027 4.01562V5.10938C15.7075 7.79738 11.8354 7.79737 11.7402 5.10934V4.01562Z" fill="#2F3337"/>
<path d="M15.6465 12.6094C15.6054 12.6094 15.5648 12.6174 15.5269 12.6331C15.489 12.6488 15.4545 12.6719 15.4255 12.7009C15.3965 12.7299 15.3735 12.7644 15.3577 12.8023C15.342 12.8402 15.334 12.8808 15.334 12.9219V13.5469H14.709C14.6261 13.5469 14.5466 13.5798 14.488 13.6384C14.4294 13.697 14.3965 13.7765 14.3965 13.8594C14.3965 13.9423 14.4294 14.0217 14.488 14.0803C14.5466 14.139 14.6261 14.1719 14.709 14.1719H15.334V14.7969C15.334 14.8798 15.3669 14.9592 15.4255 15.0178C15.4841 15.0765 15.5636 15.1094 15.6465 15.1094C15.7294 15.1094 15.8089 15.0765 15.8675 15.0178C15.9261 14.9592 15.959 14.8798 15.959 14.7969V14.1719H16.584C16.6669 14.1719 16.7464 14.139 16.805 14.0803C16.8636 14.0217 16.8965 13.9423 16.8965 13.8594C16.8965 13.7765 16.8636 13.697 16.805 13.6384C16.7464 13.5798 16.6669 13.5469 16.584 13.5469H15.959V12.9219C15.959 12.8808 15.9509 12.8402 15.9352 12.8023C15.9195 12.7644 15.8965 12.7299 15.8675 12.7009C15.8385 12.6719 15.804 12.6488 15.7661 12.6331C15.7282 12.6174 15.6875 12.6094 15.6465 12.6094Z" fill="#2F3337"/>
<path d="M3.14648 18.8594H9.39648C9.8936 18.8588 10.3702 18.6611 10.7217 18.3096C11.0732 17.9581 11.2709 17.4815 11.2715 16.9844V13.5469C11.2706 12.8012 10.9741 12.0863 10.4468 11.5591C9.91953 11.0318 9.20465 10.7352 8.45898 10.7344H4.08398C3.33832 10.7352 2.62344 11.0318 2.09617 11.5591C1.56891 12.0863 1.27232 12.8012 1.27148 13.5469V16.9844C1.27203 17.4815 1.46975 17.9581 1.82126 18.3096C2.17277 18.6611 2.64937 18.8588 3.14648 18.8594ZM1.89648 13.5469C1.89716 12.9669 2.12785 12.4109 2.53794 12.0008C2.94802 11.5907 3.50403 11.3601 4.08398 11.3594H8.45898C9.03894 11.3601 9.59494 11.5907 10.005 12.0008C10.4151 12.4109 10.6458 12.9669 10.6465 13.5469V16.9844C10.6461 17.3158 10.5143 17.6335 10.28 17.8679C10.0456 18.1022 9.7279 18.234 9.39648 18.2344H3.14648C2.81507 18.234 2.49733 18.1022 2.26299 17.8679C2.02865 17.6335 1.89684 17.3158 1.89648 16.9844V13.5469ZM6.27148 9.64062C6.97572 9.63981 7.65087 9.3597 8.14884 8.86173C8.64681 8.36376 8.92692 7.68861 8.92773 6.98438V5.89062C8.92719 5.39351 8.72947 4.91691 8.37796 4.5654C8.02645 4.21389 7.54985 4.01617 7.05273 4.01562H5.49023C4.99312 4.01617 4.51652 4.21389 4.16501 4.5654C3.8135 4.91691 3.61578 5.39351 3.61523 5.89062V6.98438C3.61605 7.68861 3.89616 8.36376 4.39413 8.86173C4.8921 9.3597 5.56725 9.63981 6.27148 9.64062ZM4.24023 5.89062C4.24059 5.55921 4.3724 5.24148 4.60674 5.00713C4.84108 4.77279 5.15882 4.64098 5.49023 4.64062H7.05273C7.38415 4.64098 7.70188 4.77279 7.93623 5.00713C8.17057 5.24148 8.30238 5.55921 8.30273 5.89062V6.98438C8.20747 9.67238 4.33537 9.67237 4.24023 6.98434V5.89062Z" stroke="#2F3337" stroke-width="0.6" mask="url(#path-1-outside-1_4327_16908)"/>
<path d="M15.959 8.85938H11.4277C10.9527 8.85819 10.4862 8.98513 10.0773 9.22681C10.0078 9.27003 9.95796 9.33881 9.93859 9.41837C9.91922 9.49794 9.93183 9.58192 9.97373 9.65228C10.0156 9.72264 10.0835 9.77375 10.1626 9.79462C10.2418 9.81549 10.326 9.80447 10.3972 9.76391C10.7093 9.5797 11.0653 9.48313 11.4277 9.48438H15.959C16.5389 9.48505 17.0949 9.71574 17.505 10.1258C17.9151 10.5359 18.1458 11.0919 18.1465 11.6719V15.1094C18.1461 15.4408 18.0143 15.7585 17.78 15.9929C17.5456 16.2272 17.2279 16.359 16.8965 16.3594H12.834C12.7519 16.3606 12.6736 16.3941 12.616 16.4525C12.5584 16.511 12.5261 16.5898 12.5261 16.6719C12.5261 16.754 12.5584 16.8328 12.616 16.8912C12.6736 16.9497 12.7519 16.9832 12.834 16.9844H16.8965C17.3936 16.9838 17.8702 16.7861 18.2217 16.4346C18.5732 16.0831 18.7709 15.6065 18.7715 15.1094V11.6719C18.7706 10.9262 18.4741 10.2113 17.9468 9.68407C17.4195 9.1568 16.7046 8.86022 15.959 8.85938ZM13.7715 7.76562C14.4757 7.76481 15.1509 7.4847 15.6488 6.98673C16.1468 6.48876 16.4269 5.81361 16.4277 5.10938V4.01562C16.4272 3.51851 16.2295 3.04191 15.878 2.6904C15.5264 2.33889 15.0498 2.14117 14.5527 2.14062H12.9902C12.4931 2.14117 12.0165 2.33889 11.665 2.6904C11.3135 3.04191 11.1158 3.51851 11.1152 4.01562V5.10938C11.116 5.81361 11.3962 6.48876 11.8941 6.98673C12.3921 7.4847 13.0673 7.76481 13.7715 7.76562ZM11.7402 4.01562C11.7406 3.68421 11.8724 3.36648 12.1067 3.13213C12.3411 2.89779 12.6588 2.76598 12.9902 2.76562H14.5527C14.8841 2.76598 15.2019 2.89779 15.4362 3.13213C15.6706 3.36648 15.8024 3.68421 15.8027 4.01562V5.10938C15.7075 7.79738 11.8354 7.79737 11.7402 5.10934V4.01562Z" stroke="#2F3337" stroke-width="0.6" mask="url(#path-1-outside-1_4327_16908)"/>
<path d="M15.6465 12.6094C15.6054 12.6094 15.5648 12.6174 15.5269 12.6331C15.489 12.6488 15.4545 12.6719 15.4255 12.7009C15.3965 12.7299 15.3735 12.7644 15.3577 12.8023C15.342 12.8402 15.334 12.8808 15.334 12.9219V13.5469H14.709C14.6261 13.5469 14.5466 13.5798 14.488 13.6384C14.4294 13.697 14.3965 13.7765 14.3965 13.8594C14.3965 13.9423 14.4294 14.0217 14.488 14.0803C14.5466 14.139 14.6261 14.1719 14.709 14.1719H15.334V14.7969C15.334 14.8798 15.3669 14.9592 15.4255 15.0178C15.4841 15.0765 15.5636 15.1094 15.6465 15.1094C15.7294 15.1094 15.8089 15.0765 15.8675 15.0178C15.9261 14.9592 15.959 14.8798 15.959 14.7969V14.1719H16.584C16.6669 14.1719 16.7464 14.139 16.805 14.0803C16.8636 14.0217 16.8965 13.9423 16.8965 13.8594C16.8965 13.7765 16.8636 13.697 16.805 13.6384C16.7464 13.5798 16.6669 13.5469 16.584 13.5469H15.959V12.9219C15.959 12.8808 15.9509 12.8402 15.9352 12.8023C15.9195 12.7644 15.8965 12.7299 15.8675 12.7009C15.8385 12.6719 15.804 12.6488 15.7661 12.6331C15.7282 12.6174 15.6875 12.6094 15.6465 12.6094Z" stroke="#2F3337" stroke-width="0.6" mask="url(#path-1-outside-1_4327_16908)"/>
</g>
<defs>
<clipPath id="clip0_4327_16908">
<rect width="20" height="20" fill="white" transform="translate(0.0214844 0.5)"/>
</clipPath>
</defs>
</svg>
