<svg width="30" height="30" viewBox="0 0 30 30" fill="none" xmlns="http://www.w3.org/2000/svg">
<path d="M17.9973 5.73178V5.26184C17.9973 4.02021 16.9907 3.01368 15.7491 3.01368H14.2509C13.0093 3.01368 12.0028 4.02024 12.0028 5.26184V5.73178C11.5088 5.89169 11.0285 6.09103 10.5665 6.32788L10.2337 5.99501C10.0249 5.7861 9.77701 5.62038 9.50415 5.50734C9.23134 5.39432 8.93894 5.33617 8.64365 5.3362L17.9973 5.73178ZM17.9973 5.73178C18.4912 5.89169 18.9715 6.09103 19.4335 6.32787L19.7664 5.995C19.9751 5.78608 20.2231 5.62037 20.4959 5.50733C20.7688 5.39431 21.0612 5.33616 21.3565 5.3362L17.9973 5.73178ZM6.20028 21.9298L5.50742 22.2169C5.62043 22.4896 5.78606 22.7374 5.99484 22.946L5.99504 22.9462M6.20028 21.9298L8.07032 23.7998C7.88858 23.7245 7.72346 23.6141 7.58441 23.4749L6.52516 22.4157L5.99504 22.9462M6.20028 21.9298L5.50742 22.2169C5.3944 21.9442 5.33621 21.6519 5.3362 21.3566L6.20028 21.9298ZM5.99504 22.9462L7.05383 24.005M5.99504 22.9462L7.05383 24.005M6.32787 19.4335L5.99499 19.7664C5.99495 19.7664 5.9949 19.7665 5.99485 19.7665C5.786 19.9753 5.62034 20.2231 5.50732 20.4959C5.39431 20.7688 5.33616 21.0612 5.3362 21.3565L6.32787 19.4335ZM6.32787 19.4335C6.09103 18.9715 5.8917 18.4912 5.73179 17.9973H5.26189C4.0203 17.9973 3.01367 16.9907 3.01367 15.7492V14.2509C3.01367 13.0094 4.0203 12.0028 5.26189 12.0028H5.73179C5.8917 11.5088 6.09103 11.0286 6.32787 10.5665L5.99502 10.2337C5.99497 10.2337 5.99491 10.2336 5.99485 10.2335C5.786 10.0248 5.62034 9.77695 5.50732 9.50415C5.3943 9.23135 5.33615 8.93894 5.3362 8.64364L6.32787 19.4335ZM7.05383 24.005C7.05392 24.005 7.05401 24.0051 7.05409 24.0052C7.26275 24.214 7.5105 24.3796 7.78318 24.4926C8.0559 24.6057 8.34821 24.6638 8.64341 24.6638L7.05383 24.005ZM20.783 23.7998L20.4959 24.4927C20.7687 24.6058 21.0611 24.6639 21.3564 24.6638L20.783 23.7998ZM20.783 23.7998L20.4959 24.4927C20.223 24.3797 19.9751 24.214 19.7663 24.005L19.4335 23.6722C18.9715 23.9091 18.4913 24.1084 17.9973 24.2683V24.7382C17.9973 25.9798 16.9907 26.9864 15.7491 26.9864H14.2509C13.0093 26.9864 12.0028 25.9798 12.0028 24.7382V24.2683C11.5088 24.1084 11.0285 23.909 10.5665 23.6722L10.2337 24.005C10.0249 24.214 9.77703 24.3797 9.50415 24.4927C9.23136 24.6057 8.93897 24.6639 8.64369 24.6638L20.783 23.7998ZM24.4926 7.78319C24.3796 7.5105 24.214 7.26276 24.0052 7.0541L24.4926 7.78319ZM24.4926 7.78319C24.6057 8.0559 24.6638 8.3482 24.6638 8.6434L24.4926 7.78319ZM22.2169 24.4926C22.4896 24.3796 22.7373 24.214 22.946 24.0052L22.2169 24.4926ZM22.2169 24.4926C21.9442 24.6057 21.6519 24.6638 21.3567 24.6638L22.2169 24.4926ZM7.78319 5.50742C7.5105 5.62043 7.26274 5.78606 7.05408 5.99484L7.78319 5.50742ZM7.78319 5.50742C8.05592 5.39439 8.34824 5.33621 8.64345 5.3362L7.78319 5.50742ZM21.3566 5.3362C21.6518 5.33622 21.9442 5.39441 22.2169 5.50743C22.4896 5.62044 22.7373 5.78607 22.946 5.99485C22.9461 5.99491 22.9461 5.99497 22.9462 5.99503L24.005 7.05385L21.3566 5.3362ZM5.3362 8.64344C5.33621 8.34823 5.3944 8.05592 5.50742 7.7832L6.20028 8.07034L5.50742 7.7832C5.62043 7.51051 5.78605 7.26275 5.99483 7.05409C5.9949 7.05402 5.99497 7.05395 5.99505 7.05387L7.05386 5.99506L5.3362 8.64344ZM24.6638 8.64369C24.6639 8.93897 24.6057 9.23136 24.4927 9.50416C24.3797 9.77695 24.2141 10.0248 24.0052 10.2335C24.0051 10.2336 24.0051 10.2337 24.005 10.2337L23.6722 10.5665C23.909 11.0285 24.1084 11.5088 24.2683 12.0028H24.7382C25.9798 12.0028 26.9864 13.0094 26.9864 14.2509V15.7492C26.9864 16.9907 25.9798 17.9973 24.7382 17.9973H24.2683C24.1084 18.4912 23.909 18.9715 23.6722 19.4335L24.005 19.7663C24.0051 19.7664 24.0051 19.7665 24.0052 19.7665C24.2141 19.9753 24.3797 20.2231 24.4927 20.4959C24.6057 20.7687 24.6639 21.0611 24.6638 21.3564V8.64369ZM24.6638 21.3567C24.6638 21.6519 24.6057 21.9442 24.4926 22.2169C24.3796 22.4896 24.214 22.7373 24.0052 22.946C24.0051 22.9461 24.005 22.9462 24.005 22.9462L22.9462 24.005L24.6638 21.3567Z" stroke="#083160" stroke-width="1.5" stroke-miterlimit="10" stroke-linecap="round" stroke-linejoin="round"/>
<path d="M15.0004 9.75547C17.8952 9.75547 20.245 12.1052 20.245 15C20.245 17.8948 17.8953 20.2446 15.0004 20.2446C12.1056 20.2446 9.75586 17.8948 9.75586 15C9.75586 12.1052 12.1056 9.75547 15.0004 9.75547Z" stroke="#083160" stroke-width="1.5" stroke-miterlimit="10" stroke-linecap="round" stroke-linejoin="round"/>
</svg>
