<svg width="44" height="44" viewBox="0 0 44 44" fill="none" xmlns="http://www.w3.org/2000/svg">
<path d="M20.7715 13.114L18.6538 11.435C18.291 11.1483 17.8406 10.9904 17.3784 10.9904H9.15889C8.02395 10.9904 7.10547 11.9088 7.10547 13.0438V14.5356V27.4528C7.10547 28.5292 7.97715 29.4068 9.05943 29.4068H35.4087C36.4852 29.4068 37.3627 28.5351 37.3627 27.4528V15.612C37.3627 14.4771 36.4442 13.5586 35.3093 13.5586H22.0469C21.5847 13.5586 21.1342 13.4006 20.7715 13.114Z" fill="#083160" fill-opacity="0.5"/>
<path d="M9.67383 22.6497V9.27619C9.67383 8.0535 10.6625 7.06482 11.8852 7.06482H26.733L31.4424 11.7742V22.6497H9.67383Z" fill="#E5E5E5"/>
<path d="M13.0195 19.3034V5.92988C13.0195 4.70719 14.0082 3.71851 15.2309 3.71851H30.0787L34.7881 8.42791V19.3034H13.0195Z" fill="#F4F4F4"/>
<path d="M34.7885 8.42791L30.0791 3.71851V7.01217C30.0791 7.79024 30.7109 8.42791 31.4948 8.42791H34.7885Z" fill="#E5E5E5"/>
<path d="M20.2447 7.41H15.4534C15.2136 7.41 15.0146 7.21109 15.0146 6.97124C15.0146 6.73138 15.2136 6.53247 15.4534 6.53247H20.2447C20.4846 6.53247 20.6835 6.73138 20.6835 6.97124C20.6835 7.21694 20.4904 7.41 20.2447 7.41ZM21.0228 9.62722H15.4534C15.2136 9.62722 15.0146 9.42832 15.0146 9.18846C15.0146 8.9486 15.2136 8.7497 15.4534 8.7497H21.0228C21.2627 8.7497 21.4616 8.9486 21.4616 9.18846C21.4616 9.42832 21.2685 9.62722 21.0228 9.62722ZM24.8605 11.8386H15.4534C15.2136 11.8386 15.0146 11.6397 15.0146 11.3998C15.0146 11.16 15.2136 10.9611 15.4534 10.9611H24.8605C25.1004 10.9611 25.2993 11.16 25.2993 11.3998C25.2993 11.6397 25.1004 11.8386 24.8605 11.8386ZM32.3488 14.05H29.6635C29.4237 14.05 29.2248 13.8511 29.2248 13.6112C29.2248 13.3713 29.4237 13.1724 29.6635 13.1724H32.3488C32.5886 13.1724 32.7875 13.3713 32.7875 13.6112C32.7875 13.8511 32.5945 14.05 32.3488 14.05ZM27.6511 14.05H15.4534C15.2136 14.05 15.0146 13.8511 15.0146 13.6112C15.0146 13.3713 15.2136 13.1724 15.4534 13.1724H27.6511C27.8909 13.1724 28.0898 13.3713 28.0898 13.6112C28.0898 13.8511 27.8909 14.05 27.6511 14.05ZM32.3488 16.2613H22.6141C22.3742 16.2613 22.1753 16.0624 22.1753 15.8226C22.1753 15.5827 22.3742 15.3838 22.6141 15.3838H32.3488C32.5886 15.3838 32.7875 15.5827 32.7875 15.8226C32.7875 16.0624 32.5945 16.2613 32.3488 16.2613Z" fill="#CCCACA"/>
<path d="M27.6516 8.42791L25.5455 6.97121L23.4453 8.42791V3.71851H27.6516V8.42791Z" fill="#00A0A3"/>
<path d="M20.5438 17.6185L18.9701 15.9512C18.5664 15.5242 18.0048 15.2784 17.4139 15.2784H6.53843C5.22799 15.2784 4.22175 16.4485 4.42066 17.7414L4.67222 19.3911L6.82509 33.4901C6.98305 34.5373 7.88398 35.3095 8.94286 35.3095H35.5145C36.5733 35.3095 37.4684 34.5373 37.6322 33.4901L39.5803 20.7542C39.7792 19.4555 38.773 18.2913 37.4626 18.2913H22.1C21.5149 18.2913 20.9475 18.0456 20.5438 17.6185Z" fill="#083160"/>
<path opacity="0.4" d="M7.5268 26.9087C7.31619 26.9087 7.12898 26.7507 7.09388 26.5342L6.02915 19.5433C5.99405 19.3034 6.15785 19.0811 6.39771 19.046C6.63757 19.0109 6.85988 19.1747 6.89498 19.4146L7.96556 26.4055C8.00066 26.6454 7.83686 26.8677 7.597 26.9028C7.5736 26.9087 7.5502 26.9087 7.5268 26.9087ZM8.24637 31.6064C8.03576 31.6064 7.84856 31.4484 7.81346 31.2319L7.60285 29.863C7.56775 29.6231 7.73156 29.4008 7.97141 29.3657C8.21127 29.3306 8.43358 29.4944 8.46868 29.7343L8.67929 31.1032C8.71439 31.3431 8.55058 31.5654 8.31072 31.6005C8.29317 31.6064 8.26977 31.6064 8.24637 31.6064Z" fill="white"/>
<path d="M32.0563 30.2258C32.0563 31.4894 30.3715 32.4079 29.9151 33.5077C29.4413 34.6485 29.9678 36.4796 29.1078 37.3396C28.2478 38.1996 26.4109 37.6731 25.2759 38.147C24.1761 38.6033 23.2576 40.2881 21.9998 40.2881C20.7362 40.2881 19.8177 38.6033 18.7179 38.147C17.5771 37.6731 15.746 38.1996 14.886 37.3396C14.026 36.4796 14.5525 34.6427 14.0787 33.5077C13.6224 32.4079 11.9375 31.4894 11.9375 30.2258C11.9375 28.9621 13.6224 28.0437 14.0787 26.9438C14.5525 25.803 14.026 23.9719 14.886 23.112C15.746 22.252 17.5829 22.7785 18.7179 22.3046C19.8177 21.8483 20.7362 20.1635 21.9998 20.1635C23.2635 20.1635 24.182 21.8483 25.2818 22.3046C26.4226 22.7785 28.2537 22.252 29.1137 23.112C29.9737 23.9719 29.4471 25.803 29.921 26.9438C30.3715 28.0437 32.0563 28.9621 32.0563 30.2258Z" fill="#FC545D"/>
<path d="M22 36.4796C25.4539 36.4796 28.2538 33.6797 28.2538 30.2258C28.2538 26.7719 25.4539 23.9719 22 23.9719C18.546 23.9719 15.7461 26.7719 15.7461 30.2258C15.7461 33.6797 18.546 36.4796 22 36.4796Z" fill="#E5E5E5"/>
<path d="M19.3734 32.1506C19.2271 32.1506 19.0809 32.0745 18.999 31.9458L17.9693 30.2844V31.7118C17.9693 31.9517 17.7704 32.1506 17.5306 32.1506C17.2907 32.1506 17.0918 31.9517 17.0918 31.7118V28.7399C17.0918 28.5469 17.2205 28.3713 17.4077 28.3187C17.5949 28.266 17.7997 28.3421 17.8991 28.5118L18.9288 30.1732V28.7458C18.9288 28.5059 19.1277 28.307 19.3675 28.307C19.6074 28.307 19.8063 28.5059 19.8063 28.7458V31.7177C19.8063 31.9166 19.6776 32.0862 19.4904 32.1389C19.4553 32.1447 19.4143 32.1506 19.3734 32.1506ZM22.1522 32.1506H20.7774C20.5376 32.1506 20.3387 31.9517 20.3387 31.7118V28.7399C20.3387 28.5001 20.5376 28.3011 20.7774 28.3011H22.1522C22.3921 28.3011 22.591 28.5001 22.591 28.7399C22.591 28.9798 22.3921 29.1787 22.1522 29.1787H21.2162V31.273H22.1522C22.3921 31.273 22.591 31.472 22.591 31.7118C22.591 31.9517 22.3921 32.1506 22.1522 32.1506Z" fill="#525F70"/>
<path d="M21.7722 30.6646H20.7776C20.5378 30.6646 20.3389 30.4657 20.3389 30.2258C20.3389 29.9859 20.5378 29.787 20.7776 29.787H21.7722C22.012 29.787 22.2109 29.9859 22.2109 30.2258C22.2109 30.4657 22.0179 30.6646 21.7722 30.6646ZM25.9785 32.1505C25.8088 32.1505 25.6567 32.0569 25.5806 31.899L25.0015 30.688L24.4223 31.899C24.3404 32.0745 24.1532 32.1798 23.966 32.1447C23.7788 32.1154 23.6267 31.9692 23.5974 31.782L23.1119 28.8101C23.0709 28.5702 23.2347 28.3479 23.4746 28.3069C23.7144 28.266 23.9426 28.4298 23.9777 28.6697L24.2409 30.2609L24.6154 29.4828C24.6856 29.3307 24.8435 29.2313 25.0132 29.2313C25.1828 29.2313 25.3349 29.3307 25.411 29.4828L25.7854 30.2609L26.0487 28.6697C26.0896 28.4298 26.3119 28.266 26.5518 28.3069C26.7916 28.3479 26.9554 28.5702 26.9145 28.8101L26.4289 31.782C26.3997 31.9692 26.2476 32.1213 26.0604 32.1447C26.0194 32.1505 26.0019 32.1505 25.9785 32.1505Z" fill="#525F70"/>
</svg>
