<svg width="44" height="44" viewBox="0 0 44 44" fill="none" xmlns="http://www.w3.org/2000/svg">
<g clip-path="url(#clip0_2610_13046)">
<path d="M40.9285 25.0715C42.6248 14.6175 35.5254 4.76781 25.0715 3.07146C14.6176 1.37511 4.76786 8.47452 3.07151 18.9284C1.37516 29.3824 8.47457 39.2321 18.9285 40.9284C29.3824 42.6248 39.2321 35.5254 40.9285 25.0715Z" fill="#083160" fill-opacity="0.3"/>
<path d="M36.5051 22.4825C36.7715 14.4716 30.4934 7.76153 22.4826 7.49508C14.4717 7.22863 7.76159 13.5067 7.49514 21.5176C7.22869 29.5285 13.5068 36.2386 21.5177 36.505C29.5285 36.7715 36.2386 30.4934 36.5051 22.4825Z" fill="#083160" fill-opacity="0.67"/>
<path d="M17.5632 10.9121V13.7039C17.5632 14.6255 16.8042 15.3845 15.8827 15.3845H13.0908V31.5934C13.0908 32.515 13.8498 33.2739 14.7713 33.2739H29.4624C30.3839 33.2739 31.1429 32.515 31.1429 31.5934V12.5926C31.1429 11.6711 30.3839 10.9121 29.4624 10.9121H17.5632Z" fill="white"/>
<path d="M17.5632 10.9121L13.0908 15.4116H15.8827C16.8042 15.4116 17.5632 14.6526 17.5632 13.7311V10.9121Z" fill="#E6E9EE"/>
<path d="M17.6184 17.58H15.3687C15.2332 17.58 15.0977 17.6884 15.0977 17.851V20.1007C15.0977 20.2363 15.2061 20.3718 15.3687 20.3718H17.6184C17.754 20.3718 17.8895 20.2634 17.8895 20.1007V17.851C17.8895 17.7155 17.754 17.58 17.6184 17.58ZM17.3474 19.8297H15.6398V18.1221H17.3474V19.8297ZM17.6184 22.2963H15.3687C15.2332 22.2963 15.0977 22.4047 15.0977 22.5673V24.817C15.0977 24.9526 15.2061 25.0881 15.3687 25.0881H17.6184C17.754 25.0881 17.8895 24.9797 17.8895 24.817V22.5673C17.8895 22.4318 17.754 22.2963 17.6184 22.2963ZM17.3474 24.546H15.6398V22.8384H17.3474V24.546ZM17.6184 27.0126H15.3687C15.2332 27.0126 15.0977 27.121 15.0977 27.2836V29.5334C15.0977 29.6689 15.2061 29.8044 15.3687 29.8044H17.6184C17.754 29.8044 17.8895 29.696 17.8895 29.5334V27.2836C17.8895 27.1481 17.754 27.0126 17.6184 27.0126ZM17.3474 29.2623H15.6398V27.5547H17.3474V29.2623Z" fill="#00A0A3"/>
<path d="M27.0239 29.2896C30.1825 29.2896 32.7431 26.729 32.7431 23.5704C32.7431 20.4118 30.1825 17.8512 27.0239 17.8512C23.8653 17.8512 21.3047 20.4118 21.3047 23.5704C21.3047 26.729 23.8653 29.2896 27.0239 29.2896Z" fill="#FF7058"/>
<path d="M26.129 26.7415C25.9664 26.7144 25.8038 26.606 25.6953 26.4705L24.3401 24.7086C24.0961 24.4105 24.1503 23.9497 24.4756 23.7057C24.7738 23.4618 25.2346 23.516 25.4785 23.8412L26.2374 24.817L28.8395 21.0223C29.0564 20.697 29.4901 20.6157 29.8153 20.8326C30.1406 21.0494 30.2219 21.5102 30.0051 21.8084L26.8609 26.4433C26.7253 26.6331 26.5085 26.7415 26.2917 26.7415C26.2374 26.7686 26.1832 26.7686 26.129 26.7415Z" fill="white"/>
</g>
<defs>
<clipPath id="clip0_2610_13046">
<rect width="44" height="44" fill="white"/>
</clipPath>
</defs>
</svg>
