<svg width="32" height="33" viewBox="0 0 32 33" fill="none" xmlns="http://www.w3.org/2000/svg">
<path d="M12.0001 13.9884C11.8688 13.9885 11.7387 13.9627 11.6174 13.9124C11.496 13.8621 11.3858 13.7884 11.2931 13.6954L10.2931 12.6954C10.1976 12.6031 10.1214 12.4928 10.069 12.3708C10.0166 12.2488 9.989 12.1176 9.98785 11.9848C9.9867 11.852 10.012 11.7203 10.0623 11.5974C10.1126 11.4745 10.1868 11.3629 10.2807 11.269C10.3746 11.1751 10.4863 11.1008 10.6091 11.0506C10.732 11.0003 10.8637 10.975 10.9965 10.9761C11.1293 10.9773 11.2605 11.0049 11.3825 11.0573C11.5045 11.1097 11.6149 11.1859 11.7071 11.2814L12.0001 11.5744L13.2931 10.2814C13.3853 10.1859 13.4957 10.1097 13.6177 10.0573C13.7397 10.0049 13.8709 9.97729 14.0037 9.97613C14.1365 9.97498 14.2682 10.0003 14.3911 10.0506C14.514 10.1008 14.6256 10.1751 14.7195 10.269C14.8134 10.3629 14.8876 10.4745 14.9379 10.5974C14.9882 10.7203 15.0135 10.852 15.0124 10.9848C15.0112 11.1176 14.9836 11.2488 14.9312 11.3708C14.8788 11.4928 14.8026 11.6031 14.7071 11.6954L12.7071 13.6954C12.6144 13.7884 12.5042 13.8621 12.3828 13.9124C12.2615 13.9627 12.1314 13.9885 12.0001 13.9884ZM21.0001 12.9884H17.0001C16.7349 12.9884 16.4805 12.883 16.293 12.6955C16.1055 12.508 16.0001 12.2536 16.0001 11.9884C16.0001 11.7232 16.1055 11.4688 16.293 11.2813C16.4805 11.0937 16.7349 10.9884 17.0001 10.9884H21.0001C21.2653 10.9884 21.5197 11.0937 21.7072 11.2813C21.8947 11.4688 22.0001 11.7232 22.0001 11.9884C22.0001 12.2536 21.8947 12.508 21.7072 12.6955C21.5197 12.883 21.2653 12.9884 21.0001 12.9884ZM12.0001 18.9884C11.8688 18.9885 11.7387 18.9627 11.6174 18.9124C11.496 18.8621 11.3858 18.7884 11.2931 18.6954L10.2931 17.6954C10.1976 17.6031 10.1214 17.4928 10.069 17.3708C10.0166 17.2488 9.989 17.1176 9.98785 16.9848C9.9867 16.852 10.012 16.7203 10.0623 16.5974C10.1126 16.4745 10.1868 16.3629 10.2807 16.269C10.3746 16.1751 10.4863 16.1008 10.6091 16.0506C10.732 16.0003 10.8637 15.975 10.9965 15.9761C11.1293 15.9773 11.2605 16.0049 11.3825 16.0573C11.5045 16.1097 11.6149 16.1859 11.7071 16.2814L12.0001 16.5744L13.2931 15.2814C13.3853 15.1859 13.4957 15.1097 13.6177 15.0573C13.7397 15.0049 13.8709 14.9773 14.0037 14.9761C14.1365 14.975 14.2682 15.0003 14.3911 15.0506C14.514 15.1008 14.6256 15.1751 14.7195 15.269C14.8134 15.3629 14.8876 15.4745 14.9379 15.5974C14.9882 15.7203 15.0135 15.852 15.0124 15.9848C15.0112 16.1176 14.9836 16.2488 14.9312 16.3708C14.8788 16.4928 14.8026 16.6031 14.7071 16.6954L12.7071 18.6954C12.6144 18.7884 12.5042 18.8621 12.3828 18.9124C12.2615 18.9627 12.1314 18.9885 12.0001 18.9884ZM21.0001 17.9884H17.0001C16.7349 17.9884 16.4805 17.883 16.293 17.6955C16.1055 17.508 16.0001 17.2536 16.0001 16.9884C16.0001 16.7232 16.1055 16.4688 16.293 16.2813C16.4805 16.0937 16.7349 15.9884 17.0001 15.9884H21.0001C21.2653 15.9884 21.5197 16.0937 21.7072 16.2813C21.8947 16.4688 22.0001 16.7232 22.0001 16.9884C22.0001 17.2536 21.8947 17.508 21.7072 17.6955C21.5197 17.883 21.2653 17.9884 21.0001 17.9884ZM12.0001 23.9884C11.8688 23.9885 11.7387 23.9627 11.6174 23.9124C11.496 23.8621 11.3858 23.7884 11.2931 23.6954L10.2931 22.6954C10.1976 22.6031 10.1214 22.4928 10.069 22.3708C10.0166 22.2488 9.989 22.1176 9.98785 21.9848C9.9867 21.852 10.012 21.7203 10.0623 21.5974C10.1126 21.4745 10.1868 21.3629 10.2807 21.269C10.3746 21.1751 10.4863 21.1008 10.6091 21.0506C10.732 21.0003 10.8637 20.975 10.9965 20.9761C11.1293 20.9773 11.2605 21.0049 11.3825 21.0573C11.5045 21.1097 11.6149 21.1859 11.7071 21.2814L12.0001 21.5744L13.2931 20.2814C13.3853 20.1859 13.4957 20.1097 13.6177 20.0573C13.7397 20.0049 13.8709 19.9773 14.0037 19.9761C14.1365 19.975 14.2682 20.0003 14.3911 20.0506C14.514 20.1008 14.6256 20.1751 14.7195 20.269C14.8134 20.3629 14.8876 20.4745 14.9379 20.5974C14.9882 20.7203 15.0135 20.852 15.0124 20.9848C15.0112 21.1176 14.9836 21.2488 14.9312 21.3708C14.8788 21.4928 14.8026 21.6031 14.7071 21.6954L12.7071 23.6954C12.6144 23.7884 12.5042 23.8621 12.3828 23.9124C12.2615 23.9627 12.1314 23.9885 12.0001 23.9884ZM21.0001 22.9884H17.0001C16.7349 22.9884 16.4805 22.883 16.293 22.6955C16.1055 22.508 16.0001 22.2536 16.0001 21.9884C16.0001 21.7232 16.1055 21.4688 16.293 21.2813C16.4805 21.0937 16.7349 20.9884 17.0001 20.9884H21.0001C21.2653 20.9884 21.5197 21.0937 21.7072 21.2813C21.8947 21.4688 22.0001 21.7232 22.0001 21.9884C22.0001 22.2536 21.8947 22.508 21.7072 22.6955C21.5197 22.883 21.2653 22.9884 21.0001 22.9884ZM5.7501 13.9884C5.5873 13.9885 5.42694 13.9488 5.28295 13.8729C5.13895 13.7969 5.01568 13.687 4.92384 13.5525C4.83199 13.4181 4.77435 13.2633 4.75593 13.1016C4.7375 12.9398 4.75884 12.776 4.8181 12.6244C5.68881 10.3685 7.2243 8.43043 9.22117 7.0668C11.218 5.70317 13.5821 4.97836 16.0001 4.98838C16.2653 4.98838 16.5197 5.09374 16.7072 5.28128C16.8947 5.46881 17.0001 5.72317 17.0001 5.98838C17.0001 6.2536 16.8947 6.50795 16.7072 6.69549C16.5197 6.88303 16.2653 6.98838 16.0001 6.98838C13.985 6.98013 12.015 7.58425 10.351 8.72074C8.68701 9.85722 7.40754 11.4724 6.6821 13.3524C6.60882 13.5399 6.48066 13.7009 6.31437 13.8144C6.14808 13.9279 5.95142 13.9885 5.7501 13.9884ZM11.9981 28.2384C11.8771 28.2384 11.7541 28.2164 11.6341 28.1694C9.37878 27.2984 7.44122 25.7629 6.07798 23.7663C4.71473 21.7696 3.99012 19.406 4.0001 16.9884C4.0001 16.7232 4.10546 16.4688 4.293 16.2813C4.48053 16.0937 4.73489 15.9884 5.0001 15.9884C5.26532 15.9884 5.51967 16.0937 5.70721 16.2813C5.89474 16.4688 6.0001 16.7232 6.0001 16.9884C5.99183 19.0032 6.59572 20.973 7.73181 22.6369C8.8679 24.3009 10.4826 25.5805 12.3621 26.3064C12.5796 26.391 12.7607 26.5489 12.8739 26.753C12.9872 26.957 13.0256 27.1942 12.9824 27.4235C12.9392 27.6529 12.8171 27.8599 12.6374 28.0087C12.4576 28.1575 12.2315 28.2387 11.9981 28.2384Z" fill="white"/>
<path d="M16.0006 28.9889C15.7354 28.9889 15.481 28.8835 15.2935 28.696C15.1059 28.5084 15.0006 28.2541 15.0006 27.9889C15.0006 27.7236 15.1059 27.4693 15.2935 27.2817C15.481 27.0942 15.7354 26.9889 16.0006 26.9889C18.0156 26.9971 19.9856 26.393 21.6497 25.2565C23.3137 24.12 24.5931 22.5048 25.3186 20.6249C25.3664 20.5025 25.4378 20.3907 25.5288 20.2959C25.6198 20.2011 25.7286 20.1252 25.8489 20.0724C25.9693 20.0197 26.0988 19.9912 26.2302 19.9885C26.3616 19.9858 26.4922 20.0091 26.6146 20.0569C26.737 20.1047 26.8487 20.1761 26.9435 20.2671C27.0383 20.3581 27.1142 20.4669 27.167 20.5872C27.2197 20.7076 27.2482 20.8371 27.2509 20.9685C27.2536 21.0999 27.2304 21.2305 27.1826 21.3529C26.3119 23.6087 24.7764 25.5468 22.7795 26.9104C20.7826 28.2741 18.4186 28.9989 16.0006 28.9889ZM27.0006 17.9889C26.7354 17.9889 26.481 17.8835 26.2935 17.696C26.1059 17.5084 26.0006 17.2541 26.0006 16.9889C26.0006 12.8349 23.5006 9.17585 19.6306 7.66885C19.3834 7.57244 19.1846 7.38179 19.078 7.13884C18.9714 6.89589 18.9657 6.62053 19.0621 6.37335C19.1585 6.12617 19.3491 5.92741 19.5921 5.82079C19.835 5.71418 20.1104 5.70844 20.3576 5.80485C22.6153 6.6742 24.5553 8.20942 25.9204 10.2069C27.2854 12.2043 28.0109 14.5696 28.0006 16.9889C28.0006 17.2541 27.8952 17.5084 27.7077 17.696C27.5201 17.8835 27.2658 17.9889 27.0006 17.9889ZM15.0006 8.98885C14.8028 8.98881 14.6095 8.93014 14.4451 8.82025C14.2807 8.71037 14.1526 8.5542 14.0769 8.37151C14.0012 8.18881 13.9814 7.98777 14.02 7.79382C14.0586 7.59987 14.1538 7.4217 14.2936 7.28185L15.5866 5.98885L14.2936 4.69585C14.1981 4.6036 14.1219 4.49326 14.0695 4.37126C14.0171 4.24925 13.9895 4.11803 13.9883 3.98525C13.9872 3.85247 14.0125 3.72079 14.0627 3.5979C14.113 3.475 14.1873 3.36335 14.2812 3.26946C14.3751 3.17556 14.4867 3.10131 14.6096 3.05103C14.7325 3.00075 14.8642 2.97545 14.997 2.9766C15.1297 2.97775 15.261 3.00534 15.383 3.05775C15.505 3.11016 15.6153 3.18634 15.7076 3.28185L17.7076 5.28185C17.895 5.46938 18.0004 5.72369 18.0004 5.98885C18.0004 6.25401 17.895 6.50832 17.7076 6.69585L15.7076 8.69585C15.6148 8.78885 15.5046 8.86261 15.3833 8.91289C15.262 8.96317 15.1319 8.98899 15.0006 8.98885ZM7.00057 18.9889C6.86923 18.989 6.73917 18.9632 6.61784 18.9129C6.49651 18.8626 6.38631 18.7888 6.29357 18.6959L5.00057 17.4029L3.70757 18.6959C3.61532 18.7914 3.50498 18.8675 3.38297 18.92C3.26097 18.9724 3.12975 18.9999 2.99697 19.0011C2.86419 19.0023 2.73251 18.977 2.60962 18.9267C2.48672 18.8764 2.37507 18.8021 2.28117 18.7082C2.18728 18.6144 2.11303 18.5027 2.06275 18.3798C2.01247 18.2569 1.98717 18.1252 1.98832 17.9924C1.98947 17.8597 2.01706 17.7284 2.06947 17.6064C2.12188 17.4844 2.19806 17.3741 2.29357 17.2818L4.29357 15.2819C4.4811 15.0944 4.73541 14.9891 5.00057 14.9891C5.26573 14.9891 5.52004 15.0944 5.70757 15.2819L7.70757 17.2818C7.84738 17.4217 7.94259 17.5999 7.98115 17.7938C8.01972 17.9878 7.99992 18.1888 7.92425 18.3715C7.84858 18.5542 7.72044 18.7104 7.55603 18.8203C7.39162 18.9301 7.19832 18.9888 7.00057 18.9889Z" fill="white"/>
<path d="M16.9998 30.9889C16.8685 30.989 16.7384 30.9632 16.6171 30.9129C16.4957 30.8626 16.3855 30.7889 16.2928 30.6959L14.2928 28.6959C14.1053 28.5083 14 28.254 14 27.9889C14 27.7237 14.1053 27.4694 14.2928 27.2819L16.2928 25.2819C16.385 25.1863 16.4954 25.1102 16.6174 25.0578C16.7394 25.0053 16.8706 24.9778 17.0034 24.9766C17.1362 24.9754 17.2678 25.0007 17.3907 25.051C17.5136 25.1013 17.6253 25.1756 17.7192 25.2695C17.8131 25.3633 17.8873 25.475 17.9376 25.5979C17.9879 25.7208 18.0132 25.8525 18.012 25.9853C18.0109 26.118 17.9833 26.2493 17.9309 26.3713C17.8785 26.4933 17.8023 26.6036 17.7068 26.6959L16.4138 27.9889L17.7068 29.2819C17.8466 29.4217 17.9418 29.5999 17.9804 29.7938C18.0189 29.9878 17.9991 30.1888 17.9235 30.3715C17.8478 30.5542 17.7197 30.7104 17.5552 30.8203C17.3908 30.9301 17.1975 30.9888 16.9998 30.9889ZM26.9998 18.9889C26.8685 18.989 26.7384 18.9632 26.6171 18.9129C26.4957 18.8626 26.3855 18.7888 26.2928 18.6959L24.2928 16.6959C24.1973 16.6036 24.1211 16.4933 24.0687 16.3713C24.0163 16.2493 23.9887 16.118 23.9875 15.9853C23.9864 15.8525 24.0117 15.7208 24.062 15.5979C24.1122 15.475 24.1865 15.3633 24.2804 15.2695C24.3743 15.1756 24.4859 15.1013 24.6088 15.051C24.7317 15.0007 24.8634 14.9754 24.9962 14.9766C25.129 14.9778 25.2602 15.0053 25.3822 15.0577C25.5042 15.1102 25.6145 15.1863 25.7068 15.2819L26.9998 16.5749L28.2928 15.2819C28.385 15.1863 28.4954 15.1102 28.6174 15.0577C28.7394 15.0053 28.8706 14.9778 29.0034 14.9766C29.1362 14.9754 29.2678 15.0007 29.3907 15.051C29.5136 15.1013 29.6253 15.1756 29.7192 15.2695C29.8131 15.3633 29.8873 15.475 29.9376 15.5979C29.9879 15.7208 30.0132 15.8525 30.012 15.9853C30.0109 16.118 29.9833 16.2493 29.9309 16.3713C29.8785 16.4933 29.8023 16.6036 29.7068 16.6959L27.7068 18.6959C27.614 18.7888 27.5038 18.8626 27.3825 18.9129C27.2612 18.9632 27.1311 18.989 26.9998 18.9889Z" fill="white"/>
</svg>
