<svg width="21" height="20" viewBox="0 0 21 20" fill="none" xmlns="http://www.w3.org/2000/svg">
<path d="M17.9981 9.9895C18.0006 9.9592 18.0006 9.92873 17.9981 9.89843C17.9914 9.87784 17.9824 9.85808 17.9713 9.8395C17.963 9.80834 17.9522 9.77789 17.9391 9.74842L17.8856 9.67878L17.8266 9.61449C17.8039 9.59366 17.7787 9.57566 17.7516 9.56091L17.6981 9.52341L3.76894 3.09459C3.67106 3.04987 3.56199 3.03567 3.45592 3.05382C3.34985 3.07198 3.25171 3.12166 3.17428 3.19638C3.09706 3.27096 3.04403 3.36701 3.02206 3.47209C3.00008 3.57717 3.01019 3.68643 3.05106 3.78569L5.6333 9.9895L3.04034 16.2147C2.99947 16.314 2.98937 16.4233 3.01134 16.5283C3.03331 16.6334 3.08634 16.7295 3.16356 16.804C3.26287 16.8998 3.39528 16.9535 3.53322 16.9541C3.61073 16.9535 3.6873 16.9371 3.75823 16.9058L17.6873 10.477L17.7409 10.4395C17.768 10.4248 17.7932 10.4068 17.8159 10.3859L17.8748 10.3217L17.9284 10.252C17.9415 10.2225 17.9522 10.1921 17.9606 10.1609C17.9717 10.1424 17.9807 10.1226 17.9873 10.102C17.9949 10.065 17.9985 10.0273 17.9981 9.9895ZM15.0301 9.45377H6.57084L4.55647 4.63215L15.0301 9.45377ZM4.55647 15.3468L6.57084 10.5252H15.0247L4.55647 15.3468Z" fill="black"/>
</svg>
