<svg width="30" height="30" viewBox="0 0 30 30" fill="none" xmlns="http://www.w3.org/2000/svg">
<path fill-rule="evenodd" clip-rule="evenodd" d="M26.0088 9.52946L25.2307 8.17934C24.5725 7.03694 23.1138 6.64284 21.9698 7.29834C21.4253 7.61912 20.7755 7.71013 20.1638 7.5513C19.5521 7.39247 19.0287 6.99684 18.709 6.45165C18.5033 6.10513 18.3928 5.71043 18.3886 5.30749C18.4072 4.66147 18.1634 4.03544 17.713 3.57203C17.2625 3.10861 16.6436 2.84727 15.9973 2.84753H14.4298C13.7966 2.84753 13.1896 3.09983 12.7429 3.54862C12.2963 3.99741 12.0469 4.60568 12.0499 5.23884C12.0312 6.5461 10.966 7.59595 9.65864 7.59582C9.25569 7.59163 8.861 7.48112 8.51447 7.27545C7.37051 6.61996 5.91182 7.01406 5.2536 8.15646L4.41836 9.52946C3.76094 10.6704 4.14968 12.1282 5.28793 12.7903C6.02781 13.2175 6.48359 14.0069 6.48359 14.8613C6.48359 15.7156 6.02781 16.505 5.28793 16.9322C4.15112 17.5899 3.76196 19.0441 4.41836 20.1816L5.20783 21.5432C5.51624 22.0997 6.03368 22.5103 6.64567 22.6842C7.25766 22.8582 7.91373 22.7811 8.4687 22.47C9.01428 22.1516 9.66441 22.0644 10.2746 22.2277C10.8848 22.391 11.4045 22.7912 11.7181 23.3395C11.9238 23.6861 12.0343 24.0807 12.0385 24.4837C12.0385 25.8044 13.1091 26.875 14.4298 26.875H15.9973C17.3135 26.875 18.3823 25.8113 18.3886 24.4951C18.3856 23.86 18.6365 23.25 19.0856 22.8008C19.5348 22.3517 20.1448 22.1008 20.7799 22.1038C21.1819 22.1146 21.575 22.2246 21.9241 22.4242C23.0651 23.0816 24.5228 22.6929 25.185 21.5546L26.0088 20.1816C26.3276 19.6343 26.4151 18.9825 26.2519 18.3704C26.0887 17.7584 25.6882 17.2366 25.1392 16.9208C24.5901 16.6049 24.1897 16.0832 24.0264 15.4711C23.8632 14.8591 23.9508 14.2072 24.2696 13.6599C24.477 13.2979 24.7772 12.9977 25.1392 12.7903C26.2706 12.1286 26.6584 10.6793 26.0088 9.5409V9.52946Z" stroke="#083160" stroke-width="1.5" stroke-linecap="round" stroke-linejoin="round"/>
<path d="M15.2192 18.1562C17.039 18.1562 18.5142 16.681 18.5142 14.8612C18.5142 13.0415 17.039 11.5662 15.2192 11.5662C13.3994 11.5662 11.9242 13.0415 11.9242 14.8612C11.9242 16.681 13.3994 18.1562 15.2192 18.1562Z" stroke="#083160" stroke-width="1.5" stroke-linecap="round" stroke-linejoin="round"/>
</svg>
