<svg width="29" height="29" viewBox="0 0 29 29" fill="none" xmlns="http://www.w3.org/2000/svg">
<path d="M20.9531 26.4892C20.6261 26.4892 20.2971 26.4102 19.9941 26.2512L14.5281 23.3762L9.00713 26.2502C8.66746 26.4308 8.28372 26.5118 7.90002 26.4841C7.51633 26.4563 7.14826 26.3208 6.83813 26.0932C6.52597 25.8685 6.28352 25.5604 6.13865 25.2041C5.99377 24.8478 5.95235 24.4579 6.01913 24.0792L7.06313 17.9932L2.62413 13.6302C2.34738 13.3628 2.15168 13.0228 2.05952 12.6492C1.96736 12.2756 1.98247 11.8836 2.10313 11.5182C2.22089 11.1522 2.43933 10.8268 2.73344 10.5792C3.02755 10.3316 3.38544 10.1718 3.76613 10.1182L9.87613 9.23018L12.6541 3.66018C13.0041 2.95218 13.7111 2.51318 14.5011 2.51318C15.2911 2.51318 15.9981 2.95218 16.3481 3.66018L19.0811 9.19718L25.2361 10.1182C25.6168 10.1718 25.9747 10.3316 26.2688 10.5792C26.5629 10.8268 26.7814 11.1522 26.8991 11.5182C27.0193 11.8836 27.0342 12.2755 26.942 12.649C26.8499 13.0225 26.6545 13.3626 26.3781 13.6302L21.9561 17.9402L22.9831 24.0802C23.0493 24.4589 23.0076 24.8486 22.8628 25.2048C22.718 25.5609 22.4758 25.8691 22.1641 26.0942C21.812 26.3499 21.3883 26.4881 20.9531 26.4892ZM4.01913 12.1982L8.44013 16.5082C8.92513 16.9822 9.14713 17.6622 9.03313 18.3302L7.99013 24.4172L8.54213 25.3652L8.07613 24.4802L13.5411 21.6062C13.8367 21.4509 14.1656 21.3697 14.4995 21.3695C14.8334 21.3693 15.1624 21.4502 15.4581 21.6052L20.9241 24.4802L21.0101 24.4172L19.9661 18.3312C19.91 18.0021 19.9346 17.6643 20.0377 17.3468C20.1408 17.0293 20.3194 16.7415 20.5581 16.5082L24.9801 12.1982L24.9471 12.0952L18.8371 11.2072C18.5067 11.1588 18.193 11.031 17.9228 10.8347C17.6527 10.6384 17.4342 10.3795 17.2861 10.0802L14.5531 4.54318C14.5451 4.52718 14.5361 4.51118 14.4991 4.51118L11.7121 10.0802C11.5645 10.3794 11.3464 10.6384 11.0766 10.8347C10.8068 11.031 10.4933 11.1588 10.1631 11.2072L4.05113 12.0952L3.32013 12.9132L4.01913 12.1982Z" fill="#2F3337"/>
</svg>
