<svg width="13" height="16" viewBox="0 0 13 16" fill="none" xmlns="http://www.w3.org/2000/svg">
<path d="M5.05332 9.39142V15.0064M8.09171 10.7137H10.2523C10.6608 10.7137 10.995 11.0479 10.995 11.4563C10.995 11.8647 10.6608 12.1989 10.2523 12.1989H8.30988C7.90136 12.1989 7.56718 11.8647 7.56718 11.4563C8.30988 10.7137 8.06162 9.72365 7.75284 9.22859L7.75948 7.64046C7.76453 6.42042 6.52773 6.49842 6.32468 7.25609L5.79605 9.22859H1.875V15.1692H9.69527C10.1038 15.1692 10.438 14.8351 10.438 14.4267C10.438 14.0182 10.1037 13.6841 9.69527 13.6841M9.88096 12.1989C10.2895 12.1989 10.6237 12.5331 10.6237 12.9415C10.6237 13.3499 10.2894 13.6841 9.88096 13.6841H8.51837C8.10985 13.6841 7.77567 13.3499 7.77567 12.9415C7.77567 12.5331 8.10986 12.1989 8.51833 12.1989M9.88096 10.7137C10.2894 10.7137 10.6237 10.3796 10.6237 9.97119C10.6237 9.56275 10.289 9.22859 9.88096 9.22859H7.91993M8.72682 15.1692C8.31831 15.1692 7.98413 14.8351 7.98413 14.4267C7.98413 14.0182 8.31831 13.6841 8.72682 13.6841" stroke="#2F3337" stroke-width="0.5" stroke-miterlimit="22.9256" stroke-linecap="round" stroke-linejoin="round"/>
<path d="M0.788477 7.2826C1.17316 7.42421 1.68499 7.5022 2.22975 7.5022C3.25827 7.5022 4.45939 7.2192 4.45939 6.42169C4.45939 5.2409 3.5366 4.27161 2.37443 4.19676C2.95414 4.12525 3.40441 3.62969 3.40441 3.03099C3.40441 2.38336 2.87745 1.85645 2.22975 1.85645C1.58205 1.85645 1.05509 2.38336 1.05509 3.03099C1.05509 3.62972 1.5054 4.12525 2.08507 4.19676C0.922704 4.27149 0 5.24083 0 6.42169C3.82849e-05 6.68199 0.13683 7.04267 0.788477 7.2826ZM1.59108 3.03099C1.59108 2.67892 1.87757 2.39243 2.22975 2.39243C2.58193 2.39243 2.86842 2.67888 2.86842 3.03099C2.86842 3.38313 2.58193 3.66966 2.22975 3.66966C1.87757 3.66966 1.59108 3.38313 1.59108 3.03099ZM2.22975 4.72812C3.16363 4.72812 3.92336 5.48788 3.92336 6.42169C3.92336 6.67927 3.2278 6.96621 2.22971 6.96621C1.23159 6.96621 0.536027 6.67927 0.536027 6.42169C0.536027 5.48788 1.29583 4.72812 2.22975 4.72812Z" fill="#2F3337"/>
<path d="M4.99464 5.42594C5.37938 5.56755 5.89128 5.64553 6.43611 5.64553C7.46478 5.64553 8.66605 5.36254 8.66605 4.56506C8.66605 3.38432 7.74315 2.41507 6.58081 2.34022C7.1606 2.26871 7.61093 1.77317 7.61093 1.17449C7.61093 0.526894 7.08391 0 6.43611 0C5.78832 0 5.26129 0.526894 5.26129 1.17449C5.26129 1.77321 5.71166 2.26871 6.29141 2.34022C5.12889 2.41495 4.20605 3.38425 4.20605 4.56506C4.20609 4.82535 4.3429 5.18602 4.99464 5.42594ZM5.79736 1.17449C5.79736 0.822441 6.08388 0.535967 6.43611 0.535967C6.78834 0.535967 7.07487 0.822403 7.07487 1.17449C7.07487 1.52663 6.78834 1.81314 6.43611 1.81314C6.08388 1.81314 5.79736 1.52663 5.79736 1.17449ZM6.43611 2.87156C7.37012 2.87156 8.12995 3.63129 8.12995 4.56506C8.12995 4.82263 7.4343 5.10956 6.43607 5.10956C5.43781 5.10956 4.74216 4.82263 4.74216 4.56506C4.74216 3.63129 5.50206 2.87156 6.43611 2.87156Z" fill="#2F3337"/>
<path d="M9.19863 7.2826C9.58332 7.42421 10.0951 7.5022 10.6399 7.5022C11.6684 7.5022 12.8695 7.2192 12.8695 6.42169C12.8695 5.2409 11.9468 4.27161 10.7846 4.19676C11.3643 4.12525 11.8146 3.62969 11.8146 3.03099C11.8146 2.38336 11.2876 1.85645 10.6399 1.85645C9.9922 1.85645 9.46525 2.38336 9.46525 3.03099C9.46525 3.62972 9.91556 4.12525 10.4952 4.19676C9.33286 4.27149 8.41016 5.24083 8.41016 6.42169C8.41019 6.68199 8.54699 7.04267 9.19863 7.2826ZM10.0012 3.03099C10.0012 2.67892 10.2877 2.39243 10.6399 2.39243C10.9921 2.39243 11.2786 2.67888 11.2786 3.03099C11.2786 3.38313 10.9921 3.66966 10.6399 3.66966C10.2877 3.66966 10.0012 3.38313 10.0012 3.03099ZM10.6399 4.72812C11.5738 4.72812 12.3335 5.48788 12.3335 6.42169C12.3335 6.67927 11.638 6.96621 10.6399 6.96621C9.64174 6.96621 8.94618 6.67927 8.94618 6.42169C8.94618 5.48788 9.70598 4.72812 10.6399 4.72812Z" fill="#2F3337"/>
</svg>
