<svg width="418" height="418" viewBox="0 0 418 418" fill="none" xmlns="http://www.w3.org/2000/svg">
<path d="M265.666 142.125L176.291 231.708L141.916 197.333C140.048 195.152 137.75 193.381 135.165 192.131C132.581 190.88 129.766 190.177 126.896 190.067C124.027 189.956 121.166 190.439 118.493 191.487C115.819 192.534 113.391 194.123 111.361 196.153C109.331 198.183 107.742 200.611 106.694 203.285C105.647 205.958 105.164 208.819 105.274 211.688C105.385 214.558 106.088 217.373 107.338 219.958C108.589 222.542 110.36 224.841 112.541 226.708L161.499 275.875C163.446 277.806 165.755 279.333 168.293 280.37C170.831 281.407 173.549 281.932 176.291 281.916C181.757 281.893 186.994 279.724 190.874 275.875L295.041 171.708C296.994 169.771 298.544 167.467 299.601 164.929C300.659 162.39 301.204 159.667 301.204 156.916C301.204 154.166 300.659 151.443 299.601 148.904C298.544 146.366 296.994 144.062 295.041 142.125C291.138 138.245 285.857 136.067 280.354 136.067C274.85 136.067 269.57 138.245 265.666 142.125ZM208.999 0.666504C167.795 0.666504 127.516 12.885 93.2556 35.777C58.9954 58.669 32.2928 91.2062 16.5245 129.274C0.756283 167.342 -3.36941 209.231 4.66918 249.644C12.7078 290.056 32.5496 327.178 61.6855 356.314C90.8215 385.45 127.943 405.292 168.356 413.33C208.768 421.369 250.657 417.243 288.725 401.475C326.793 385.706 359.33 359.004 382.222 324.744C405.114 290.483 417.333 250.204 417.333 209C417.333 181.641 411.944 154.55 401.474 129.274C391.005 103.998 375.659 81.0315 356.313 61.6859C336.968 42.3404 314.001 26.9947 288.725 16.5249C263.449 6.05521 236.358 0.666504 208.999 0.666504ZM208.999 375.666C176.036 375.666 143.813 365.892 116.404 347.578C88.9962 329.265 67.6341 303.235 55.0195 272.78C42.4049 242.326 39.1044 208.815 45.5352 176.485C51.9661 144.155 67.8396 114.457 91.1483 91.1487C114.457 67.84 144.154 51.9665 176.484 45.5356C208.815 39.1048 242.326 42.4053 272.78 55.0199C303.234 67.6345 329.264 88.9966 347.578 116.405C365.891 143.813 375.666 176.036 375.666 209C375.666 253.203 358.107 295.595 326.851 326.851C295.595 358.107 253.202 375.666 208.999 375.666Z" fill="white"/>
</svg>
