<svg width="30" height="30" viewBox="0 0 30 30" fill="none" xmlns="http://www.w3.org/2000/svg">
<path fill-rule="evenodd" clip-rule="evenodd" d="M14.9224 4.29751C14.1654 4.29536 13.4154 4.44289 12.7156 4.73159C12.0158 5.0203 11.38 5.4445 10.8447 5.97979C10.3094 6.51508 9.88518 7.15091 9.59647 7.85072C9.30777 8.55052 9.16024 9.30049 9.16239 10.0575C9.16008 10.8146 9.30748 11.5647 9.59611 12.2647C9.88475 12.9646 10.3089 13.6006 10.8442 14.136C11.3795 14.6715 12.0154 15.0958 12.7153 15.3846C13.4152 15.6733 14.1653 15.8209 14.9224 15.8188C15.6796 15.8209 16.4298 15.6733 17.1298 15.3844C17.8297 15.0956 18.4657 14.6712 19.001 14.1356C19.5363 13.6 19.9605 12.9639 20.249 12.2638C20.5376 11.5637 20.6849 10.8135 20.6824 10.0563C20.6844 9.29935 20.5367 8.54951 20.2479 7.84985C19.9592 7.15019 19.5349 6.51451 18.9997 5.97935C18.4644 5.44419 17.8286 5.02011 17.1289 4.73148C16.4292 4.44285 15.6793 4.29536 14.9224 4.29751ZM14.9224 6.17251C15.4332 6.17036 15.9393 6.26938 16.4117 6.46386C16.884 6.65834 17.3131 6.94442 17.6743 7.3056C18.0355 7.66679 18.3216 8.09592 18.516 8.56824C18.7105 9.04056 18.8095 9.54672 18.8074 10.0575C18.8097 10.5684 18.7108 11.0747 18.5164 11.5472C18.322 12.0196 18.0359 12.4489 17.6747 12.8102C17.3135 13.1715 16.8843 13.4577 16.4119 13.6523C15.9395 13.8468 15.4333 13.9459 14.9224 13.9438C14.4114 13.9459 13.905 13.8468 13.4325 13.6522C12.9601 13.4575 12.5308 13.1712 12.1696 12.8098C11.8084 12.4483 11.5223 12.0189 11.328 11.5463C11.1337 11.0737 11.0349 10.5673 11.0374 10.0563C11.0354 9.54558 11.1345 9.03955 11.3291 8.56738C11.5237 8.0952 11.8098 7.66622 12.1709 7.30516C12.5321 6.94411 12.9612 6.65814 13.4334 6.46374C13.9057 6.26934 14.4117 6.17036 14.9224 6.17251ZM7.86239 5.47251C8.11103 5.47251 8.34949 5.57128 8.5253 5.7471C8.70112 5.92291 8.79989 6.16137 8.79989 6.41001C8.79989 6.65865 8.70112 6.89711 8.5253 7.07292C8.34949 7.24874 8.11103 7.34751 7.86239 7.34751C7.50434 7.33979 7.14835 7.40364 6.8153 7.53533C6.48225 7.66701 6.17885 7.86388 5.9229 8.11437C5.66695 8.36487 5.46359 8.66396 5.32475 8.99409C5.18592 9.32422 5.1144 9.67875 5.1144 10.0369C5.1144 10.395 5.18592 10.7495 5.32475 11.0797C5.46359 11.4098 5.66695 11.7089 5.9229 11.9594C6.17885 12.2099 6.48225 12.4068 6.8153 12.5384C7.14835 12.6701 7.50434 12.734 7.86239 12.7263C8.11103 12.7263 8.34949 12.825 8.5253 13.0008C8.70112 13.1767 8.79989 13.4151 8.79989 13.6638C8.79989 13.9124 8.70112 14.1509 8.5253 14.3267C8.34949 14.5025 8.11103 14.6013 7.86239 14.6013C7.25663 14.6113 6.65494 14.5006 6.09238 14.2757C5.52982 14.0509 5.01765 13.7163 4.58573 13.2914C4.1538 12.8666 3.81076 12.36 3.5766 11.8013C3.34245 11.2425 3.22185 10.6427 3.22185 10.0369C3.22185 9.43104 3.34245 8.83126 3.5766 8.2725C3.81076 7.71374 4.1538 7.20718 4.58573 6.78234C5.01765 6.35751 5.52982 6.0229 6.09238 5.79802C6.65494 5.57314 7.25663 5.46248 7.86239 5.47251ZM26.5586 10.0375C26.5586 8.82679 26.0777 7.66567 25.2216 6.80957C24.3655 5.95346 23.2044 5.47251 21.9936 5.47251C21.745 5.47251 21.5065 5.57128 21.3307 5.7471C21.1549 5.92291 21.0561 6.16137 21.0561 6.41001C21.0561 6.65865 21.1549 6.89711 21.3307 7.07292C21.5065 7.24874 21.745 7.34751 21.9936 7.34751C22.3517 7.33979 22.7077 7.40364 23.0407 7.53533C23.3738 7.66701 23.6772 7.86388 23.9331 8.11437C24.1891 8.36487 24.3924 8.66396 24.5313 8.99409C24.6701 9.32422 24.7416 9.67875 24.7416 10.0369C24.7416 10.395 24.6701 10.7495 24.5313 11.0797C24.3924 11.4098 24.1891 11.7089 23.9331 11.9594C23.6772 12.2099 23.3738 12.4068 23.0407 12.5384C22.7077 12.6701 22.3517 12.734 21.9936 12.7263C21.745 12.7263 21.5065 12.825 21.3307 13.0008C21.1549 13.1767 21.0561 13.4151 21.0561 13.6638C21.0561 13.9124 21.1549 14.1509 21.3307 14.3267C21.5065 14.5025 21.745 14.6013 21.9936 14.6013C23.2041 14.6013 24.3651 14.1205 25.2211 13.2646C26.0772 12.4088 26.5583 11.248 26.5586 10.0375ZM25.6199 16.9425C25.0199 16.8075 24.3786 16.715 23.7261 16.6688C23.6033 16.6602 23.4799 16.676 23.3631 16.7151C23.2464 16.7542 23.1384 16.816 23.0455 16.8968C22.8579 17.0601 22.7428 17.2912 22.7255 17.5394C22.7083 17.7875 22.7903 18.0324 22.9536 18.22C23.1169 18.4077 23.348 18.5228 23.5961 18.54C24.1549 18.5775 24.7024 18.6575 25.2336 18.7775C26.0611 18.94 26.5999 19.2088 26.7336 19.49C26.7835 19.5953 26.8093 19.7104 26.8093 19.8269C26.8093 19.9434 26.7835 20.0584 26.7336 20.1638C26.6011 20.4413 26.0661 20.7088 25.2511 20.8763C25.1305 20.901 25.0159 20.9494 24.9139 21.0184C24.8119 21.0875 24.7246 21.176 24.6568 21.2788C24.589 21.3817 24.5421 21.4968 24.5188 21.6178C24.4956 21.7388 24.4964 21.8631 24.5211 21.9838C24.5459 22.1044 24.5942 22.219 24.6633 22.321C24.7324 22.423 24.8209 22.5103 24.9237 22.5781C25.0265 22.6459 25.1417 22.6928 25.2627 22.7161C25.3836 22.7393 25.508 22.7385 25.6286 22.7138C26.9761 22.4363 27.9636 21.9425 28.4261 20.9688C28.7699 20.2438 28.7699 19.405 28.4261 18.6825C27.9599 17.705 26.9561 17.2038 25.6199 16.9425ZM7.12989 17.54C7.12148 17.4171 7.08894 17.2971 7.03412 17.1868C6.9793 17.0765 6.90329 16.9781 6.81042 16.8972C6.71755 16.8163 6.60965 16.7544 6.49288 16.7153C6.37611 16.6761 6.25277 16.6603 6.12989 16.6688C5.47739 16.715 4.83614 16.8063 4.20989 16.9475L3.95239 17.0025C2.76739 17.2725 1.86489 17.77 1.42989 18.6825C1.25939 19.0397 1.1709 19.4305 1.1709 19.8263C1.1709 20.222 1.25939 20.6128 1.42989 20.97C1.89239 21.9413 2.87989 22.4363 4.22739 22.7138C4.34804 22.7385 4.47239 22.7393 4.59335 22.7161C4.7143 22.6928 4.82949 22.6459 4.93233 22.5781C5.03517 22.5103 5.12365 22.423 5.19272 22.321C5.26179 22.219 5.3101 22.1044 5.33489 21.9838C5.35968 21.8631 5.36046 21.7388 5.33718 21.6178C5.31391 21.4968 5.26705 21.3817 5.19926 21.2788C5.13147 21.176 5.04409 21.0875 4.94211 21.0184C4.84013 20.9494 4.72554 20.901 4.60489 20.8763C3.78989 20.7088 3.25489 20.4413 3.12364 20.1638C3.07326 20.0584 3.04711 19.9431 3.04711 19.8263C3.04711 19.7095 3.07326 19.5941 3.12364 19.4888C3.25614 19.2088 3.79489 18.9388 4.59614 18.7825L5.01239 18.6975C5.42864 18.62 5.83989 18.5688 6.25864 18.54C6.38152 18.5316 6.50154 18.4991 6.61185 18.4442C6.72215 18.3894 6.82056 18.3134 6.90148 18.2205C6.98239 18.1277 7.04421 18.0198 7.0834 17.903C7.12259 17.7862 7.13839 17.6629 7.12989 17.54ZM6.45864 21.48C6.45864 18.4975 9.54364 17.4488 14.9211 17.4488L15.3036 17.45C20.4574 17.4988 23.3849 18.55 23.3849 21.4575C23.3849 24.2975 20.5849 25.385 15.6749 25.4825L14.9224 25.4888C9.53114 25.4888 6.45989 24.4588 6.45989 21.48H6.45864ZM21.5099 21.4575C21.5099 20.07 19.2849 19.3225 14.9224 19.3225C10.5636 19.3225 8.33489 20.0813 8.33489 21.48C8.33489 22.8675 10.5599 23.6138 14.9224 23.6138C19.2786 23.6138 21.5099 22.855 21.5099 21.4575Z" fill="#083160"/>
</svg>
