<svg width="24" height="25" viewBox="0 0 24 25" fill="none" xmlns="http://www.w3.org/2000/svg">
<g clip-path="url(#clip0_4011_10046)">
<path d="M9.72319 17.7626C9.84159 17.7629 9.95746 17.7283 10.0563 17.6632L10.0564 17.6631L16.43 13.4575C16.4301 13.4574 16.4303 13.4573 16.4304 13.4572C16.5142 13.4024 16.5831 13.3275 16.6308 13.2394C16.6786 13.1512 16.7036 13.0525 16.7036 12.9521C16.7036 12.8518 16.6786 12.753 16.6308 12.6648C16.5831 12.5767 16.5142 12.5019 16.4304 12.447C16.4303 12.447 16.4301 12.4469 16.43 12.4468L10.0567 8.24134C10.0567 8.2413 10.0566 8.24126 10.0566 8.24123C9.96531 8.18073 9.85928 8.14627 9.7499 8.14157C9.64099 8.13689 9.53286 8.16189 9.43707 8.21388C9.23927 8.31714 9.11807 8.5237 9.11807 8.74514V17.1571M9.72319 17.7626C9.62279 17.7627 9.52399 17.7374 9.43606 17.6889C9.33989 17.6376 9.25949 17.5611 9.20347 17.4676L9.33215 17.3905L9.20347 17.4676C9.14727 17.3738 9.11774 17.2664 9.11807 17.1571M9.72319 17.7626C9.7231 17.7626 9.72301 17.7626 9.72291 17.7626L9.72337 17.6126L9.72368 17.7626C9.72352 17.7626 9.72335 17.7626 9.72319 17.7626ZM9.11807 17.1571C9.11807 17.157 9.11807 17.1569 9.11807 17.1568L9.26807 17.1573H9.11807V17.1571ZM10.3287 9.87078L14.9984 12.9539L10.3287 16.0345V9.87078Z" fill="#2F3337" stroke="#2F3337" stroke-width="0.3"/>
<path d="M12 3.08404C17.4391 3.08404 21.8666 7.51162 21.8666 12.9507C21.8666 18.3897 17.4391 22.8173 12 22.8173C6.56004 22.8173 2.13336 18.3898 2.13336 12.9507C2.13336 7.51162 6.56004 3.08404 12 3.08404ZM12 1.87344C5.88259 1.87344 0.922754 6.83327 0.922754 12.9507C0.922754 19.0681 5.88259 24.0279 12 24.0279C18.1174 24.0279 23.0772 19.0681 23.0772 12.9507C23.0772 6.83327 18.1174 1.87344 12 1.87344Z" fill="#2F3337" stroke="#2F3337" stroke-width="0.3"/>
</g>
<defs>
<clipPath id="clip0_4011_10046">
<rect width="24" height="24" fill="white" transform="translate(0 0.951172)"/>
</clipPath>
</defs>
</svg>
