<svg width="21" height="20" viewBox="0 0 21 20" fill="none" xmlns="http://www.w3.org/2000/svg">
<g clip-path="url(#clip0_2468_7861)">
<g clip-path="url(#clip1_2468_7861)">
<path d="M19.603 11.3247C19.6716 10.8864 19.7067 10.4436 19.708 10C19.708 5.17531 15.7827 1.25 10.958 1.25C6.13332 1.25 2.20801 5.17531 2.20801 10C2.20801 10.4419 2.24551 10.885 2.31301 11.3247C1.53176 11.5509 0.958008 12.2719 0.958008 13.125V15.625C0.958008 16.6591 1.79895 17.5 2.83301 17.5H2.94238C3.20082 18.2269 3.89363 18.75 4.70801 18.75C5.74207 18.75 6.58301 17.9091 6.58301 16.875V11.875C6.58301 10.8409 5.74207 10 4.70801 10C4.25334 9.99995 3.81433 10.1661 3.47363 10.4672C3.46395 10.3112 3.45801 10.1556 3.45801 10C3.45801 5.86469 6.8227 2.5 10.958 2.5C15.0933 2.5 18.458 5.86469 18.458 10C18.458 10.1556 18.4521 10.3112 18.4424 10.4672C18.1017 10.1661 17.6627 9.99995 17.208 10C16.1739 10 15.333 10.8409 15.333 11.875V16.875C15.333 17.9091 16.1739 18.75 17.208 18.75C18.0224 18.75 18.7152 18.2269 18.9736 17.5H19.083C20.1171 17.5 20.958 16.6591 20.958 15.625V13.125C20.958 12.2719 20.3843 11.5509 19.603 11.3247ZM2.20801 15.625V13.125C2.20801 12.7803 2.48832 12.5 2.83301 12.5V16.25C2.48832 16.25 2.20801 15.9697 2.20801 15.625ZM4.70801 11.25C5.0527 11.25 5.33301 11.5303 5.33301 11.875V16.875C5.33301 17.2197 5.0527 17.5 4.70801 17.5C4.36332 17.5 4.08301 17.2197 4.08301 16.875V11.875C4.08301 11.5303 4.36332 11.25 4.70801 11.25ZM17.208 17.5C16.8633 17.5 16.583 17.2197 16.583 16.875V11.875C16.583 11.5303 16.8633 11.25 17.208 11.25C17.5527 11.25 17.833 11.5303 17.833 11.875V16.875C17.833 17.2197 17.5527 17.5 17.208 17.5ZM19.708 15.625C19.708 15.9697 19.4277 16.25 19.083 16.25V12.5C19.4277 12.5 19.708 12.7803 19.708 13.125V15.625Z" fill="#2F3337"/>
</g>
</g>
<defs>
<clipPath id="clip0_2468_7861">
<rect width="20" height="20" fill="white" transform="translate(0.958008)"/>
</clipPath>
<clipPath id="clip1_2468_7861">
<rect width="20" height="20" fill="white" transform="translate(0.958008)"/>
</clipPath>
</defs>
</svg>
