<svg width="14" height="14" viewBox="0 0 14 14" fill="none" xmlns="http://www.w3.org/2000/svg">
<path d="M3.44951 11.1659H9.11959C9.34533 11.1659 9.55779 11.073 9.71713 10.9136C9.8632 10.7675 9.96943 10.5551 9.96943 10.3161V4.72566C9.96943 4.49992 9.87648 4.28745 9.71713 4.12811C9.57107 3.98204 9.3586 3.87581 9.11959 3.87581H2.2013C1.97556 3.87581 1.7631 3.96876 1.60375 4.12811C1.45769 4.27417 1.35145 4.48664 1.35145 4.72566V12.6399L3.27689 11.2323C3.33 11.1925 3.38312 11.1659 3.44951 11.1659ZM11.8816 9.28031C11.709 9.28031 11.5762 9.14752 11.5762 8.97489C11.5762 8.80227 11.709 8.66948 11.8816 8.66948H12.3198C12.5455 8.66948 12.758 8.57653 12.9173 8.41718C13.0634 8.27111 13.1696 8.05865 13.1696 7.81963V2.22923C13.1696 2.00349 13.0767 1.79103 12.9173 1.63168C12.7713 1.48561 12.5588 1.37938 12.3198 1.37938H5.40151C5.20232 1.37938 5.0297 1.44578 4.88363 1.56529C4.73756 1.6848 4.63133 1.84414 4.57822 2.03005C4.53838 2.18939 4.37903 2.29562 4.20641 2.25579C4.04706 2.21595 3.94083 2.0566 3.98067 1.88398C4.06034 1.56529 4.24625 1.28643 4.49854 1.08725C4.75084 0.888064 5.05626 0.768555 5.38823 0.768555H12.3065C12.7049 0.768555 13.0634 0.927901 13.329 1.19348C13.5946 1.45906 13.7539 1.81758 13.7539 2.21595V7.83291C13.7539 8.23128 13.5946 8.58981 13.329 8.85538C13.0634 9.12096 12.7049 9.28031 12.3065 9.28031H11.8816ZM3.18394 8.9085C3.01131 8.9085 2.87852 8.77571 2.87852 8.60308C2.87852 8.43046 3.01131 8.29767 3.18394 8.29767H8.13695C8.30958 8.29767 8.44236 8.43046 8.44236 8.60308C8.44236 8.77571 8.30958 8.9085 8.13695 8.9085H3.18394ZM3.18394 6.75732C3.01131 6.75732 2.87852 6.62453 2.87852 6.45191C2.87852 6.27928 3.01131 6.14649 3.18394 6.14649H8.13695C8.30958 6.14649 8.44236 6.27928 8.44236 6.45191C8.44236 6.62453 8.30958 6.75732 8.13695 6.75732H3.18394ZM9.11959 11.7767H3.55574L1.2585 13.4897C1.20539 13.5428 1.13899 13.5694 1.05932 13.5694C0.886695 13.5694 0.753906 13.4366 0.753906 13.264V4.72566C0.753906 4.32729 0.913252 3.96876 1.17883 3.70318C1.44441 3.43761 1.80294 3.27826 2.2013 3.27826H9.11959C9.51795 3.27826 9.87648 3.43761 10.1421 3.70318C10.4076 3.96876 10.567 4.32729 10.567 4.72566V10.3293C10.567 10.7277 10.4076 11.0862 10.1421 11.3518C9.87648 11.6174 9.51795 11.7767 9.11959 11.7767Z" fill="#2F3337"/>
</svg>
