<svg width="21" height="20" viewBox="0 0 21 20" fill="none" xmlns="http://www.w3.org/2000/svg">
<g clip-path="url(#clip0_2468_7867)">
<path d="M18.7706 4.24107C18.979 4.4494 19.1576 4.73214 19.3064 5.08929C19.4552 5.44643 19.5296 5.77381 19.5296 6.07143V18.9286C19.5296 19.2262 19.4254 19.4792 19.2171 19.6875C19.0087 19.8958 18.7558 20 18.4581 20H3.45815C3.16053 20 2.90755 19.8958 2.69922 19.6875C2.49089 19.4792 2.38672 19.2262 2.38672 18.9286V1.07143C2.38672 0.77381 2.49089 0.520833 2.69922 0.3125C2.90755 0.104167 3.16053 0 3.45815 0H13.4581C13.7558 0 14.0831 0.0744048 14.4403 0.223214C14.7974 0.372024 15.0802 0.550595 15.2885 0.758929L18.7706 4.24107ZM13.8153 1.51786V5.71429H18.0117C17.9373 5.49851 17.8555 5.34598 17.7662 5.2567L14.2729 1.76339C14.1836 1.67411 14.0311 1.59226 13.8153 1.51786ZM18.101 18.5714V7.14286H13.4581C13.1605 7.14286 12.9076 7.03869 12.6992 6.83036C12.4909 6.62202 12.3867 6.36905 12.3867 6.07143V1.42857H3.81529V18.5714H18.101ZM6.67243 8.92857C6.67243 8.8244 6.70592 8.73884 6.77288 8.67188C6.83984 8.60491 6.92541 8.57143 7.02958 8.57143H14.8867C14.9909 8.57143 15.0765 8.60491 15.1434 8.67188C15.2104 8.73884 15.2439 8.8244 15.2439 8.92857V9.64286C15.2439 9.74702 15.2104 9.83259 15.1434 9.89955C15.0765 9.96652 14.9909 10 14.8867 10H7.02958C6.92541 10 6.83984 9.96652 6.77288 9.89955C6.70592 9.83259 6.67243 9.74702 6.67243 9.64286V8.92857ZM14.8867 11.4286C14.9909 11.4286 15.0765 11.4621 15.1434 11.529C15.2104 11.596 15.2439 11.6815 15.2439 11.7857V12.5C15.2439 12.6042 15.2104 12.6897 15.1434 12.7567C15.0765 12.8237 14.9909 12.8571 14.8867 12.8571H7.02958C6.92541 12.8571 6.83984 12.8237 6.77288 12.7567C6.70592 12.6897 6.67243 12.6042 6.67243 12.5V11.7857C6.67243 11.6815 6.70592 11.596 6.77288 11.529C6.83984 11.4621 6.92541 11.4286 7.02958 11.4286H14.8867ZM14.8867 14.2857C14.9909 14.2857 15.0765 14.3192 15.1434 14.3862C15.2104 14.4531 15.2439 14.5387 15.2439 14.6429V15.3571C15.2439 15.4613 15.2104 15.5469 15.1434 15.6138C15.0765 15.6808 14.9909 15.7143 14.8867 15.7143H7.02958C6.92541 15.7143 6.83984 15.6808 6.77288 15.6138C6.70592 15.5469 6.67243 15.4613 6.67243 15.3571V14.6429C6.67243 14.5387 6.70592 14.4531 6.77288 14.3862C6.83984 14.3192 6.92541 14.2857 7.02958 14.2857H14.8867Z" fill="#2F3337"/>
</g>
<defs>
<clipPath id="clip0_2468_7867">
<rect width="20" height="20" fill="white" transform="translate(0.958008)"/>
</clipPath>
</defs>
</svg>
