<svg width="16" height="16" viewBox="0 0 16 16" fill="none" xmlns="http://www.w3.org/2000/svg">
<path d="M8.00008 4.66667C8.26379 4.66667 8.52158 4.58847 8.74084 4.44196C8.96011 4.29545 9.13101 4.08721 9.23192 3.84358C9.33284 3.59994 9.35924 3.33185 9.3078 3.07321C9.25635 2.81457 9.12936 2.57699 8.94289 2.39052C8.75642 2.20405 8.51884 2.07707 8.2602 2.02562C8.00156 1.97417 7.73347 2.00058 7.48984 2.10149C7.2462 2.20241 7.03796 2.37331 6.89146 2.59257C6.74495 2.81184 6.66675 3.06963 6.66675 3.33333C6.66675 3.68696 6.80722 4.02609 7.05727 4.27614C7.30732 4.52619 7.64646 4.66667 8.00008 4.66667ZM8.00008 11.3333C7.73637 11.3333 7.47859 11.4115 7.25932 11.558C7.04006 11.7046 6.86916 11.9128 6.76824 12.1564C6.66733 12.4001 6.64092 12.6681 6.69237 12.9268C6.74382 13.1854 6.8708 13.423 7.05727 13.6095C7.24374 13.7959 7.48132 13.9229 7.73996 13.9744C7.9986 14.0258 8.26669 13.9994 8.51033 13.8985C8.75396 13.7976 8.9622 13.6267 9.10871 13.4074C9.25522 13.1882 9.33342 12.9304 9.33342 12.6667C9.33342 12.313 9.19294 11.9739 8.94289 11.7239C8.69284 11.4738 8.3537 11.3333 8.00008 11.3333ZM8.00008 6.66667C7.73637 6.66667 7.47859 6.74487 7.25932 6.89138C7.04006 7.03788 6.86916 7.24612 6.76824 7.48976C6.66733 7.73339 6.64092 8.00148 6.69237 8.26012C6.74382 8.51876 6.8708 8.75634 7.05727 8.94281C7.24374 9.12928 7.48132 9.25627 7.73996 9.30772C7.9986 9.35916 8.26669 9.33276 8.51033 9.23184C8.75396 9.13092 8.9622 8.96003 9.10871 8.74076C9.25522 8.5215 9.33342 8.26371 9.33342 8C9.33342 7.64638 9.19294 7.30724 8.94289 7.05719C8.69284 6.80714 8.3537 6.66667 8.00008 6.66667Z" fill="#083160"/>
</svg>
