<svg width="30" height="30" viewBox="0 0 30 30" fill="none" xmlns="http://www.w3.org/2000/svg">
<path d="M15.0001 17.5438C15.7655 17.545 16.5104 17.2967 17.122 16.8365L17.1222 16.8363L18.7546 15.6017L25.2892 21.4296C25.2318 21.5052 25.1691 21.5772 25.1012 21.645C24.7054 22.0408 24.1686 22.2632 23.6089 22.2632H6.39129C5.83156 22.2632 5.29475 22.0408 4.89896 21.645C4.83111 21.5772 4.76836 21.5052 4.71095 21.4296L11.2456 15.6017L12.878 16.8363L12.8782 16.8365C13.4898 17.2967 14.2347 17.545 15.0001 17.5438ZM15.0001 17.5438C15 17.5438 15 17.5438 14.9999 17.5438L15.0001 17.4438L15.0003 17.5438C15.0002 17.5438 15.0001 17.5438 15.0001 17.5438ZM23.6089 23.6689H23.609C24.5412 23.6678 25.4349 23.297 26.0941 22.6378C26.7532 21.9787 27.124 21.085 27.1251 20.1528V20.1527V9.84783V9.84772C27.124 8.91553 26.7532 8.02184 26.0941 7.36268C25.4349 6.70353 24.5412 6.33274 23.609 6.33164H23.6089L6.39129 6.33164L6.39117 6.33164C5.45899 6.33274 4.5653 6.70353 3.90614 7.36268C3.24699 8.02184 2.87619 8.91553 2.8751 9.84772V9.84783L2.8751 20.1527L2.8751 20.1528C2.87565 20.6193 2.96878 21.0762 3.14432 21.4988C3.14836 21.5115 3.15276 21.5242 3.15754 21.5367C3.1708 21.5714 3.18673 21.6049 3.20513 21.6368C3.37704 22.0054 3.61309 22.3448 3.90614 22.6378C4.5653 23.297 5.45899 23.6678 6.39117 23.6689H6.39129H23.6089ZM25.7194 19.9313L19.8982 14.7368L25.7194 10.3341V19.9313ZM25.1012 8.3555C25.2317 8.48592 25.3433 8.63166 25.4343 8.78848L18.4583 14.0705C18.3938 14.105 18.3345 14.1497 18.283 14.2032L16.2746 15.7239C16.2745 15.724 16.2744 15.7241 16.2743 15.7241C15.9063 15.9988 15.4593 16.1472 15.0001 16.1472C14.5409 16.1472 14.0939 15.9988 13.7259 15.7241C13.7258 15.7241 13.7257 15.724 13.7256 15.7239L11.7172 14.2032C11.6657 14.1497 11.6064 14.105 11.5419 14.0705L4.56594 8.78848C4.65694 8.63166 4.76853 8.48592 4.89896 8.3555C5.29475 7.95971 5.83156 7.73736 6.39129 7.73736H23.6089C24.1686 7.73736 24.7054 7.95971 25.1012 8.3555ZM4.28081 19.9281V10.3341L10.1018 14.7367L4.28081 19.9281Z" fill="white" stroke="white" stroke-width="0.2"/>
</svg>
