<svg width="21" height="20" viewBox="0 0 21 20" fill="none" xmlns="http://www.w3.org/2000/svg">
<path d="M19.1378 18.6806H2.88946C2.55559 18.6806 2.33301 18.458 2.33301 18.1242V1.87579C2.33301 1.54192 2.55559 1.31934 2.88946 1.31934H19.0266C19.3604 1.31934 19.583 1.54192 19.583 1.87579V18.0129C19.583 18.3468 19.3604 18.6806 19.1378 18.6806ZM3.44591 17.5677H18.5814V2.43224H3.44591V17.5677Z" fill="#2F3337"/>
<path d="M18.6927 15.008L14.3524 10.6677L12.2378 12.7822C12.1266 12.8935 12.0153 12.8935 11.904 12.8935C11.7927 12.8935 11.5701 12.7822 11.5701 12.7822L8.2314 9.44353L3.44591 14.229L2.66688 13.45L7.89752 8.21934C8.00881 8.10805 8.12011 8.10804 8.2314 8.10804C8.34269 8.10804 8.56527 8.21934 8.56527 8.21934L11.904 11.558L14.0185 9.44353C14.2411 9.22095 14.5749 9.22095 14.7975 9.44353L19.4717 14.1177L18.6927 15.008ZM12.4604 8.33063C11.1249 8.33063 10.012 7.21772 10.012 5.88224C10.012 4.54676 11.1249 3.43385 12.4604 3.43385C13.7959 3.43385 14.9088 4.54676 14.9088 5.88224C14.9088 7.21772 13.7959 8.33063 12.4604 8.33063ZM12.4604 4.54675C11.6814 4.54675 11.0137 5.10321 11.0137 5.88224C11.0137 6.66127 11.6814 7.21772 12.4604 7.21772C13.2395 7.21772 13.7959 6.54998 13.7959 5.88224C13.7959 5.10321 13.1282 4.54675 12.4604 4.54675Z" fill="#2F3337"/>
</svg>
