<svg width="21" height="20" viewBox="0 0 21 20" fill="none" xmlns="http://www.w3.org/2000/svg">
<path d="M6.94821 3.57203L6.94821 3.57205L6.95 3.57247C7.23136 3.6384 7.49052 3.46189 7.5557 3.20094C7.6198 2.9742 7.74726 2.78047 7.92233 2.635C8.09634 2.49042 8.29973 2.4112 8.53564 2.4112H17.5826C17.8648 2.4112 18.1179 2.53878 18.2928 2.71643C18.4836 2.91022 18.594 3.16751 18.594 3.43983V10.8641C18.594 11.1522 18.4677 11.4099 18.2928 11.5875C18.102 11.7813 17.8493 11.8927 17.5826 11.8927H17.0096C16.7272 11.8927 16.5102 12.1153 16.5102 12.3983C16.5102 12.6814 16.7272 12.9039 17.0096 12.9039H17.5653C18.1143 12.9039 18.6085 12.6806 18.9736 12.3098C19.3387 11.939 19.558 11.4379 19.558 10.8817V3.4222C19.558 2.86606 19.3387 2.36495 18.9736 1.99415C18.6085 1.62333 18.1143 1.4 17.5653 1.4H8.51827C8.05886 1.4 7.63786 1.56815 7.29229 1.84522C6.94567 2.12312 6.6901 2.51227 6.58052 2.95742L6.5805 2.95742L6.58011 2.95917C6.5159 3.24174 6.68768 3.50588 6.94821 3.57203ZM13.3977 15.2081H5.98303C5.86567 15.2081 5.77523 15.257 5.69719 15.3163C5.69703 15.3165 5.69686 15.3166 5.6967 15.3167L3.33942 17.0668V6.75519C3.33942 6.46712 3.46571 6.2094 3.6406 6.03178C3.83141 5.838 4.08405 5.72656 4.35076 5.72656H13.3977C13.6799 5.72656 13.933 5.85414 14.1079 6.03178C14.2987 6.22558 14.4091 6.48287 14.4091 6.75519V14.1795C14.4091 14.4675 14.2828 14.7253 14.1079 14.9029C13.9171 15.0966 13.6644 15.2081 13.3977 15.2081ZM5.13635 11.9046C5.13635 12.1876 5.35332 12.4102 5.63574 12.4102H12.1128C12.3952 12.4102 12.6121 12.1876 12.6121 11.9046C12.6121 11.6215 12.3952 11.399 12.1128 11.399H5.63574C5.35332 11.399 5.13635 11.6215 5.13635 11.9046ZM5.13635 9.04772C5.13635 9.33074 5.35332 9.55332 5.63574 9.55332H12.1128C12.3952 9.55332 12.6121 9.33074 12.6121 9.04772C12.6121 8.7647 12.3952 8.54212 12.1128 8.54212H5.63574C5.35332 8.54212 5.13635 8.7647 5.13635 9.04772ZM6.15554 16.2193H13.3977C13.9468 16.2193 14.4409 15.996 14.8061 15.6251C15.1712 15.2543 15.3905 14.7532 15.3905 14.1971V6.75519C15.3905 6.19904 15.1712 5.69794 14.8061 5.32714C14.4409 4.95632 13.9468 4.73299 13.3977 4.73299H4.35076C3.8017 4.73299 3.30756 4.95632 2.94242 5.32714C2.57731 5.69794 2.35801 6.19904 2.35801 6.75519V18.0944C2.35801 18.3774 2.57498 18.6 2.85739 18.6C2.9842 18.6 3.09524 18.5569 3.1837 18.4698L6.15554 16.2193Z" fill="#2F3337" stroke="#2F3337" stroke-width="0.2"/>
</svg>
