<svg width="12" height="12" viewBox="0 0 12 12" fill="none" xmlns="http://www.w3.org/2000/svg">
<g clip-path="url(#clip0_2518_47)">
<path d="M9.78344 6.46877C9.68481 6.45019 9.58666 6.4287 9.48901 6.40529C9.28384 6.35494 9.08181 6.2925 8.88403 6.21828C8.4085 6.03853 7.87356 6.24151 7.63696 6.69143L7.26144 7.41262C6.7065 7.09759 6.19683 6.70879 5.7463 6.25686C5.29574 5.80465 4.90829 5.29369 4.59444 4.73781L5.31124 4.36477C5.76116 4.1281 5.96419 3.59328 5.78466 3.1177C5.71023 2.91961 5.6477 2.71728 5.5974 2.51174C5.57357 2.41424 5.55248 2.31594 5.53417 2.21682C5.39861 1.50771 4.7766 0.996146 4.05468 1.00002H2.51684C2.074 0.999991 1.65322 1.19332 1.36474 1.52932C1.07888 1.86043 0.951743 2.29983 1.01659 2.73244C1.68243 6.98354 5.01568 10.3191 9.26635 10.9878C9.34035 10.9991 9.41512 11.0048 9.48998 11.0049C9.84975 11.0045 10.1975 10.8751 10.47 10.6402C10.8063 10.3516 10.9998 9.93047 10.9997 9.48733V7.94826C11.0039 7.2264 10.4925 6.60433 9.78344 6.46877ZM10.4997 9.48733C10.4996 9.78472 10.3696 10.0672 10.1438 10.2608C9.9229 10.4513 9.63009 10.5363 9.34155 10.4937C5.30706 9.859 2.14324 6.69314 1.51122 2.65822C1.46792 2.36953 1.55291 2.07629 1.74389 1.85549C1.93728 1.62981 2.21966 1.49996 2.51684 1.50002H4.05468C4.53551 1.49615 4.95074 1.83562 5.0425 2.30764C5.06228 2.41555 5.08572 2.52346 5.11159 2.63039C5.1668 2.85528 5.23528 3.07668 5.31667 3.29348C5.40752 3.53249 5.30605 3.80175 5.0801 3.92141L4.13821 4.41164C4.01583 4.47533 3.96819 4.62612 4.03176 4.74856C4.38763 5.43465 4.84646 6.06222 5.39233 6.6094C5.93792 7.15713 6.56435 7.61791 7.24975 7.97561C7.30883 8.00567 7.37725 8.01162 7.44064 7.99221C7.50381 7.9724 7.55648 7.9283 7.58715 7.86965L8.08031 6.92238C8.2 6.69674 8.46893 6.59545 8.70776 6.68606C8.92431 6.76754 9.14556 6.83587 9.37035 6.89065C9.47631 6.91701 9.58324 6.93947 9.69164 6.95998C10.1639 7.05172 10.5036 7.46718 10.4997 7.94826V9.48733Z" fill="#2F3337"/>
</g>
<defs>
<clipPath id="clip0_2518_47">
<rect width="12" height="12" fill="white"/>
</clipPath>
</defs>
</svg>
